<svg width="190" height="180" viewBox="0 0 190 180" fill="none" xmlns="http://www.w3.org/2000/svg">
<path d="M88.6618 179.976C88.0387 179.992 87.4132 180 86.7853 180C71.87 180 53.1102 170.854 36.0856 158.192C34.6771 157.145 33.2811 156.073 31.8977 154.977L33.1111 146.5L69.8431 140.901L88.2785 157.085L88.6618 179.976Z" fill="#2F2E41"/>
<path d="M90.4301 28.6076H85.1958C85.0337 28.6077 84.8782 28.6816 84.7636 28.8132C84.649 28.9448 84.5845 29.1233 84.5845 29.3095V35.3216C84.5846 35.4136 84.6004 35.5047 84.6312 35.5897C84.662 35.6747 84.7071 35.7519 84.7638 35.8168C84.8206 35.8817 84.888 35.9332 84.9621 35.9682C85.0362 36.0032 85.1157 36.0211 85.1958 36.0209H90.4301C90.5919 36.0209 90.7471 35.9474 90.8617 35.8163C90.9763 35.6852 91.041 35.5073 91.0415 35.3216V29.3095C91.0411 29.1235 90.9765 28.9452 90.8619 28.8137C90.7474 28.6822 90.5921 28.6081 90.4301 28.6076Z" fill="white"/>
<path d="M90.4301 38.8528H85.1958C85.0337 38.8529 84.8782 38.9269 84.7636 39.0585C84.649 39.1901 84.5845 39.3686 84.5845 39.5547V45.5669C84.5846 45.6589 84.6004 45.75 84.6312 45.835C84.662 45.92 84.7071 45.9971 84.7638 46.0621C84.8206 46.127 84.888 46.1785 84.9621 46.2135C85.0362 46.2485 85.1157 46.2664 85.1958 46.2661H90.4301C90.5919 46.2662 90.7471 46.1927 90.8617 46.0616C90.9763 45.9305 91.041 45.7526 91.0415 45.5669V39.5547C91.0411 39.3687 90.9765 39.1905 90.8619 39.059C90.7474 38.9275 90.5921 38.8534 90.4301 38.8528Z" fill="#E6E6E6"/>
<path d="M90.4301 49.0981H85.1958C85.0337 49.0982 84.8782 49.1722 84.7636 49.3038C84.649 49.4354 84.5845 49.6139 84.5845 49.8V55.8095C84.5843 55.9017 84.6 55.9931 84.6307 56.0783C84.6613 56.1636 84.7064 56.241 84.7632 56.3062C84.82 56.3714 84.8874 56.4231 84.9617 56.4583C85.0359 56.4935 85.1155 56.5116 85.1958 56.5114H90.4301C90.5923 56.5113 90.7477 56.4373 90.8624 56.3057C90.977 56.1741 91.0415 55.9956 91.0415 55.8095V49.8C91.0411 49.614 90.9765 49.4358 90.862 49.3043C90.7474 49.1728 90.5921 49.0986 90.4301 49.0981Z" fill="#E6E6E6"/>
<path d="M91.0321 59.9211C91.006 59.7594 90.9316 59.6133 90.8217 59.5078C90.7119 59.4023 90.5734 59.3442 90.4301 59.3434H85.1958C85.0337 59.3435 84.8782 59.4174 84.7636 59.5491C84.649 59.6807 84.5845 59.8592 84.5845 60.0453V66.0548C84.5843 66.147 84.6 66.2384 84.6307 66.3236C84.6613 66.4088 84.7064 66.4863 84.7632 66.5515C84.82 66.6167 84.8874 66.6684 84.9617 66.7036C85.0359 66.7388 85.1155 66.7569 85.1958 66.7567H90.4301C90.5923 66.7566 90.7477 66.6826 90.8624 66.551C90.977 66.4194 91.0415 66.2409 91.0415 66.0548V60.0453C91.042 60.0036 91.0389 59.962 91.0321 59.9211Z" fill="#E6E6E6"/>
<path d="M90.6676 69.6427C90.5923 69.6069 90.5116 69.5885 90.4301 69.5886H85.1958C85.1155 69.5885 85.0359 69.6065 84.9617 69.6417C84.8874 69.6769 84.82 69.7286 84.7632 69.7938C84.7064 69.859 84.6613 69.9365 84.6307 70.0217C84.6 70.107 84.5843 70.1983 84.5845 70.2906V76.3C84.5841 76.3923 84.5997 76.4838 84.6303 76.5691C84.6609 76.6545 84.7059 76.732 84.7627 76.7973C84.8196 76.8626 84.8871 76.9142 84.9614 76.9494C85.0358 76.9845 85.1154 77.0024 85.1958 77.002H90.4301C90.5923 77.0019 90.7477 76.9279 90.8624 76.7963C90.977 76.6647 91.0415 76.4862 91.0415 76.3V70.2906C91.0413 70.1524 91.0057 70.0174 90.9392 69.9022C90.8728 69.7871 90.7783 69.6968 90.6676 69.6427Z" fill="#E6E6E6"/>
<path d="M101.426 28.6076H96.1912C96.0291 28.6077 95.8736 28.6816 95.759 28.8132C95.6443 28.9448 95.5799 29.1233 95.5798 29.3095V35.3216C95.5799 35.4136 95.5958 35.5047 95.6266 35.5897C95.6574 35.6747 95.7024 35.7519 95.7592 35.8168C95.816 35.8817 95.8834 35.9332 95.9575 35.9682C96.0316 36.0032 96.111 36.0211 96.1912 36.0209H101.426C101.587 36.0209 101.742 35.9474 101.857 35.8163C101.972 35.6852 102.036 35.5073 102.037 35.3216V29.3095C102.036 29.1235 101.972 28.9452 101.857 28.8137C101.743 28.6822 101.588 28.6081 101.426 28.6076Z" fill="#E6E6E6"/>
<path d="M101.426 38.8528H96.1912C96.0291 38.8529 95.8736 38.9269 95.759 39.0585C95.6443 39.1901 95.5799 39.3686 95.5798 39.5547V45.5669C95.5799 45.6589 95.5958 45.75 95.6266 45.835C95.6574 45.92 95.7024 45.9971 95.7592 46.0621C95.816 46.127 95.8834 46.1785 95.9575 46.2135C96.0316 46.2485 96.111 46.2664 96.1912 46.2661H101.426C101.587 46.2662 101.742 46.1927 101.857 46.0616C101.972 45.9305 102.036 45.7526 102.037 45.5669V39.5547C102.036 39.3687 101.972 39.1905 101.857 39.059C101.743 38.9275 101.588 38.8534 101.426 38.8528Z" fill="#6C63FF"/>
<path d="M101.426 49.0981H96.1912C96.0291 49.0982 95.8736 49.1722 95.759 49.3038C95.6443 49.4354 95.5799 49.6139 95.5798 49.8V55.8095C95.5797 55.9017 95.5954 55.9931 95.626 56.0783C95.6567 56.1636 95.7017 56.241 95.7585 56.3062C95.8153 56.3714 95.8828 56.4231 95.957 56.4583C96.0313 56.4935 96.1109 56.5116 96.1912 56.5114H101.426C101.588 56.5113 101.743 56.4373 101.858 56.3057C101.972 56.1741 102.037 55.9956 102.037 55.8095V49.8C102.036 49.614 101.972 49.4358 101.857 49.3043C101.743 49.1728 101.588 49.0986 101.426 49.0981Z" fill="#6C63FF"/>
<path d="M101.426 59.3434H96.1912C96.063 59.3435 95.9381 59.39 95.8343 59.4762C95.7304 59.5625 95.6529 59.6841 95.6127 59.8239C95.591 59.895 95.5799 59.9699 95.5798 60.0453V66.0548C95.5797 66.147 95.5954 66.2383 95.626 66.3236C95.6567 66.4088 95.7017 66.4863 95.7585 66.5515C95.8153 66.6167 95.8828 66.6684 95.957 66.7036C96.0313 66.7388 96.1108 66.7569 96.1912 66.7567H101.426C101.588 66.7566 101.743 66.6826 101.858 66.551C101.972 66.4194 102.037 66.2409 102.037 66.0548V60.0453C102.036 59.8593 101.972 59.6811 101.857 59.5496C101.743 59.418 101.588 59.3439 101.426 59.3434Z" fill="#6C63FF"/>
<path d="M101.426 69.5886H96.1912C96.1108 69.5885 96.0313 69.6065 95.957 69.6417C95.8828 69.6769 95.8153 69.7286 95.7585 69.7938C95.7017 69.859 95.6567 69.9365 95.626 70.0217C95.5954 70.107 95.5797 70.1983 95.5798 70.2906V76.3C95.5797 76.3923 95.5954 76.4836 95.626 76.5689C95.6567 76.6541 95.7017 76.7316 95.7585 76.7968C95.8153 76.862 95.8828 76.9137 95.957 76.9489C96.0313 76.9841 96.1108 77.0022 96.1912 77.002H101.426C101.588 77.0019 101.743 76.9279 101.858 76.7963C101.972 76.6647 102.037 76.4862 102.037 76.3V70.2906C102.037 70.1044 101.972 69.9259 101.858 69.7943C101.743 69.6627 101.588 69.5887 101.426 69.5886Z" fill="#E6E6E6"/>
<path d="M112.421 28.6076H107.187C107.024 28.6077 106.869 28.6816 106.754 28.8132C106.64 28.9448 106.575 29.1233 106.575 29.3095V35.3216C106.575 35.4136 106.591 35.5047 106.622 35.5897C106.653 35.6747 106.698 35.7519 106.755 35.8168C106.811 35.8817 106.879 35.9332 106.953 35.9682C107.027 36.0032 107.106 36.0211 107.187 36.0209H112.421C112.583 36.0209 112.738 35.9474 112.852 35.8163C112.967 35.6852 113.032 35.5073 113.032 35.3216V29.3095C113.032 29.1235 112.967 28.9452 112.853 28.8137C112.738 28.6822 112.583 28.6081 112.421 28.6076Z" fill="#6C63FF"/>
<path d="M112.421 38.8528H107.187C107.024 38.8529 106.869 38.9269 106.754 39.0585C106.64 39.1901 106.575 39.3686 106.575 39.5547V45.5669C106.575 45.6589 106.591 45.75 106.622 45.835C106.653 45.92 106.698 45.9971 106.755 46.0621C106.811 46.127 106.879 46.1785 106.953 46.2135C107.027 46.2485 107.106 46.2664 107.187 46.2661H112.421C112.583 46.2662 112.738 46.1927 112.852 46.0616C112.967 45.9305 113.032 45.7526 113.032 45.5669V39.5547C113.032 39.3687 112.967 39.1905 112.853 39.059C112.738 38.9275 112.583 38.8534 112.421 38.8528Z" fill="#6C63FF"/>
<path d="M112.421 49.0981H107.187C107.024 49.0982 106.869 49.1722 106.754 49.3038C106.64 49.4354 106.575 49.6139 106.575 49.8V55.8095C106.575 55.9017 106.591 55.9931 106.621 56.0783C106.652 56.1636 106.697 56.241 106.754 56.3062C106.811 56.3714 106.878 56.4231 106.952 56.4583C107.027 56.4935 107.106 56.5116 107.187 56.5114H112.421C112.583 56.5113 112.738 56.4373 112.853 56.3057C112.968 56.1741 113.032 55.9956 113.032 55.8095V49.8C113.032 49.614 112.967 49.4358 112.853 49.3043C112.738 49.1728 112.583 49.0986 112.421 49.0981Z" fill="#E6E6E6"/>
<path d="M112.421 59.3434H107.187C107.024 59.3435 106.869 59.4174 106.754 59.5491C106.64 59.6807 106.575 59.8592 106.575 60.0453V66.0548C106.575 66.147 106.591 66.2384 106.621 66.3236C106.652 66.4088 106.697 66.4863 106.754 66.5515C106.811 66.6167 106.878 66.6684 106.952 66.7036C107.027 66.7388 107.106 66.7569 107.187 66.7567H112.421C112.583 66.7566 112.738 66.6826 112.853 66.551C112.968 66.4194 113.032 66.2409 113.032 66.0548V60.0453C113.032 59.8593 112.967 59.6811 112.853 59.5496C112.738 59.418 112.583 59.3439 112.421 59.3434Z" fill="#6C63FF"/>
<path d="M112.421 69.5886H107.187C107.106 69.5885 107.027 69.6065 106.952 69.6417C106.878 69.6769 106.811 69.7286 106.754 69.7938C106.697 69.859 106.652 69.9365 106.621 70.0217C106.591 70.107 106.575 70.1983 106.575 70.2906V76.3C106.575 76.3923 106.591 76.4836 106.621 76.5689C106.652 76.6541 106.697 76.7316 106.754 76.7968C106.811 76.862 106.878 76.9137 106.952 76.9489C107.027 76.9841 107.106 77.0022 107.187 77.002H112.421C112.583 77.0019 112.738 76.9279 112.853 76.7963C112.968 76.6647 113.032 76.4862 113.032 76.3V70.2906C113.032 70.1044 112.968 69.9259 112.853 69.7943C112.738 69.6627 112.583 69.5887 112.421 69.5886Z" fill="#6C63FF"/>
<path d="M123.416 28.6076H118.182C118.02 28.6077 117.864 28.6816 117.75 28.8132C117.635 28.9448 117.571 29.1233 117.571 29.3095V35.3216C117.571 35.4137 117.587 35.5048 117.617 35.5897C117.648 35.6747 117.693 35.7519 117.75 35.8168C117.807 35.8817 117.874 35.9332 117.948 35.9682C118.022 36.0032 118.102 36.0211 118.182 36.0209H123.416C123.578 36.0209 123.733 35.9474 123.848 35.8163C123.962 35.6852 124.027 35.5073 124.028 35.3216V29.3095C124.027 29.1235 123.963 28.9452 123.848 28.8137C123.733 28.6822 123.578 28.6081 123.416 28.6076Z" fill="#6C63FF"/>
<path d="M123.416 38.8528H118.182C118.02 38.8529 117.864 38.9269 117.75 39.0585C117.635 39.1901 117.571 39.3686 117.571 39.5547V45.5669C117.571 45.6589 117.587 45.7501 117.617 45.835C117.648 45.92 117.693 45.9971 117.75 46.0621C117.807 46.127 117.874 46.1785 117.948 46.2135C118.022 46.2485 118.102 46.2664 118.182 46.2661H123.416C123.578 46.2662 123.733 46.1927 123.848 46.0616C123.962 45.9305 124.027 45.7526 124.028 45.5669V39.5547C124.027 39.3687 123.963 39.1905 123.848 39.059C123.734 38.9275 123.578 38.8534 123.416 38.8528Z" fill="white"/>
<path d="M123.416 49.0981H118.182C118.02 49.0982 117.864 49.1722 117.75 49.3038C117.635 49.4354 117.571 49.6139 117.571 49.8V55.8095C117.57 55.9017 117.586 55.9931 117.617 56.0783C117.647 56.1636 117.692 56.241 117.749 56.3062C117.806 56.3714 117.874 56.4231 117.948 56.4583C118.022 56.4935 118.102 56.5116 118.182 56.5114H123.416C123.578 56.5113 123.734 56.4373 123.848 56.3057C123.963 56.1741 124.028 55.9956 124.028 55.8095V49.8C124.027 49.614 123.963 49.4358 123.848 49.3043C123.734 49.1728 123.578 49.0986 123.416 49.0981Z" fill="white"/>
<path d="M123.416 59.3434H118.182C118.02 59.3434 117.864 59.4174 117.75 59.5491C117.635 59.6807 117.571 59.8592 117.571 60.0453V66.0548C117.57 66.147 117.586 66.2384 117.617 66.3236C117.647 66.4088 117.692 66.4863 117.749 66.5515C117.806 66.6167 117.874 66.6684 117.948 66.7036C118.022 66.7388 118.102 66.7569 118.182 66.7567H123.416C123.578 66.7566 123.734 66.6826 123.848 66.551C123.963 66.4194 124.028 66.2409 124.028 66.0548V60.0453C124.027 59.8593 123.963 59.6811 123.848 59.5496C123.734 59.418 123.578 59.3439 123.416 59.3434Z" fill="#E6E6E6"/>
<path d="M123.416 69.5886H118.182C118.102 69.5885 118.022 69.6065 117.948 69.6417C117.874 69.6769 117.806 69.7286 117.749 69.7938C117.692 69.859 117.647 69.9365 117.617 70.0217C117.586 70.107 117.57 70.1983 117.571 70.2906V76.3C117.57 76.3923 117.586 76.4836 117.617 76.5689C117.647 76.6541 117.692 76.7316 117.749 76.7968C117.806 76.862 117.874 76.9137 117.948 76.9489C118.022 76.9841 118.102 77.0022 118.182 77.002H123.416C123.578 77.0019 123.734 76.9279 123.849 76.7963C123.963 76.6647 124.028 76.4862 124.028 76.3V70.2906C124.028 70.1044 123.963 69.9259 123.848 69.7943C123.734 69.6627 123.578 69.5887 123.416 69.5886Z" fill="#6C63FF"/>
<path d="M134.412 28.6076H129.175C129.013 28.6082 128.858 28.6825 128.744 28.814C128.63 28.9456 128.566 29.1237 128.566 29.3095V35.3216C128.566 35.5071 128.63 35.6849 128.744 35.816C128.859 35.9471 129.013 36.0208 129.175 36.0209H134.412C134.573 36.0209 134.729 35.9474 134.843 35.8163C134.958 35.6852 135.022 35.5073 135.023 35.3216V29.3095C135.023 29.1235 134.958 28.9452 134.843 28.8137C134.729 28.6822 134.574 28.6081 134.412 28.6076Z" fill="white"/>
<path d="M134.412 38.8528H129.175C129.013 38.8535 128.858 38.9277 128.744 39.0593C128.63 39.1909 128.566 39.369 128.566 39.5547V45.5669C128.566 45.7524 128.63 45.9302 128.744 46.0613C128.859 46.1924 129.013 46.2661 129.175 46.2661H134.412C134.573 46.2662 134.729 46.1927 134.843 46.0616C134.958 45.9305 135.022 45.7526 135.023 45.5669V39.5547C135.023 39.3687 134.958 39.1905 134.843 39.059C134.729 38.9275 134.574 38.8534 134.412 38.8528Z" fill="white"/>
<path d="M134.412 49.0981H129.175C129.013 49.0987 128.858 49.173 128.744 49.3046C128.63 49.4361 128.566 49.6143 128.566 49.8V55.8095C128.566 55.9015 128.581 55.9927 128.612 56.0778C128.642 56.1629 128.687 56.2402 128.744 56.3054C128.8 56.3706 128.867 56.4224 128.941 56.4577C129.015 56.4931 129.095 56.5113 129.175 56.5114H134.412C134.574 56.5113 134.729 56.4373 134.844 56.3057C134.959 56.1741 135.023 55.9956 135.023 55.8095V49.8C135.023 49.614 134.958 49.4358 134.843 49.3043C134.729 49.1728 134.574 49.0986 134.412 49.0981Z" fill="white"/>
<path d="M134.412 59.3434H129.175C129.013 59.344 128.858 59.4183 128.744 59.5498C128.63 59.6814 128.566 59.8596 128.566 60.0453V66.0548C128.566 66.1468 128.581 66.238 128.612 66.3231C128.642 66.4082 128.687 66.4855 128.744 66.5507C128.8 66.6159 128.867 66.6677 128.941 66.703C129.015 66.7384 129.095 66.7566 129.175 66.7567H134.412C134.574 66.7566 134.729 66.6826 134.844 66.551C134.959 66.4194 135.023 66.2409 135.023 66.0548V60.0453C135.023 59.8593 134.958 59.6811 134.843 59.5496C134.729 59.418 134.574 59.3439 134.412 59.3434Z" fill="#6C63FF"/>
<path d="M134.412 69.5886H129.175C129.095 69.5887 129.015 69.607 128.941 69.6423C128.867 69.6777 128.8 69.7294 128.744 69.7946C128.687 69.8598 128.642 69.9372 128.612 70.0223C128.581 70.1074 128.566 70.1985 128.566 70.2906V76.3C128.566 76.3921 128.581 76.4832 128.612 76.5683C128.642 76.6534 128.687 76.7308 128.744 76.796C128.8 76.8612 128.867 76.9129 128.941 76.9483C129.015 76.9836 129.095 77.0019 129.175 77.002H134.412C134.574 77.0019 134.729 76.9279 134.844 76.7963C134.959 76.6647 135.023 76.4862 135.023 76.3V70.2906C135.023 70.1044 134.959 69.9259 134.844 69.7943C134.729 69.6627 134.574 69.5887 134.412 69.5886Z" fill="#E6E6E6"/>
<path d="M145.407 28.6076H140.17C140.009 28.6082 139.854 28.6825 139.739 28.814C139.625 28.9456 139.561 29.1237 139.561 29.3095V35.3216C139.561 35.5071 139.625 35.6849 139.74 35.816C139.854 35.9471 140.009 36.0208 140.17 36.0209H145.407C145.569 36.0209 145.724 35.9474 145.839 35.8163C145.953 35.6852 146.018 35.5073 146.018 35.3216V29.3095C146.018 29.1235 145.953 28.9452 145.839 28.8137C145.724 28.6822 145.569 28.6081 145.407 28.6076Z" fill="white"/>
<path d="M145.407 38.8528H140.17C140.009 38.8535 139.854 38.9277 139.739 39.0593C139.625 39.1909 139.561 39.369 139.561 39.5547V45.5669C139.561 45.7524 139.625 45.9302 139.74 46.0613C139.854 46.1924 140.009 46.2661 140.17 46.2661H145.407C145.569 46.2662 145.724 46.1927 145.839 46.0616C145.953 45.9305 146.018 45.7526 146.018 45.5669V39.5547C146.018 39.3688 145.953 39.1905 145.839 39.059C145.724 38.9275 145.569 38.8534 145.407 38.8528Z" fill="white"/>
<path d="M145.407 49.0981H140.17C140.009 49.0987 139.854 49.173 139.739 49.3046C139.625 49.4361 139.561 49.6143 139.561 49.8V55.8095C139.561 55.9015 139.577 55.9927 139.607 56.0778C139.638 56.1629 139.682 56.2402 139.739 56.3054C139.796 56.3706 139.863 56.4224 139.937 56.4577C140.011 56.4931 140.09 56.5113 140.17 56.5114H145.407C145.569 56.5113 145.725 56.4373 145.839 56.3057C145.954 56.1741 146.018 55.9956 146.018 55.8095V49.8C146.018 49.614 145.953 49.4358 145.839 49.3043C145.724 49.1728 145.569 49.0986 145.407 49.0981Z" fill="#6C63FF"/>
<path d="M145.407 59.3434H140.17C140.009 59.344 139.854 59.4183 139.739 59.5498C139.625 59.6814 139.561 59.8596 139.561 60.0453V66.0548C139.561 66.1468 139.577 66.238 139.607 66.3231C139.638 66.4082 139.682 66.4855 139.739 66.5507C139.796 66.6159 139.863 66.6677 139.937 66.703C140.011 66.7384 140.09 66.7566 140.17 66.7567H145.407C145.569 66.7566 145.725 66.6826 145.839 66.551C145.954 66.4194 146.018 66.2409 146.018 66.0548V60.0453C146.018 59.8593 145.953 59.6811 145.839 59.5496C145.724 59.418 145.569 59.3439 145.407 59.3434Z" fill="#E6E6E6"/>
<path d="M145.407 69.5886H140.17C140.09 69.5887 140.011 69.607 139.937 69.6423C139.863 69.6777 139.796 69.7294 139.739 69.7946C139.682 69.8598 139.638 69.9372 139.607 70.0223C139.577 70.1074 139.561 70.1985 139.561 70.2906V76.3C139.561 76.3921 139.577 76.4832 139.607 76.5683C139.638 76.6534 139.682 76.7308 139.739 76.796C139.796 76.8612 139.863 76.9129 139.937 76.9483C140.011 76.9836 140.09 77.0019 140.17 77.002H145.407C145.569 77.0019 145.725 76.9279 145.839 76.7963C145.954 76.6647 146.018 76.4862 146.018 76.3V70.2906C146.018 70.1044 145.954 69.9259 145.839 69.7943C145.725 69.6627 145.569 69.5887 145.407 69.5886Z" fill="white"/>
<path d="M156.402 28.6076H151.166C151.004 28.6082 150.849 28.6825 150.735 28.814C150.621 28.9456 150.557 29.1237 150.557 29.3095V35.3216C150.557 35.5071 150.621 35.6849 150.735 35.816C150.849 35.9471 151.004 36.0208 151.166 36.0209H156.402C156.564 36.0209 156.719 35.9474 156.834 35.8163C156.949 35.6852 157.013 35.5073 157.014 35.3216V29.3095C157.013 29.1235 156.949 28.9452 156.834 28.8137C156.72 28.6822 156.564 28.6081 156.402 28.6076Z" fill="#6C63FF"/>
<path d="M156.402 38.8528H151.166C151.004 38.8535 150.849 38.9277 150.735 39.0593C150.621 39.1909 150.557 39.369 150.557 39.5547V45.5669C150.557 45.7524 150.621 45.9302 150.735 46.0613C150.849 46.1924 151.004 46.2661 151.166 46.2661H156.402C156.564 46.2662 156.719 46.1927 156.834 46.0616C156.949 45.9305 157.013 45.7526 157.014 45.5669V39.5547C157.013 39.3688 156.949 39.1905 156.834 39.059C156.72 38.9275 156.564 38.8534 156.402 38.8528Z" fill="#6C63FF"/>
<path d="M156.402 49.0981H151.166C151.004 49.0987 150.849 49.173 150.735 49.3046C150.621 49.4361 150.557 49.6143 150.557 49.8V55.8095C150.556 55.9015 150.572 55.9927 150.602 56.0778C150.633 56.1629 150.678 56.2402 150.734 56.3054C150.791 56.3706 150.858 56.4224 150.932 56.4577C151.006 56.4931 151.086 56.5113 151.166 56.5114H156.402C156.564 56.5113 156.72 56.4373 156.835 56.3057C156.949 56.1741 157.014 55.9956 157.014 55.8095V49.8C157.013 49.614 156.949 49.4358 156.834 49.3043C156.72 49.1728 156.564 49.0986 156.402 49.0981Z" fill="#E6E6E6"/>
<path d="M156.402 59.3434H151.166C151.004 59.344 150.849 59.4183 150.735 59.5498C150.621 59.6814 150.557 59.8596 150.557 60.0453V66.0548C150.556 66.1468 150.572 66.238 150.602 66.3231C150.633 66.4082 150.678 66.4855 150.734 66.5507C150.791 66.6159 150.858 66.6677 150.932 66.703C151.006 66.7384 151.086 66.7566 151.166 66.7567H156.402C156.564 66.7566 156.72 66.6826 156.835 66.551C156.949 66.4194 157.014 66.2409 157.014 66.0548V60.0453C157.013 59.8593 156.949 59.6811 156.834 59.5496C156.72 59.418 156.564 59.3439 156.402 59.3434Z" fill="white"/>
<path d="M156.402 69.5886H151.166C151.086 69.5887 151.006 69.607 150.932 69.6423C150.858 69.6777 150.791 69.7294 150.734 69.7946C150.678 69.8598 150.633 69.9372 150.602 70.0223C150.572 70.1074 150.556 70.1985 150.557 70.2906V76.3C150.556 76.3921 150.572 76.4832 150.602 76.5683C150.633 76.6534 150.678 76.7308 150.734 76.796C150.791 76.8612 150.858 76.9129 150.932 76.9483C151.006 76.9836 151.086 77.0019 151.166 77.002H156.402C156.564 77.0019 156.72 76.9279 156.835 76.7963C156.949 76.6647 157.014 76.4862 157.014 76.3V70.2906C157.014 70.1044 156.949 69.9259 156.835 69.7943C156.72 69.6627 156.564 69.5887 156.402 69.5886Z" fill="#6C63FF"/>
<path d="M167.398 28.6076H162.161C161.999 28.6082 161.844 28.6825 161.73 28.814C161.616 28.9456 161.552 29.1237 161.552 29.3095V35.3216C161.552 35.5071 161.616 35.6849 161.73 35.816C161.845 35.9471 162 36.0208 162.161 36.0209H167.398C167.559 36.0209 167.715 35.9474 167.829 35.8163C167.944 35.6852 168.009 35.5073 168.009 35.3216V29.3095C168.009 29.1235 167.944 28.9453 167.829 28.8137C167.715 28.6822 167.56 28.6081 167.398 28.6076Z" fill="#6C63FF"/>
<path d="M167.398 38.8528H162.161C161.999 38.8535 161.844 38.9277 161.73 39.0593C161.616 39.1909 161.552 39.369 161.552 39.5547V45.5669C161.552 45.7524 161.616 45.9302 161.73 46.0613C161.845 46.1924 162 46.2661 162.161 46.2661H167.398C167.559 46.2662 167.715 46.1927 167.829 46.0616C167.944 45.9305 168.009 45.7526 168.009 45.5669V39.5547C168.009 39.3688 167.944 39.1905 167.829 39.059C167.715 38.9275 167.56 38.8534 167.398 38.8528Z" fill="#6C63FF"/>
<path d="M167.398 49.0981H162.161C161.999 49.0987 161.844 49.173 161.73 49.3046C161.616 49.4361 161.552 49.6143 161.552 49.8V55.8095C161.552 55.9015 161.567 55.9927 161.598 56.0778C161.628 56.1629 161.673 56.2402 161.73 56.3054C161.786 56.3706 161.854 56.4224 161.928 56.4577C162.002 56.4931 162.081 56.5113 162.161 56.5114H167.398C167.56 56.5113 167.715 56.4373 167.83 56.3057C167.945 56.1741 168.009 55.9956 168.009 55.8095V49.8C168.009 49.614 167.944 49.4358 167.83 49.3043C167.715 49.1728 167.56 49.0986 167.398 49.0981Z" fill="#E6E6E6"/>
<path d="M167.398 59.3434H162.161C161.999 59.344 161.844 59.4183 161.73 59.5498C161.616 59.6814 161.552 59.8596 161.552 60.0453V66.0548C161.552 66.1468 161.567 66.238 161.598 66.3231C161.628 66.4082 161.673 66.4855 161.73 66.5507C161.786 66.6159 161.854 66.6677 161.928 66.703C162.002 66.7384 162.081 66.7566 162.161 66.7567H167.398C167.56 66.7566 167.715 66.6826 167.83 66.551C167.945 66.4194 168.009 66.2409 168.009 66.0548V60.0453C168.009 59.8593 167.944 59.6811 167.829 59.5496C167.715 59.418 167.56 59.3439 167.398 59.3434Z" fill="#6C63FF"/>
<path d="M167.398 69.5886H162.161C162.081 69.5887 162.002 69.607 161.928 69.6423C161.854 69.6777 161.786 69.7294 161.73 69.7946C161.673 69.8598 161.628 69.9372 161.598 70.0223C161.567 70.1074 161.552 70.1985 161.552 70.2906V76.3C161.552 76.3921 161.567 76.4832 161.598 76.5683C161.628 76.6534 161.673 76.7308 161.73 76.796C161.786 76.8612 161.854 76.9129 161.928 76.9483C162.002 76.9836 162.081 77.0019 162.161 77.002H167.398C167.56 77.0019 167.715 76.9279 167.83 76.7963C167.945 76.6647 168.009 76.4862 168.009 76.3V70.2906C168.009 70.1044 167.945 69.9259 167.83 69.7943C167.715 69.6627 167.56 69.5887 167.398 69.5886Z" fill="#6C63FF"/>
<path d="M178.393 28.6076H173.157C172.995 28.6082 172.84 28.6825 172.726 28.814C172.612 28.9456 172.548 29.1237 172.548 29.3095V35.3216C172.548 35.5071 172.612 35.6849 172.726 35.816C172.84 35.9471 172.995 36.0208 173.157 36.0209H178.393C178.555 36.0209 178.71 35.9474 178.825 35.8163C178.939 35.6852 179.004 35.5073 179.005 35.3216V29.3095C179.004 29.1235 178.94 28.9453 178.825 28.8137C178.711 28.6822 178.555 28.6081 178.393 28.6076Z" fill="#E6E6E6"/>
<path d="M178.393 38.8528H173.157C172.995 38.8535 172.84 38.9277 172.726 39.0593C172.612 39.1909 172.548 39.369 172.548 39.5547V45.5669C172.548 45.7524 172.612 45.9302 172.726 46.0613C172.84 46.1924 172.995 46.2661 173.157 46.2661H178.393C178.555 46.2662 178.71 46.1927 178.825 46.0616C178.939 45.9305 179.004 45.7526 179.005 45.5669V39.5547C179.004 39.3688 178.94 39.1905 178.825 39.059C178.711 38.9275 178.555 38.8534 178.393 38.8528Z" fill="#6C63FF"/>
<path d="M178.393 49.0981H173.157C172.995 49.0987 172.84 49.173 172.726 49.3046C172.612 49.4361 172.548 49.6143 172.548 49.8V55.8095C172.547 55.9015 172.563 55.9927 172.593 56.0778C172.624 56.1629 172.669 56.2402 172.725 56.3054C172.782 56.3706 172.849 56.4224 172.923 56.4577C172.997 56.4931 173.076 56.5113 173.157 56.5114H178.393C178.555 56.5113 178.711 56.4373 178.826 56.3057C178.94 56.1741 179.005 55.9956 179.005 55.8095V49.8C179.004 49.614 178.94 49.4358 178.825 49.3043C178.711 49.1728 178.555 49.0986 178.393 49.0981Z" fill="#6C63FF"/>
<path d="M178.393 59.3434H173.157C172.995 59.344 172.84 59.4183 172.726 59.5498C172.612 59.6814 172.548 59.8596 172.548 60.0453V66.0548C172.547 66.1468 172.563 66.238 172.593 66.3231C172.624 66.4082 172.669 66.4855 172.725 66.5507C172.782 66.6159 172.849 66.6677 172.923 66.703C172.997 66.7384 173.076 66.7566 173.157 66.7567H178.393C178.555 66.7566 178.711 66.6826 178.826 66.551C178.94 66.4194 179.005 66.2409 179.005 66.0548V60.0453C179.004 59.8593 178.94 59.6811 178.825 59.5496C178.711 59.418 178.555 59.3439 178.393 59.3434Z" fill="#6C63FF"/>
<path d="M178.393 69.5886H173.157C173.076 69.5887 172.997 69.607 172.923 69.6423C172.849 69.6777 172.782 69.7294 172.725 69.7946C172.669 69.8598 172.624 69.9372 172.593 70.0223C172.563 70.1074 172.547 70.1985 172.548 70.2906V76.3C172.547 76.3921 172.563 76.4832 172.593 76.5683C172.624 76.6534 172.669 76.7308 172.725 76.796C172.782 76.8612 172.849 76.9129 172.923 76.9483C172.997 76.9836 173.076 77.0019 173.157 77.002H178.393C178.555 77.0019 178.711 76.9279 178.826 76.7963C178.94 76.6647 179.005 76.4862 179.005 76.3V70.2906C179.005 70.1044 178.94 69.9259 178.826 69.7943C178.711 69.6627 178.555 69.5887 178.393 69.5886Z" fill="#E6E6E6"/>
<path d="M189.389 28.6076H184.152C183.99 28.6082 183.835 28.6825 183.721 28.814C183.607 28.9456 183.543 29.1237 183.543 29.3095V35.3216C183.543 35.5071 183.607 35.6849 183.721 35.816C183.836 35.9471 183.99 36.0208 184.152 36.0209H189.389C189.55 36.0209 189.706 35.9474 189.82 35.8163C189.935 35.6852 190 35.5073 190 35.3216V29.3095C190 29.1235 189.935 28.9453 189.82 28.8137C189.706 28.6822 189.551 28.6081 189.389 28.6076Z" fill="#E6E6E6"/>
<path d="M189.389 38.8528H184.152C183.99 38.8535 183.835 38.9277 183.721 39.0593C183.607 39.1909 183.543 39.369 183.543 39.5547V45.5669C183.543 45.7524 183.607 45.9302 183.721 46.0613C183.836 46.1924 183.99 46.2661 184.152 46.2661H189.389C189.55 46.2662 189.706 46.1927 189.82 46.0616C189.935 45.9305 190 45.7526 190 45.5669V39.5547C190 39.3688 189.935 39.1905 189.82 39.059C189.706 38.9275 189.551 38.8534 189.389 38.8528Z" fill="#E6E6E6"/>
<path d="M189.389 49.0981H184.152C183.99 49.0987 183.835 49.173 183.721 49.3046C183.607 49.4361 183.543 49.6143 183.543 49.8V55.8095C183.543 55.9015 183.558 55.9927 183.589 56.0778C183.619 56.1629 183.664 56.2402 183.721 56.3054C183.777 56.3706 183.845 56.4224 183.919 56.4577C183.993 56.4931 184.072 56.5113 184.152 56.5114H189.389C189.551 56.5113 189.706 56.4373 189.821 56.3057C189.936 56.1741 190 55.9956 190 55.8095V49.8C190 49.614 189.935 49.4358 189.82 49.3043C189.706 49.1728 189.551 49.0986 189.389 49.0981Z" fill="#6C63FF"/>
<path d="M189.389 59.3434H184.152C183.99 59.344 183.835 59.4183 183.721 59.5498C183.607 59.6814 183.543 59.8596 183.543 60.0453V66.0548C183.543 66.1468 183.558 66.238 183.589 66.3231C183.619 66.4082 183.664 66.4855 183.721 66.5507C183.777 66.6159 183.845 66.6677 183.919 66.703C183.993 66.7384 184.072 66.7566 184.152 66.7567H189.389C189.551 66.7566 189.706 66.6826 189.821 66.551C189.936 66.4194 190 66.2409 190 66.0548V60.0453C190 59.8593 189.935 59.6811 189.82 59.5496C189.706 59.418 189.551 59.3439 189.389 59.3434Z" fill="#E6E6E6"/>
<path d="M189.389 69.5886H184.152C184.072 69.5887 183.993 69.607 183.919 69.6423C183.845 69.6777 183.777 69.7294 183.721 69.7946C183.664 69.8598 183.619 69.9372 183.589 70.0223C183.558 70.1074 183.543 70.1985 183.543 70.2906V76.3C183.543 76.3921 183.558 76.4832 183.589 76.5683C183.619 76.6534 183.664 76.7308 183.721 76.796C183.777 76.8612 183.845 76.9129 183.919 76.9483C183.993 76.9836 184.072 77.0019 184.152 77.002H189.389C189.551 77.0019 189.706 76.9279 189.821 76.7963C189.936 76.6647 190 76.4862 190 76.3V70.2906C190 70.1044 189.936 69.9259 189.821 69.7943C189.706 69.6627 189.551 69.5887 189.389 69.5886Z" fill="#E6E6E6"/>
<path d="M69.031 158.192H68.8853L69.0099 158.174L69.031 158.192Z" fill="#2F2E41"/>
<path d="M56.5026 46.1568C65.3753 46.1568 72.5681 37.8988 72.5681 27.7121C72.5681 17.5254 65.3753 9.26744 56.5026 9.26744C47.6298 9.26744 40.437 17.5254 40.437 27.7121C40.437 37.8988 47.6298 46.1568 56.5026 46.1568Z" fill="#FFB6B6"/>
<path d="M70.5715 14.1888C70.5715 14.1888 74.7734 4.96645 65.5291 4.12804C65.5291 4.12804 57.6482 -4.07959 49.6154 2.62756C49.6154 2.62756 45.2339 2.62757 42.838 8.32001C42.838 8.32001 39.3919 6.81953 38.6346 10.8352C38.6346 10.8352 36.113 19.2192 38.6346 26.7647C41.1562 34.3103 41.9938 35.1487 41.9938 35.1487C41.9938 35.1487 37.8503 19.329 47.9359 18.4906C58.0214 17.6522 69.3074 10.416 70.1479 19.6383C70.9885 28.8607 72.2533 31.133 72.2533 31.133C72.2533 31.133 80.2364 17.9616 70.5715 14.1888Z" fill="#2F2E41"/>
<path d="M98.0604 73.1684L98.0087 73.4816L97.4279 77.0019L93.414 101.353L93.1765 102.787L92.678 105.818L91.9961 109.954L90.484 119.12L90.0514 121.746L89.8891 122.732L89.8327 123.077L89.3836 125.796L89.2472 126.617L88.1514 135.939L87.1944 144.062L90.3971 147.739L88.4877 149.931L87.2344 158.173L87.2367 158.192H36.0856C34.0163 156.653 31.9768 155.067 29.9671 153.432L30.388 149.815C30.388 149.815 31.8365 143.355 31.2274 142.582C30.6208 141.81 29.2898 140.431 29.2898 140.431L30.9664 135.939L31.1992 135.315L30.8089 126.02L30.7995 125.796L30.6702 122.732L30.6537 122.338L30.6278 121.746L30.1317 109.954L30.1223 109.76L29.9718 106.185L29.8307 102.787L29.7696 101.353L29.1653 87.0096L28.7561 77.2692L28.3987 68.7895L29.8354 68.2307L45.2022 62.2347L51.5675 52.7345L64.8156 52.8479L71.301 52.9046L82.1223 64.4268L84.5843 65.7767L84.6031 65.7875L86.369 66.7567L90.8462 69.2107L95.5797 71.8078L98.0087 73.1387L98.0604 73.1684Z" fill="#CACACA"/>
<path d="M53.2796 130.521C52.3088 130.952 51.2673 131.135 50.2285 131.054C49.1898 130.974 48.179 130.633 47.2673 130.056C46.3557 129.479 45.5654 128.679 44.9521 127.713C44.3388 126.747 43.9174 125.638 43.7177 124.465L18.6609 120.384L27.3713 109.072L49.8303 114.682C51.5691 114.427 53.3288 114.914 54.7761 116.049C56.2233 117.184 57.2575 118.89 57.6827 120.842C58.1079 122.795 57.8945 124.858 57.083 126.642C56.2715 128.426 54.9182 129.806 53.2796 130.521Z" fill="#FFB6B6"/>
<path d="M42.1076 109.954C41.6435 109.279 40.9864 108.813 40.2523 108.639L29.9718 106.185L28.916 105.934C28.3024 105.787 27.7228 105.493 27.215 105.071C26.7073 104.649 26.2829 104.109 25.9696 103.486C25.6446 102.831 25.448 102.104 25.3935 101.353C25.3445 100.671 25.4156 99.9839 25.6028 99.3337L29.1652 87.0097L31.4767 79.0132C31.7568 78.0488 31.9221 77.0453 31.9682 76.0301C32.0969 73.2205 31.3398 70.4517 29.8354 68.2307C28.5128 66.2786 26.6783 64.8667 24.603 64.2036C22.5278 63.5405 20.3217 63.6614 18.3109 64.5483C18.2521 64.5727 18.191 64.5997 18.1322 64.6266C16.6901 65.2877 15.4017 66.3248 14.3688 67.6559C13.3359 68.987 12.5868 70.5757 12.1807 72.2964L9.66931 82.7847L4.48906 104.406C3.97049 106.573 3.86573 108.842 4.18194 111.059C4.49815 113.276 5.22787 115.389 6.32115 117.252C7.41442 119.115 8.84545 120.685 10.5163 121.855C12.1871 123.024 14.0583 123.765 16.0018 124.028L30.8089 126.02L37.661 126.943C38.4533 127.053 39.2525 126.815 39.8992 126.278C40.5459 125.741 40.9927 124.945 41.1506 124.047C41.1616 123.998 41.1703 123.948 41.1764 123.898L41.341 122.732L42.7355 112.91L42.7495 112.81C42.8222 112.309 42.8026 111.796 42.692 111.304C42.5815 110.812 42.3824 110.352 42.1076 109.954Z" fill="#CACACA"/>
<path d="M69.2398 130.836C70.254 131.106 71.3074 131.118 72.326 130.87C73.3445 130.622 74.3033 130.121 75.135 129.402C75.9666 128.683 76.6508 127.763 77.1393 126.708C77.6278 125.652 77.9088 124.486 77.9624 123.293L102.268 115.195L92.2547 105.406L70.7092 114.596C68.9565 114.626 67.2741 115.392 65.9808 116.751C64.6874 118.109 63.873 119.965 63.6919 121.967C63.5108 123.968 63.9755 125.977 64.998 127.611C66.0206 129.246 67.5298 130.393 69.2398 130.836Z" fill="#FFB6B6"/>
<path d="M114.335 97.0821L102.775 66.538C101.83 64.0304 100.141 61.9883 98.0089 60.7742C97.3499 60.4017 96.6577 60.112 95.9444 59.9103C95.8338 59.8779 95.7233 59.8482 95.6128 59.8239C94.1003 59.445 92.5315 59.4782 91.0322 59.9211C89.6617 60.3253 88.3808 61.0567 87.2731 62.0675C86.1653 63.0783 85.2556 64.3459 84.6033 65.7875C84.5962 65.7995 84.5899 65.8121 84.5845 65.8253C83.8558 67.4436 83.4684 69.2358 83.4532 71.0575C83.4381 72.8792 83.7958 74.6795 84.4975 76.3135L84.6409 76.6429L92.8099 95.4785C93.0888 96.1226 93.246 96.8272 93.2711 97.5459C93.2962 98.2646 93.1886 98.9813 92.9555 99.649C92.7223 100.317 92.3688 100.92 91.9182 101.42C91.4676 101.92 90.9301 102.304 90.3409 102.549L89.7671 102.787L79.4489 107.066C78.6747 107.383 78.0378 108.032 77.6725 108.878C77.3071 109.723 77.2418 110.699 77.4901 111.598L77.516 111.693L80.4083 122.319C80.4224 122.367 80.4365 122.416 80.453 122.464C80.4784 122.556 80.5098 122.646 80.547 122.732C80.8544 123.523 81.3977 124.163 82.0792 124.535C82.7607 124.908 83.5356 124.989 84.2646 124.765L89.8329 123.077L90.9686 122.732L105.348 118.372C107.24 117.798 109.001 116.761 110.512 115.333C112.023 113.905 113.247 112.118 114.1 110.097C114.954 108.075 115.417 105.865 115.457 103.619C115.498 101.373 115.115 99.1428 114.335 97.0821Z" fill="#CACACA"/>
<path d="M0.557617 122.732C3.88973 127.398 7.48332 131.809 11.3155 135.939H117.594C118.618 135.94 119.6 136.408 120.323 137.24C121.047 138.071 121.454 139.199 121.455 140.374L121.608 171.294C128.146 167.845 134.269 163.441 139.825 158.192C141.367 156.737 142.862 155.219 144.309 153.638C145.257 152.606 146.182 151.55 147.084 150.468C153.847 142.379 159.324 132.991 163.266 122.732H0.557617Z" fill="#3F3D56"/>
<path d="M147.084 150.468C146.183 151.551 145.258 152.607 144.309 153.638H121.686V150.468H147.084Z" fill="white"/>
<path d="M97.8489 49.0981C97.7372 48.8613 97.5718 48.6635 97.3702 48.5257C97.1686 48.3879 96.9384 48.3152 96.7038 48.3152H19.6137C19.2681 48.3163 18.9369 48.4745 18.6928 48.7554C18.4486 49.0362 18.3113 49.4167 18.311 49.8135V102.787H98.0088V49.8135C98.01 49.5632 97.955 49.3168 97.8489 49.0981Z" fill="#3F3D56"/>
<path d="M18.2412 101.352V107.889C18.2412 108.16 18.2877 108.429 18.378 108.679C18.4684 108.929 18.6007 109.157 18.7677 109.349C18.9346 109.54 19.1327 109.692 19.3508 109.796C19.5689 109.9 19.8026 109.953 20.0386 109.953H49.4545V122.854H49.0637C49.0331 122.854 49.0027 122.861 48.9744 122.874C48.9461 122.888 48.9203 122.907 48.8986 122.932C48.877 122.957 48.8598 122.987 48.848 123.019C48.8363 123.052 48.8302 123.087 48.8302 123.122V124.019C48.8302 124.054 48.8363 124.089 48.848 124.122C48.8597 124.154 48.8769 124.184 48.8986 124.209C48.9203 124.234 48.9461 124.253 48.9744 124.267C49.0027 124.28 49.0331 124.287 49.0637 124.287H67.3248C67.3554 124.287 67.3858 124.28 67.4141 124.267C67.4424 124.253 67.4682 124.234 67.4899 124.209C67.5116 124.184 67.5287 124.154 67.5405 124.122C67.5522 124.089 67.5583 124.054 67.5583 124.019V123.122C67.5583 123.087 67.5522 123.052 67.5405 123.019C67.5287 122.987 67.5115 122.957 67.4899 122.932C67.4682 122.907 67.4424 122.888 67.4141 122.874C67.3858 122.861 67.3554 122.854 67.3248 122.854H66.934V109.953H96.3499C96.5859 109.953 96.8196 109.9 97.0377 109.796C97.2558 109.692 97.4539 109.54 97.6208 109.349C97.7878 109.157 97.9201 108.929 98.0105 108.679C98.1008 108.429 98.1473 108.16 98.1473 107.889V101.352H18.2412Z" fill="#3F3D56"/>
<path d="M57.2287 82.5904C61.2944 82.5904 64.5903 78.8065 64.5903 74.1387C64.5903 69.471 61.2944 65.687 57.2287 65.687C53.1631 65.687 49.8672 69.471 49.8672 74.1387C49.8672 78.8065 53.1631 82.5904 57.2287 82.5904Z" fill="#6C63FF"/>
<path d="M75.9851 26.7043H74.8094C74.8094 16.4995 66.0126 9.81241 57.1382 9.80701C55.8474 9.80268 54.5594 9.94648 53.2936 10.2363C51.8686 10.5629 50.3895 10.9544 48.9363 11.4646C43.2058 13.4813 37.8915 17.3796 37.8915 26.7043C37.8903 28.5152 38.091 30.3189 38.4888 32.0712L37.3507 32.4114C36.9286 30.5478 36.7152 28.6299 36.7158 26.7043C36.7158 18.5567 39.6293 12.9602 44.6614 9.62343C47.3068 7.86864 50.5353 6.73748 54.2341 6.18675C55.7734 5.95165 57.3295 5.89738 58.8783 6.02477C69.0836 6.86706 75.9851 15.8516 75.9851 26.7043Z" fill="#6C63FF"/>
<path d="M77.9439 27.4521L77.4806 23.5214C77.3664 22.5287 76.9499 21.6145 76.3049 20.9405C75.8908 20.5011 75.3952 20.1756 74.8554 19.9885C74.3156 19.8014 73.7459 19.7577 73.1892 19.8606L72.4532 19.9767C72.2518 20.0071 72.0577 20.0832 71.8821 20.2004C71.7065 20.3177 71.553 20.4738 71.4303 20.6597C71.3067 20.845 71.2162 21.0566 71.1641 21.2822C71.1121 21.5079 71.0994 21.7432 71.127 21.9745L72.1969 31.0292C72.241 31.3982 72.3851 31.742 72.6087 32.0119C72.8324 32.2817 73.1243 32.464 73.4432 32.5329C73.5376 32.5546 73.6337 32.5655 73.7301 32.5653C73.7993 32.5653 73.8684 32.5599 73.937 32.5491L74.76 32.4222C75.2618 32.3458 75.7446 32.1523 76.1789 31.8538C76.6132 31.5553 76.9898 31.158 77.2855 30.6863C77.3489 30.5837 77.4101 30.4784 77.4665 30.3704C77.9072 29.4871 78.0754 28.4588 77.9439 27.4521Z" fill="#6C63FF"/>
<path d="M71.9782 20.1414C71.7624 20.2618 71.5745 20.4395 71.4303 20.6597C71.3067 20.845 71.2162 21.0566 71.1641 21.2822C71.1121 21.5079 71.0994 21.7432 71.127 21.9745L72.1969 31.0292C72.241 31.3982 72.3851 31.742 72.6087 32.0119C72.8324 32.2817 73.1243 32.464 73.4432 32.5329L71.9782 20.1414Z" fill="white"/>
<path d="M77.9439 27.4521L77.4807 23.5214C77.3664 22.5287 76.9499 21.6144 76.3049 20.9405L77.3701 29.9493C77.3861 30.0939 77.4185 30.2355 77.4665 30.3704C77.9073 29.4871 78.0755 28.4588 77.9439 27.4521Z" fill="#3F3D56"/>
<path d="M74.2826 30.2842C74.6044 30.2341 74.7661 29.3551 74.6439 28.3209C74.5217 27.2867 74.1618 26.4889 73.8401 26.539C73.5184 26.5891 73.3566 27.4681 73.4788 28.5023C73.601 29.5366 73.9609 30.3343 74.2826 30.2842Z" fill="#3F3D56"/>
<path d="M73.5773 25.4248C73.899 25.3747 74.0608 24.4957 73.9386 23.4615C73.8164 22.4273 73.4565 21.6295 73.1348 21.6796C72.8131 21.7297 72.6513 22.6087 72.7735 23.6429C72.8957 24.6772 73.2556 25.4749 73.5773 25.4248Z" fill="#3F3D56"/>
<path d="M78.0451 27.3146C78.3668 27.2645 78.5285 26.3855 78.4063 25.3512C78.2841 24.317 77.9243 23.5192 77.6025 23.5694C77.2808 23.6195 77.1191 24.4985 77.2413 25.5327C77.3635 26.5669 77.7234 27.3647 78.0451 27.3146Z" fill="#3F3D56"/>
<path d="M57.1382 9.807C55.8474 9.80267 54.5594 9.94646 53.2936 10.2362C51.8686 10.5629 50.3895 10.9544 48.9363 11.4646C46.6672 11.3377 44.9976 10.6628 44.6614 9.62342C47.3068 7.86863 50.5353 6.73747 54.2341 6.18673C55.7734 5.95163 57.3294 5.89736 58.8783 6.02475C59.0422 6.1351 59.184 6.28404 59.2942 6.46179C59.4044 6.63953 59.4807 6.84205 59.5179 7.05603C59.6284 7.99553 58.6948 8.99439 57.1382 9.807Z" fill="#3F3D56"/>
<path d="M42.1266 36.0722L40.316 27.4305C40.2515 27.1187 40.1081 26.8358 39.9039 26.6173C39.6998 26.3987 39.4439 26.2543 39.1685 26.2022C39.0907 26.1883 39.0121 26.181 38.9334 26.1806C38.8224 26.181 38.7119 26.1964 38.6042 26.2265L37.9034 26.4208C37.0012 26.6713 36.2224 27.3226 35.7379 28.2316C35.2534 29.1406 35.1028 30.2331 35.3192 31.2694L36.1304 35.1462C36.3157 36.0589 36.7568 36.8765 37.3861 37.4733C37.4881 37.5678 37.5949 37.6553 37.7059 37.7352C38.1001 38.0188 38.5397 38.2089 38.9989 38.2942C39.4581 38.3795 39.9276 38.3583 40.3795 38.2319L41.0779 38.0376C41.2626 37.9881 41.4363 37.8952 41.5882 37.7649C41.814 37.5758 41.9858 37.314 42.0817 37.0126C42.1775 36.7112 42.1932 36.3838 42.1266 36.0722Z" fill="#6C63FF"/>
<path d="M38.3308 34.4643C38.6464 34.3771 38.7299 33.4838 38.5172 32.4691C38.3045 31.4543 37.8762 30.7024 37.5606 30.7896C37.2449 30.8768 37.1614 31.7701 37.3741 32.7849C37.5868 33.7996 38.0151 34.5515 38.3308 34.4643Z" fill="#3F3D56"/>
<path d="M35.9792 35.2742C36.2949 35.187 36.3783 34.2937 36.1657 33.279C35.953 32.2642 35.5247 31.5123 35.209 31.5995C34.8933 31.6867 34.8099 32.58 35.0226 33.5948C35.2352 34.6095 35.6636 35.3614 35.9792 35.2742Z" fill="#3F3D56"/>
<path d="M42.2418 36.0398L40.4312 27.3981C40.3606 27.0608 40.205 26.7548 39.9837 26.5186C39.7625 26.2823 39.4854 26.1262 39.1873 26.0699L41.6586 37.8728C41.9027 37.6676 42.0884 37.384 42.1921 37.0578C42.2959 36.7315 42.3132 36.3773 42.2418 36.0398Z" fill="white"/>
<path d="M35.7283 29.5578C35.6783 29.3175 35.5845 29.0921 35.4531 28.8964C35.1986 29.6532 35.1519 30.4813 35.3191 31.2694L36.1304 35.1462C36.3156 36.0589 36.7567 36.8765 37.386 37.4733L35.7283 29.5578Z" fill="#3F3D56"/>
</svg>
