<svg width="83" height="87" viewBox="0 0 83 87" fill="none" xmlns="http://www.w3.org/2000/svg">
<path d="M27.6699 2.54982H52.2303L26.7342 81.7328C26.1969 83.4011 24.7043 84.5249 23.0244 84.5249H3.91027C2.65092 84.5249 1.46859 83.8893 0.734028 82.8171C-0.00053677 81.7449 -0.197399 80.3674 0.205169 79.1166L23.9591 5.34194C24.4962 3.67282 25.9894 2.54883 27.6699 2.54883V2.54982Z" fill="url(#paint0_linear_135_230)"/>
<path d="M63.3597 55.6604H24.4128C23.6718 55.6595 23.0058 56.1341 22.7339 56.8566C22.4621 57.5792 22.6397 58.4025 23.1818 58.9321L48.2082 83.4165C48.9369 84.129 49.8963 84.5249 50.8927 84.5249H72.946L63.3597 55.6604Z" fill="#0078D4"/>
<path d="M27.6698 2.54983C25.9692 2.54302 24.4622 3.69645 23.9505 5.39637L0.234295 79.0494C-0.1955 80.3052 -0.0144957 81.7017 0.719342 82.7917C1.45318 83.8817 2.64776 84.5285 3.92053 84.5249H23.5279C25.0147 84.2465 26.2435 83.1511 26.7444 81.6577L31.4739 67.0475L48.3676 83.5639C49.0755 84.1777 49.9636 84.5171 50.8823 84.5249H72.8535L63.2172 55.6605L35.1262 55.6674L52.3189 2.54983H27.6698Z" fill="url(#paint1_linear_135_230)"/>
<path d="M59.0398 5.33797C58.5034 3.67154 57.0125 2.5498 55.3347 2.5498H27.9624C29.6402 2.5498 31.1309 3.67173 31.6675 5.33797L55.4224 79.1156C55.8253 80.3666 55.6286 81.7445 54.894 82.8171C54.1595 83.8897 52.977 84.5259 51.7173 84.5259H79.0905C80.35 84.5259 81.5322 83.8893 82.2666 82.8167C83.0009 81.7441 83.1975 80.3665 82.7947 79.1156L59.0398 5.33797Z" fill="url(#paint2_linear_135_230)"/>
<defs>
<linearGradient id="paint0_linear_135_230" x1="30.8011" y1="8.62446" x2="4.63834" y2="82.3624" gradientUnits="userSpaceOnUse">
<stop stop-color="#114A8B"/>
<stop offset="1" stop-color="#0669BC"/>
</linearGradient>
<linearGradient id="paint1_linear_135_230" x1="43.5092" y1="45.4332" x2="38.2614" y2="47.1261" gradientUnits="userSpaceOnUse">
<stop stop-opacity="0.3"/>
<stop offset="0.071" stop-opacity="0.2"/>
<stop offset="0.321" stop-opacity="0.1"/>
<stop offset="0.623" stop-opacity="0.05"/>
<stop offset="1" stop-opacity="0"/>
</linearGradient>
<linearGradient id="paint2_linear_135_230" x1="48.4799" y1="6.32075" x2="76.9774" y2="78.7526" gradientUnits="userSpaceOnUse">
<stop stop-color="#3CCBF4"/>
<stop offset="1" stop-color="#2892DF"/>
</linearGradient>
</defs>
</svg>
