<svg width="84" height="102" viewBox="0 0 84 102" fill="none" xmlns="http://www.w3.org/2000/svg">
<path d="M83.9999 29.9487C83.9992 28.2486 83.6625 26.7463 82.9817 25.4573C82.3129 24.189 81.3114 23.1264 79.9679 22.2862C68.8786 15.3804 57.7785 8.49575 46.6928 1.58294C43.7041 -0.280517 40.8064 -0.21223 37.8399 1.67798C33.426 4.489 11.3272 18.1629 4.74205 22.2823C2.03009 23.9782 0.710455 26.5731 0.709803 29.9456C0.705566 43.8335 0.709803 57.7214 0.705566 71.6093C0.705566 73.2721 1.02855 74.7456 1.67941 76.0152C2.34851 77.3215 3.36407 78.4134 4.73846 79.2726C11.3239 83.392 33.4257 97.0648 37.8386 99.8769C40.8064 101.768 43.7041 101.836 46.6938 99.9719C57.7798 93.0588 68.8806 86.1741 79.9715 79.2684C81.3459 78.4095 82.3615 77.3169 83.0306 76.0117C83.6805 74.7417 84.0041 73.2686 84.0041 71.6054C84.0041 71.6054 84.0041 43.837 83.9999 29.9487Z" fill="#A179DC"/>
<path d="M42.4823 50.6422L1.67944 76.0153C2.34855 77.3216 3.36411 78.4135 4.7385 79.2727C11.324 83.3921 33.4257 97.0649 37.8386 99.877C40.8064 101.768 43.7042 101.836 46.6938 99.9721C57.7799 93.0589 68.8806 86.1742 79.9716 79.2685C81.346 78.4096 82.3615 77.317 83.0306 76.0118L42.4823 50.6422Z" fill="#A179DC"/>
<path d="M84 29.9487C83.9994 28.2486 83.6627 26.7463 82.9819 25.4573L42.4824 50.6424L83.0307 76.0117C83.6806 74.7417 84.0036 73.2686 84.0043 71.6054C84.0043 71.6054 84.0043 43.837 84 29.9487Z" fill="#A179DC"/>
<path d="M66.5057 41.157V45.8998H70.8971V41.157H73.0928V45.8998H77.4842V48.2711H73.0928V53.0135H77.4842V55.3849H73.0928V60.1277H70.8971V55.3849H66.5057V60.1277H64.31V55.3849H59.9189V53.0135H64.31V48.2711H59.9189V45.8998H64.31V41.157H66.5057ZM70.8971 48.2708H66.5057V53.0135H70.8971V48.2708Z" fill="white"/>
<path d="M42.5718 17.3384C54.0259 17.3384 64.026 24.0565 69.3824 34.0426L69.3303 33.9465L55.8536 42.3268C53.1987 37.4717 48.3314 34.195 42.7475 34.1274L42.5715 34.1264C34.0569 34.1264 27.154 41.5816 27.154 50.7774C27.1512 53.6759 27.8523 56.5244 29.1874 59.0387C31.8449 64.0494 36.8409 67.4289 42.5718 67.4289C48.3383 67.4289 53.3626 64.0064 56.0064 58.9423L55.9422 59.0637L69.3984 67.4827C64.1006 77.3843 54.2374 84.0817 42.9166 84.2151L42.5718 84.2172C31.0816 84.2172 21.0531 77.4575 15.7101 67.4187C13.1017 62.5178 11.6094 56.8363 11.6094 50.7774C11.6094 32.3097 25.4713 17.338 42.5715 17.338L42.5718 17.3384Z" fill="white"/>
</svg>
