<svg width="83" height="87" viewBox="0 0 83 87" fill="none" xmlns="http://www.w3.org/2000/svg">
<path fill-rule="evenodd" clip-rule="evenodd" d="M11.5238 78.3028L4.86328 0H78.0515L71.3839 78.2899L41.4131 87L11.5238 78.3028Z" fill="#0071BC"/>
<path fill-rule="evenodd" clip-rule="evenodd" d="M41.5188 80.3382L65.7066 73.3635L71.3737 6.521H41.5188V80.3382Z" fill="#29ABE2"/>
<path fill-rule="evenodd" clip-rule="evenodd" d="M20.1091 35.289L20.9115 44.8785L41.5189 35.289V25.6841L20.1091 35.289Z" fill="#B3B3B3"/>
<path fill-rule="evenodd" clip-rule="evenodd" d="M64.3422 15.4313L41.5188 25.6841V35.289L63.5552 25.0207L64.3422 15.4313Z" fill="#E6E6E6"/>
<path fill-rule="evenodd" clip-rule="evenodd" d="M41.5188 60.3796L41.448 60.3907L31.2282 57.5139L30.5605 49.865H21.3628L22.6463 64.9338L41.446 70.39L41.5188 70.372V60.3796Z" fill="#E6E6E6"/>
<path fill-rule="evenodd" clip-rule="evenodd" d="M41.5188 35.2891V44.8785H52.7078L51.6909 57.4159L41.5188 60.3878V70.3794L60.2561 64.9232L62.7234 35.2891H41.5188Z" fill="white"/>
<path fill-rule="evenodd" clip-rule="evenodd" d="M41.5189 35.2891H20.1091L20.9115 44.8785H41.5189V35.2891Z" fill="#E6E6E6"/>
<path fill-rule="evenodd" clip-rule="evenodd" d="M41.5188 25.0207V15.4313H41.4258H18.4824L19.2943 25.0207H41.5188Z" fill="#E6E6E6"/>
<path fill-rule="evenodd" clip-rule="evenodd" d="M41.5188 15.4313V24.9004V25.0207H63.5552L64.3422 15.4313H41.5188Z" fill="white"/>
</svg>
