<svg width="200" height="200" viewBox="0 0 200 200" fill="none" xmlns="http://www.w3.org/2000/svg">
<g clip-path="url(#clip0_135_97)">
<path d="M98.6618 199.976C98.0387 199.992 97.4132 200 96.7853 200C81.87 200 63.1102 190.854 46.0856 178.192C44.6771 177.145 43.2811 176.073 41.8977 174.977L43.1111 166.5L79.8431 160.901L98.2785 177.085L98.6618 199.976Z" fill="#2F2E41"/>
<path d="M100.43 48.6076H95.1958C95.0337 48.6077 94.8782 48.6816 94.7636 48.8132C94.649 48.9448 94.5845 49.1233 94.5845 49.3095V55.3216C94.5846 55.4136 94.6004 55.5047 94.6312 55.5897C94.662 55.6747 94.7071 55.7519 94.7638 55.8168C94.8206 55.8817 94.888 55.9332 94.9621 55.9682C95.0362 56.0032 95.1157 56.0211 95.1958 56.0209H100.43C100.592 56.0209 100.747 55.9474 100.862 55.8163C100.976 55.6852 101.041 55.5073 101.042 55.3216V49.3095C101.041 49.1235 100.976 48.9452 100.862 48.8137C100.747 48.6822 100.592 48.6081 100.43 48.6076Z" fill="white"/>
<path d="M100.43 58.8528H95.1958C95.0337 58.8529 94.8782 58.9269 94.7636 59.0585C94.649 59.1901 94.5845 59.3686 94.5845 59.5547V65.5669C94.5846 65.6589 94.6004 65.75 94.6312 65.835C94.662 65.92 94.7071 65.9971 94.7638 66.0621C94.8206 66.127 94.888 66.1785 94.9621 66.2135C95.0362 66.2485 95.1157 66.2664 95.1958 66.2661H100.43C100.592 66.2662 100.747 66.1927 100.862 66.0616C100.976 65.9305 101.041 65.7526 101.042 65.5669V59.5547C101.041 59.3687 100.977 59.1905 100.862 59.059C100.747 58.9275 100.592 58.8534 100.43 58.8528Z" fill="#E6E6E6"/>
<path d="M100.43 69.0981H95.1958C95.0337 69.0982 94.8782 69.1722 94.7636 69.3038C94.649 69.4354 94.5845 69.6139 94.5845 69.8V75.8095C94.5843 75.9017 94.6 75.9931 94.6307 76.0783C94.6613 76.1636 94.7064 76.241 94.7632 76.3062C94.82 76.3714 94.8874 76.4231 94.9617 76.4583C95.0359 76.4935 95.1155 76.5116 95.1958 76.5114H100.43C100.592 76.5113 100.748 76.4373 100.862 76.3057C100.977 76.1741 101.041 75.9956 101.042 75.8095V69.8C101.041 69.614 100.977 69.4358 100.862 69.3043C100.747 69.1728 100.592 69.0986 100.43 69.0981Z" fill="#E6E6E6"/>
<path d="M101.032 79.9211C101.006 79.7594 100.932 79.6133 100.822 79.5078C100.712 79.4023 100.573 79.3442 100.43 79.3434H95.1958C95.0337 79.3435 94.8782 79.4174 94.7636 79.5491C94.649 79.6807 94.5845 79.8592 94.5845 80.0453V86.0548C94.5843 86.147 94.6 86.2384 94.6307 86.3236C94.6613 86.4088 94.7064 86.4863 94.7632 86.5515C94.82 86.6167 94.8874 86.6684 94.9617 86.7036C95.0359 86.7388 95.1155 86.7569 95.1958 86.7567H100.43C100.592 86.7566 100.748 86.6826 100.862 86.551C100.977 86.4194 101.041 86.2409 101.042 86.0548V80.0453C101.042 80.0036 101.039 79.962 101.032 79.9211Z" fill="#E6E6E6"/>
<path d="M100.668 89.6427C100.592 89.6069 100.512 89.5885 100.43 89.5886H95.1958C95.1155 89.5885 95.0359 89.6065 94.9617 89.6417C94.8874 89.6769 94.82 89.7286 94.7632 89.7938C94.7064 89.859 94.6613 89.9365 94.6307 90.0217C94.6 90.107 94.5843 90.1983 94.5845 90.2906V96.3C94.5841 96.3923 94.5997 96.4838 94.6303 96.5691C94.6609 96.6545 94.7059 96.732 94.7627 96.7973C94.8196 96.8626 94.8871 96.9142 94.9614 96.9494C95.0358 96.9845 95.1154 97.0024 95.1958 97.002H100.43C100.592 97.0019 100.748 96.9279 100.862 96.7963C100.977 96.6647 101.041 96.4862 101.042 96.3V90.2906C101.041 90.1524 101.006 90.0174 100.939 89.9022C100.873 89.7871 100.778 89.6968 100.668 89.6427Z" fill="#E6E6E6"/>
<path d="M111.426 48.6076H106.191C106.029 48.6077 105.874 48.6816 105.759 48.8132C105.644 48.9448 105.58 49.1233 105.58 49.3095V55.3216C105.58 55.4136 105.596 55.5047 105.627 55.5897C105.657 55.6747 105.702 55.7519 105.759 55.8168C105.816 55.8817 105.883 55.9332 105.957 55.9682C106.032 56.0032 106.111 56.0211 106.191 56.0209H111.426C111.587 56.0209 111.742 55.9474 111.857 55.8163C111.972 55.6852 112.036 55.5073 112.037 55.3216V49.3095C112.036 49.1235 111.972 48.9452 111.857 48.8137C111.743 48.6822 111.588 48.6081 111.426 48.6076Z" fill="#E6E6E6"/>
<path d="M111.426 58.8528H106.191C106.029 58.8529 105.874 58.9269 105.759 59.0585C105.644 59.1901 105.58 59.3686 105.58 59.5547V65.5669C105.58 65.6589 105.596 65.75 105.627 65.835C105.657 65.92 105.702 65.9971 105.759 66.0621C105.816 66.127 105.883 66.1785 105.957 66.2135C106.032 66.2485 106.111 66.2664 106.191 66.2661H111.426C111.587 66.2662 111.742 66.1927 111.857 66.0616C111.972 65.9305 112.036 65.7526 112.037 65.5669V59.5547C112.036 59.3687 111.972 59.1905 111.857 59.059C111.743 58.9275 111.588 58.8534 111.426 58.8528Z" fill="#6C63FF"/>
<path d="M111.426 69.0981H106.191C106.029 69.0982 105.874 69.1722 105.759 69.3038C105.644 69.4354 105.58 69.6139 105.58 69.8V75.8095C105.58 75.9017 105.595 75.9931 105.626 76.0783C105.657 76.1636 105.702 76.241 105.759 76.3062C105.815 76.3714 105.883 76.4231 105.957 76.4583C106.031 76.4935 106.111 76.5116 106.191 76.5114H111.426C111.588 76.5113 111.743 76.4373 111.858 76.3057C111.972 76.1741 112.037 75.9956 112.037 75.8095V69.8C112.036 69.614 111.972 69.4358 111.857 69.3043C111.743 69.1728 111.588 69.0986 111.426 69.0981Z" fill="#6C63FF"/>
<path d="M111.426 79.3434H106.191C106.063 79.3435 105.938 79.39 105.834 79.4762C105.73 79.5625 105.653 79.6841 105.613 79.8239C105.591 79.895 105.58 79.9699 105.58 80.0453V86.0548C105.58 86.147 105.595 86.2383 105.626 86.3236C105.657 86.4088 105.702 86.4863 105.759 86.5515C105.815 86.6167 105.883 86.6684 105.957 86.7036C106.031 86.7388 106.111 86.7569 106.191 86.7567H111.426C111.588 86.7566 111.743 86.6826 111.858 86.551C111.972 86.4194 112.037 86.2409 112.037 86.0548V80.0453C112.036 79.8593 111.972 79.6811 111.857 79.5496C111.743 79.418 111.588 79.3439 111.426 79.3434Z" fill="#6C63FF"/>
<path d="M111.426 89.5886H106.191C106.111 89.5885 106.031 89.6065 105.957 89.6417C105.883 89.6769 105.815 89.7286 105.759 89.7938C105.702 89.859 105.657 89.9365 105.626 90.0217C105.595 90.107 105.58 90.1983 105.58 90.2906V96.3C105.58 96.3923 105.595 96.4836 105.626 96.5689C105.657 96.6541 105.702 96.7316 105.759 96.7968C105.815 96.862 105.883 96.9137 105.957 96.9489C106.031 96.9841 106.111 97.0022 106.191 97.002H111.426C111.588 97.0019 111.743 96.9279 111.858 96.7963C111.972 96.6647 112.037 96.4862 112.037 96.3V90.2906C112.037 90.1044 111.972 89.9259 111.858 89.7943C111.743 89.6627 111.588 89.5887 111.426 89.5886Z" fill="#E6E6E6"/>
<path d="M122.421 48.6076H117.187C117.024 48.6077 116.869 48.6816 116.754 48.8132C116.64 48.9448 116.575 49.1233 116.575 49.3095V55.3216C116.575 55.4136 116.591 55.5047 116.622 55.5897C116.653 55.6747 116.698 55.7519 116.755 55.8168C116.811 55.8817 116.879 55.9332 116.953 55.9682C117.027 56.0032 117.106 56.0211 117.187 56.0209H122.421C122.583 56.0209 122.738 55.9474 122.852 55.8163C122.967 55.6852 123.032 55.5073 123.032 55.3216V49.3095C123.032 49.1235 122.967 48.9452 122.853 48.8137C122.738 48.6822 122.583 48.6081 122.421 48.6076Z" fill="#6C63FF"/>
<path d="M122.421 58.8528H117.187C117.024 58.8529 116.869 58.9269 116.754 59.0585C116.64 59.1901 116.575 59.3686 116.575 59.5547V65.5669C116.575 65.6589 116.591 65.75 116.622 65.835C116.653 65.92 116.698 65.9971 116.755 66.0621C116.811 66.127 116.879 66.1785 116.953 66.2135C117.027 66.2485 117.106 66.2664 117.187 66.2661H122.421C122.583 66.2662 122.738 66.1927 122.852 66.0616C122.967 65.9305 123.032 65.7526 123.032 65.5669V59.5547C123.032 59.3687 122.967 59.1905 122.853 59.059C122.738 58.9275 122.583 58.8534 122.421 58.8528Z" fill="#6C63FF"/>
<path d="M122.421 69.0981H117.187C117.024 69.0982 116.869 69.1722 116.754 69.3038C116.64 69.4354 116.575 69.6139 116.575 69.8V75.8095C116.575 75.9017 116.591 75.9931 116.621 76.0783C116.652 76.1636 116.697 76.241 116.754 76.3062C116.811 76.3714 116.878 76.4231 116.952 76.4583C117.027 76.4935 117.106 76.5116 117.187 76.5114H122.421C122.583 76.5113 122.738 76.4373 122.853 76.3057C122.968 76.1741 123.032 75.9956 123.032 75.8095V69.8C123.032 69.614 122.967 69.4358 122.853 69.3043C122.738 69.1728 122.583 69.0986 122.421 69.0981Z" fill="#E6E6E6"/>
<path d="M122.421 79.3434H117.187C117.024 79.3435 116.869 79.4174 116.754 79.5491C116.64 79.6807 116.575 79.8592 116.575 80.0453V86.0548C116.575 86.147 116.591 86.2384 116.621 86.3236C116.652 86.4088 116.697 86.4863 116.754 86.5515C116.811 86.6167 116.878 86.6684 116.952 86.7036C117.027 86.7388 117.106 86.7569 117.187 86.7567H122.421C122.583 86.7566 122.738 86.6826 122.853 86.551C122.968 86.4194 123.032 86.2409 123.032 86.0548V80.0453C123.032 79.8593 122.967 79.6811 122.853 79.5496C122.738 79.418 122.583 79.3439 122.421 79.3434Z" fill="#6C63FF"/>
<path d="M122.421 89.5886H117.187C117.106 89.5885 117.027 89.6065 116.952 89.6417C116.878 89.6769 116.811 89.7286 116.754 89.7938C116.697 89.859 116.652 89.9365 116.621 90.0217C116.591 90.107 116.575 90.1983 116.575 90.2906V96.3C116.575 96.3923 116.591 96.4836 116.621 96.5689C116.652 96.6541 116.697 96.7316 116.754 96.7968C116.811 96.862 116.878 96.9137 116.952 96.9489C117.027 96.9841 117.106 97.0022 117.187 97.002H122.421C122.583 97.0019 122.738 96.9279 122.853 96.7963C122.968 96.6647 123.032 96.4862 123.032 96.3V90.2906C123.032 90.1044 122.968 89.9259 122.853 89.7943C122.738 89.6627 122.583 89.5887 122.421 89.5886Z" fill="#6C63FF"/>
<path d="M133.416 48.6076H128.182C128.02 48.6077 127.864 48.6816 127.75 48.8132C127.635 48.9448 127.571 49.1233 127.571 49.3095V55.3216C127.571 55.4137 127.587 55.5048 127.617 55.5897C127.648 55.6747 127.693 55.7519 127.75 55.8168C127.807 55.8817 127.874 55.9332 127.948 55.9682C128.022 56.0032 128.102 56.0211 128.182 56.0209H133.416C133.578 56.0209 133.733 55.9474 133.848 55.8163C133.962 55.6852 134.027 55.5073 134.028 55.3216V49.3095C134.027 49.1235 133.963 48.9452 133.848 48.8137C133.733 48.6822 133.578 48.6081 133.416 48.6076Z" fill="#6C63FF"/>
<path d="M133.416 58.8528H128.182C128.02 58.8529 127.864 58.9269 127.75 59.0585C127.635 59.1901 127.571 59.3686 127.571 59.5547V65.5669C127.571 65.6589 127.587 65.7501 127.617 65.835C127.648 65.92 127.693 65.9971 127.75 66.0621C127.807 66.127 127.874 66.1785 127.948 66.2135C128.022 66.2485 128.102 66.2664 128.182 66.2661H133.416C133.578 66.2662 133.733 66.1927 133.848 66.0616C133.962 65.9305 134.027 65.7526 134.028 65.5669V59.5547C134.027 59.3687 133.963 59.1905 133.848 59.059C133.734 58.9275 133.578 58.8534 133.416 58.8528Z" fill="white"/>
<path d="M133.416 69.0981H128.182C128.02 69.0982 127.864 69.1722 127.75 69.3038C127.635 69.4354 127.571 69.6139 127.571 69.8V75.8095C127.57 75.9017 127.586 75.9931 127.617 76.0783C127.647 76.1636 127.692 76.241 127.749 76.3062C127.806 76.3714 127.874 76.4231 127.948 76.4583C128.022 76.4935 128.102 76.5116 128.182 76.5114H133.416C133.578 76.5113 133.734 76.4373 133.848 76.3057C133.963 76.1741 134.028 75.9956 134.028 75.8095V69.8C134.027 69.614 133.963 69.4358 133.848 69.3043C133.734 69.1728 133.578 69.0986 133.416 69.0981Z" fill="white"/>
<path d="M133.416 79.3434H128.182C128.02 79.3434 127.864 79.4174 127.75 79.5491C127.635 79.6807 127.571 79.8592 127.571 80.0453V86.0548C127.57 86.147 127.586 86.2384 127.617 86.3236C127.647 86.4088 127.692 86.4863 127.749 86.5515C127.806 86.6167 127.874 86.6684 127.948 86.7036C128.022 86.7388 128.102 86.7569 128.182 86.7567H133.416C133.578 86.7566 133.734 86.6826 133.848 86.551C133.963 86.4194 134.028 86.2409 134.028 86.0548V80.0453C134.027 79.8593 133.963 79.6811 133.848 79.5496C133.734 79.418 133.578 79.3439 133.416 79.3434Z" fill="#E6E6E6"/>
<path d="M133.416 89.5886H128.182C128.102 89.5885 128.022 89.6065 127.948 89.6417C127.874 89.6769 127.806 89.7286 127.749 89.7938C127.692 89.859 127.647 89.9365 127.617 90.0217C127.586 90.107 127.57 90.1983 127.571 90.2906V96.3C127.57 96.3923 127.586 96.4836 127.617 96.5689C127.647 96.6541 127.692 96.7316 127.749 96.7968C127.806 96.862 127.874 96.9137 127.948 96.9489C128.022 96.9841 128.102 97.0022 128.182 97.002H133.416C133.578 97.0019 133.734 96.9279 133.849 96.7963C133.963 96.6647 134.028 96.4862 134.028 96.3V90.2906C134.028 90.1044 133.963 89.9259 133.848 89.7943C133.734 89.6627 133.578 89.5887 133.416 89.5886Z" fill="#6C63FF"/>
<path d="M144.412 48.6076H139.175C139.013 48.6082 138.858 48.6825 138.744 48.814C138.63 48.9456 138.566 49.1237 138.566 49.3095V55.3216C138.566 55.5071 138.63 55.6849 138.744 55.816C138.859 55.9471 139.013 56.0208 139.175 56.0209H144.412C144.573 56.0209 144.729 55.9474 144.843 55.8163C144.958 55.6852 145.022 55.5073 145.023 55.3216V49.3095C145.023 49.1235 144.958 48.9452 144.843 48.8137C144.729 48.6822 144.574 48.6081 144.412 48.6076Z" fill="white"/>
<path d="M144.412 58.8528H139.175C139.013 58.8535 138.858 58.9277 138.744 59.0593C138.63 59.1909 138.566 59.369 138.566 59.5547V65.5669C138.566 65.7524 138.63 65.9302 138.744 66.0613C138.859 66.1924 139.013 66.2661 139.175 66.2661H144.412C144.573 66.2662 144.729 66.1927 144.843 66.0616C144.958 65.9305 145.022 65.7526 145.023 65.5669V59.5547C145.023 59.3687 144.958 59.1905 144.843 59.059C144.729 58.9275 144.574 58.8534 144.412 58.8528Z" fill="white"/>
<path d="M144.412 69.0981H139.175C139.013 69.0987 138.858 69.173 138.744 69.3046C138.63 69.4361 138.566 69.6143 138.566 69.8V75.8095C138.566 75.9015 138.581 75.9927 138.612 76.0778C138.642 76.1629 138.687 76.2402 138.744 76.3054C138.8 76.3706 138.867 76.4224 138.941 76.4577C139.015 76.4931 139.095 76.5113 139.175 76.5114H144.412C144.574 76.5113 144.729 76.4373 144.844 76.3057C144.959 76.1741 145.023 75.9956 145.023 75.8095V69.8C145.023 69.614 144.958 69.4358 144.843 69.3043C144.729 69.1728 144.574 69.0986 144.412 69.0981Z" fill="white"/>
<path d="M144.412 79.3434H139.175C139.013 79.344 138.858 79.4183 138.744 79.5498C138.63 79.6814 138.566 79.8596 138.566 80.0453V86.0548C138.566 86.1468 138.581 86.238 138.612 86.3231C138.642 86.4082 138.687 86.4855 138.744 86.5507C138.8 86.6159 138.867 86.6677 138.941 86.703C139.015 86.7384 139.095 86.7566 139.175 86.7567H144.412C144.574 86.7566 144.729 86.6826 144.844 86.551C144.959 86.4194 145.023 86.2409 145.023 86.0548V80.0453C145.023 79.8593 144.958 79.6811 144.843 79.5496C144.729 79.418 144.574 79.3439 144.412 79.3434Z" fill="#6C63FF"/>
<path d="M144.412 89.5886H139.175C139.095 89.5887 139.015 89.607 138.941 89.6423C138.867 89.6777 138.8 89.7294 138.744 89.7946C138.687 89.8598 138.642 89.9372 138.612 90.0223C138.581 90.1074 138.566 90.1985 138.566 90.2906V96.3C138.566 96.3921 138.581 96.4832 138.612 96.5683C138.642 96.6534 138.687 96.7308 138.744 96.796C138.8 96.8612 138.867 96.9129 138.941 96.9483C139.015 96.9836 139.095 97.0019 139.175 97.002H144.412C144.574 97.0019 144.729 96.9279 144.844 96.7963C144.959 96.6647 145.023 96.4862 145.023 96.3V90.2906C145.023 90.1044 144.959 89.9259 144.844 89.7943C144.729 89.6627 144.574 89.5887 144.412 89.5886Z" fill="#E6E6E6"/>
<path d="M155.407 48.6076H150.17C150.009 48.6082 149.854 48.6825 149.739 48.814C149.625 48.9456 149.561 49.1237 149.561 49.3095V55.3216C149.561 55.5071 149.625 55.6849 149.74 55.816C149.854 55.9471 150.009 56.0208 150.17 56.0209H155.407C155.569 56.0209 155.724 55.9474 155.839 55.8163C155.953 55.6852 156.018 55.5073 156.018 55.3216V49.3095C156.018 49.1235 155.953 48.9452 155.839 48.8137C155.724 48.6822 155.569 48.6081 155.407 48.6076Z" fill="white"/>
<path d="M155.407 58.8528H150.17C150.009 58.8535 149.854 58.9277 149.739 59.0593C149.625 59.1909 149.561 59.369 149.561 59.5547V65.5669C149.561 65.7524 149.625 65.9302 149.74 66.0613C149.854 66.1924 150.009 66.2661 150.17 66.2661H155.407C155.569 66.2662 155.724 66.1927 155.839 66.0616C155.953 65.9305 156.018 65.7526 156.018 65.5669V59.5547C156.018 59.3688 155.953 59.1905 155.839 59.059C155.724 58.9275 155.569 58.8534 155.407 58.8528Z" fill="white"/>
<path d="M155.407 69.0981H150.17C150.009 69.0987 149.854 69.173 149.739 69.3046C149.625 69.4361 149.561 69.6143 149.561 69.8V75.8095C149.561 75.9015 149.577 75.9927 149.607 76.0778C149.638 76.1629 149.682 76.2402 149.739 76.3054C149.796 76.3706 149.863 76.4224 149.937 76.4577C150.011 76.4931 150.09 76.5113 150.17 76.5114H155.407C155.569 76.5113 155.725 76.4373 155.839 76.3057C155.954 76.1741 156.018 75.9956 156.018 75.8095V69.8C156.018 69.614 155.953 69.4358 155.839 69.3043C155.724 69.1728 155.569 69.0986 155.407 69.0981Z" fill="#6C63FF"/>
<path d="M155.407 79.3434H150.17C150.009 79.344 149.854 79.4183 149.739 79.5498C149.625 79.6814 149.561 79.8596 149.561 80.0453V86.0548C149.561 86.1468 149.577 86.238 149.607 86.3231C149.638 86.4082 149.682 86.4855 149.739 86.5507C149.796 86.6159 149.863 86.6677 149.937 86.703C150.011 86.7384 150.09 86.7566 150.17 86.7567H155.407C155.569 86.7566 155.725 86.6826 155.839 86.551C155.954 86.4194 156.018 86.2409 156.018 86.0548V80.0453C156.018 79.8593 155.953 79.6811 155.839 79.5496C155.724 79.418 155.569 79.3439 155.407 79.3434Z" fill="#E6E6E6"/>
<path d="M155.407 89.5886H150.17C150.09 89.5887 150.011 89.607 149.937 89.6423C149.863 89.6777 149.796 89.7294 149.739 89.7946C149.682 89.8598 149.638 89.9372 149.607 90.0223C149.577 90.1074 149.561 90.1985 149.561 90.2906V96.3C149.561 96.3921 149.577 96.4832 149.607 96.5683C149.638 96.6534 149.682 96.7308 149.739 96.796C149.796 96.8612 149.863 96.9129 149.937 96.9483C150.011 96.9836 150.09 97.0019 150.17 97.002H155.407C155.569 97.0019 155.725 96.9279 155.839 96.7963C155.954 96.6647 156.018 96.4862 156.018 96.3V90.2906C156.018 90.1044 155.954 89.9259 155.839 89.7943C155.725 89.6627 155.569 89.5887 155.407 89.5886Z" fill="white"/>
<path d="M166.402 48.6076H161.166C161.004 48.6082 160.849 48.6825 160.735 48.814C160.621 48.9456 160.557 49.1237 160.557 49.3095V55.3216C160.557 55.5071 160.621 55.6849 160.735 55.816C160.849 55.9471 161.004 56.0208 161.166 56.0209H166.402C166.564 56.0209 166.719 55.9474 166.834 55.8163C166.949 55.6852 167.013 55.5073 167.014 55.3216V49.3095C167.013 49.1235 166.949 48.9452 166.834 48.8137C166.72 48.6822 166.564 48.6081 166.402 48.6076Z" fill="#6C63FF"/>
<path d="M166.402 58.8528H161.166C161.004 58.8535 160.849 58.9277 160.735 59.0593C160.621 59.1909 160.557 59.369 160.557 59.5547V65.5669C160.557 65.7524 160.621 65.9302 160.735 66.0613C160.849 66.1924 161.004 66.2661 161.166 66.2661H166.402C166.564 66.2662 166.719 66.1927 166.834 66.0616C166.949 65.9305 167.013 65.7526 167.014 65.5669V59.5547C167.013 59.3688 166.949 59.1905 166.834 59.059C166.72 58.9275 166.564 58.8534 166.402 58.8528Z" fill="#6C63FF"/>
<path d="M166.402 69.0981H161.166C161.004 69.0987 160.849 69.173 160.735 69.3046C160.621 69.4361 160.557 69.6143 160.557 69.8V75.8095C160.556 75.9015 160.572 75.9927 160.602 76.0778C160.633 76.1629 160.678 76.2402 160.734 76.3054C160.791 76.3706 160.858 76.4224 160.932 76.4577C161.006 76.4931 161.086 76.5113 161.166 76.5114H166.402C166.564 76.5113 166.72 76.4373 166.835 76.3057C166.949 76.1741 167.014 75.9956 167.014 75.8095V69.8C167.013 69.614 166.949 69.4358 166.834 69.3043C166.72 69.1728 166.564 69.0986 166.402 69.0981Z" fill="#E6E6E6"/>
<path d="M166.402 79.3434H161.166C161.004 79.344 160.849 79.4183 160.735 79.5498C160.621 79.6814 160.557 79.8596 160.557 80.0453V86.0548C160.556 86.1468 160.572 86.238 160.602 86.3231C160.633 86.4082 160.678 86.4855 160.734 86.5507C160.791 86.6159 160.858 86.6677 160.932 86.703C161.006 86.7384 161.086 86.7566 161.166 86.7567H166.402C166.564 86.7566 166.72 86.6826 166.835 86.551C166.949 86.4194 167.014 86.2409 167.014 86.0548V80.0453C167.013 79.8593 166.949 79.6811 166.834 79.5496C166.72 79.418 166.564 79.3439 166.402 79.3434Z" fill="white"/>
<path d="M166.402 89.5886H161.166C161.086 89.5887 161.006 89.607 160.932 89.6423C160.858 89.6777 160.791 89.7294 160.734 89.7946C160.678 89.8598 160.633 89.9372 160.602 90.0223C160.572 90.1074 160.556 90.1985 160.557 90.2906V96.3C160.556 96.3921 160.572 96.4832 160.602 96.5683C160.633 96.6534 160.678 96.7308 160.734 96.796C160.791 96.8612 160.858 96.9129 160.932 96.9483C161.006 96.9836 161.086 97.0019 161.166 97.002H166.402C166.564 97.0019 166.72 96.9279 166.835 96.7963C166.949 96.6647 167.014 96.4862 167.014 96.3V90.2906C167.014 90.1044 166.949 89.9259 166.835 89.7943C166.72 89.6627 166.564 89.5887 166.402 89.5886Z" fill="#6C63FF"/>
<path d="M177.398 48.6076H172.161C171.999 48.6082 171.844 48.6825 171.73 48.814C171.616 48.9456 171.552 49.1237 171.552 49.3095V55.3216C171.552 55.5071 171.616 55.6849 171.73 55.816C171.845 55.9471 172 56.0208 172.161 56.0209H177.398C177.559 56.0209 177.715 55.9474 177.829 55.8163C177.944 55.6852 178.009 55.5073 178.009 55.3216V49.3095C178.009 49.1235 177.944 48.9453 177.829 48.8137C177.715 48.6822 177.56 48.6081 177.398 48.6076Z" fill="#6C63FF"/>
<path d="M177.398 58.8528H172.161C171.999 58.8535 171.844 58.9277 171.73 59.0593C171.616 59.1909 171.552 59.369 171.552 59.5547V65.5669C171.552 65.7524 171.616 65.9302 171.73 66.0613C171.845 66.1924 172 66.2661 172.161 66.2661H177.398C177.559 66.2662 177.715 66.1927 177.829 66.0616C177.944 65.9305 178.009 65.7526 178.009 65.5669V59.5547C178.009 59.3688 177.944 59.1905 177.829 59.059C177.715 58.9275 177.56 58.8534 177.398 58.8528Z" fill="#6C63FF"/>
<path d="M177.398 69.0981H172.161C171.999 69.0987 171.844 69.173 171.73 69.3046C171.616 69.4361 171.552 69.6143 171.552 69.8V75.8095C171.552 75.9015 171.567 75.9927 171.598 76.0778C171.628 76.1629 171.673 76.2402 171.73 76.3054C171.786 76.3706 171.854 76.4224 171.928 76.4577C172.002 76.4931 172.081 76.5113 172.161 76.5114H177.398C177.56 76.5113 177.715 76.4373 177.83 76.3057C177.945 76.1741 178.009 75.9956 178.009 75.8095V69.8C178.009 69.614 177.944 69.4358 177.83 69.3043C177.715 69.1728 177.56 69.0986 177.398 69.0981Z" fill="#E6E6E6"/>
<path d="M177.398 79.3434H172.161C171.999 79.344 171.844 79.4183 171.73 79.5498C171.616 79.6814 171.552 79.8596 171.552 80.0453V86.0548C171.552 86.1468 171.567 86.238 171.598 86.3231C171.628 86.4082 171.673 86.4855 171.73 86.5507C171.786 86.6159 171.854 86.6677 171.928 86.703C172.002 86.7384 172.081 86.7566 172.161 86.7567H177.398C177.56 86.7566 177.715 86.6826 177.83 86.551C177.945 86.4194 178.009 86.2409 178.009 86.0548V80.0453C178.009 79.8593 177.944 79.6811 177.829 79.5496C177.715 79.418 177.56 79.3439 177.398 79.3434Z" fill="#6C63FF"/>
<path d="M177.398 89.5886H172.161C172.081 89.5887 172.002 89.607 171.928 89.6423C171.854 89.6777 171.786 89.7294 171.73 89.7946C171.673 89.8598 171.628 89.9372 171.598 90.0223C171.567 90.1074 171.552 90.1985 171.552 90.2906V96.3C171.552 96.3921 171.567 96.4832 171.598 96.5683C171.628 96.6534 171.673 96.7308 171.73 96.796C171.786 96.8612 171.854 96.9129 171.928 96.9483C172.002 96.9836 172.081 97.0019 172.161 97.002H177.398C177.56 97.0019 177.715 96.9279 177.83 96.7963C177.945 96.6647 178.009 96.4862 178.009 96.3V90.2906C178.009 90.1044 177.945 89.9259 177.83 89.7943C177.715 89.6627 177.56 89.5887 177.398 89.5886Z" fill="#6C63FF"/>
<path d="M188.393 48.6076H183.157C182.995 48.6082 182.84 48.6825 182.726 48.814C182.612 48.9456 182.548 49.1237 182.548 49.3095V55.3216C182.548 55.5071 182.612 55.6849 182.726 55.816C182.84 55.9471 182.995 56.0208 183.157 56.0209H188.393C188.555 56.0209 188.71 55.9474 188.825 55.8163C188.939 55.6852 189.004 55.5073 189.005 55.3216V49.3095C189.004 49.1235 188.94 48.9453 188.825 48.8137C188.711 48.6822 188.555 48.6081 188.393 48.6076Z" fill="#E6E6E6"/>
<path d="M188.393 58.8528H183.157C182.995 58.8535 182.84 58.9277 182.726 59.0593C182.612 59.1909 182.548 59.369 182.548 59.5547V65.5669C182.548 65.7524 182.612 65.9302 182.726 66.0613C182.84 66.1924 182.995 66.2661 183.157 66.2661H188.393C188.555 66.2662 188.71 66.1927 188.825 66.0616C188.939 65.9305 189.004 65.7526 189.005 65.5669V59.5547C189.004 59.3688 188.94 59.1905 188.825 59.059C188.711 58.9275 188.555 58.8534 188.393 58.8528Z" fill="#6C63FF"/>
<path d="M188.393 69.0981H183.157C182.995 69.0987 182.84 69.173 182.726 69.3046C182.612 69.4361 182.548 69.6143 182.548 69.8V75.8095C182.547 75.9015 182.563 75.9927 182.593 76.0778C182.624 76.1629 182.669 76.2402 182.725 76.3054C182.782 76.3706 182.849 76.4224 182.923 76.4577C182.997 76.4931 183.076 76.5113 183.157 76.5114H188.393C188.555 76.5113 188.711 76.4373 188.826 76.3057C188.94 76.1741 189.005 75.9956 189.005 75.8095V69.8C189.004 69.614 188.94 69.4358 188.825 69.3043C188.711 69.1728 188.555 69.0986 188.393 69.0981Z" fill="#6C63FF"/>
<path d="M188.393 79.3434H183.157C182.995 79.344 182.84 79.4183 182.726 79.5498C182.612 79.6814 182.548 79.8596 182.548 80.0453V86.0548C182.547 86.1468 182.563 86.238 182.593 86.3231C182.624 86.4082 182.669 86.4855 182.725 86.5507C182.782 86.6159 182.849 86.6677 182.923 86.703C182.997 86.7384 183.076 86.7566 183.157 86.7567H188.393C188.555 86.7566 188.711 86.6826 188.826 86.551C188.94 86.4194 189.005 86.2409 189.005 86.0548V80.0453C189.004 79.8593 188.94 79.6811 188.825 79.5496C188.711 79.418 188.555 79.3439 188.393 79.3434Z" fill="#6C63FF"/>
<path d="M188.393 89.5886H183.157C183.076 89.5887 182.997 89.607 182.923 89.6423C182.849 89.6777 182.782 89.7294 182.725 89.7946C182.669 89.8598 182.624 89.9372 182.593 90.0223C182.563 90.1074 182.547 90.1985 182.548 90.2906V96.3C182.547 96.3921 182.563 96.4832 182.593 96.5683C182.624 96.6534 182.669 96.7308 182.725 96.796C182.782 96.8612 182.849 96.9129 182.923 96.9483C182.997 96.9836 183.076 97.0019 183.157 97.002H188.393C188.555 97.0019 188.711 96.9279 188.826 96.7963C188.94 96.6647 189.005 96.4862 189.005 96.3V90.2906C189.005 90.1044 188.94 89.9259 188.826 89.7943C188.711 89.6627 188.555 89.5887 188.393 89.5886Z" fill="#E6E6E6"/>
<path d="M199.389 48.6076H194.152C193.99 48.6082 193.835 48.6825 193.721 48.814C193.607 48.9456 193.543 49.1237 193.543 49.3095V55.3216C193.543 55.5071 193.607 55.6849 193.721 55.816C193.836 55.9471 193.99 56.0208 194.152 56.0209H199.389C199.55 56.0209 199.706 55.9474 199.82 55.8163C199.935 55.6852 200 55.5073 200 55.3216V49.3095C200 49.1235 199.935 48.9453 199.82 48.8137C199.706 48.6822 199.551 48.6081 199.389 48.6076Z" fill="#E6E6E6"/>
<path d="M199.389 58.8528H194.152C193.99 58.8535 193.835 58.9277 193.721 59.0593C193.607 59.1909 193.543 59.369 193.543 59.5547V65.5669C193.543 65.7524 193.607 65.9302 193.721 66.0613C193.836 66.1924 193.99 66.2661 194.152 66.2661H199.389C199.55 66.2662 199.706 66.1927 199.82 66.0616C199.935 65.9305 200 65.7526 200 65.5669V59.5547C200 59.3688 199.935 59.1905 199.82 59.059C199.706 58.9275 199.551 58.8534 199.389 58.8528Z" fill="#E6E6E6"/>
<path d="M199.389 69.0981H194.152C193.99 69.0987 193.835 69.173 193.721 69.3046C193.607 69.4361 193.543 69.6143 193.543 69.8V75.8095C193.543 75.9015 193.558 75.9927 193.589 76.0778C193.619 76.1629 193.664 76.2402 193.721 76.3054C193.777 76.3706 193.845 76.4224 193.919 76.4577C193.993 76.4931 194.072 76.5113 194.152 76.5114H199.389C199.551 76.5113 199.706 76.4373 199.821 76.3057C199.936 76.1741 200 75.9956 200 75.8095V69.8C200 69.614 199.935 69.4358 199.82 69.3043C199.706 69.1728 199.551 69.0986 199.389 69.0981Z" fill="#6C63FF"/>
<path d="M199.389 79.3434H194.152C193.99 79.344 193.835 79.4183 193.721 79.5498C193.607 79.6814 193.543 79.8596 193.543 80.0453V86.0548C193.543 86.1468 193.558 86.238 193.589 86.3231C193.619 86.4082 193.664 86.4855 193.721 86.5507C193.777 86.6159 193.845 86.6677 193.919 86.703C193.993 86.7384 194.072 86.7566 194.152 86.7567H199.389C199.551 86.7566 199.706 86.6826 199.821 86.551C199.936 86.4194 200 86.2409 200 86.0548V80.0453C200 79.8593 199.935 79.6811 199.82 79.5496C199.706 79.418 199.551 79.3439 199.389 79.3434Z" fill="#E6E6E6"/>
<path d="M199.389 89.5886H194.152C194.072 89.5887 193.993 89.607 193.919 89.6423C193.845 89.6777 193.777 89.7294 193.721 89.7946C193.664 89.8598 193.619 89.9372 193.589 90.0223C193.558 90.1074 193.543 90.1985 193.543 90.2906V96.3C193.543 96.3921 193.558 96.4832 193.589 96.5683C193.619 96.6534 193.664 96.7308 193.721 96.796C193.777 96.8612 193.845 96.9129 193.919 96.9483C193.993 96.9836 194.072 97.0019 194.152 97.002H199.389C199.551 97.0019 199.706 96.9279 199.821 96.7963C199.936 96.6647 200 96.4862 200 96.3V90.2906C200 90.1044 199.936 89.9259 199.821 89.7943C199.706 89.6627 199.551 89.5887 199.389 89.5886Z" fill="#E6E6E6"/>
<path d="M79.031 178.192H78.8853L79.0099 178.174L79.031 178.192Z" fill="#2F2E41"/>
<path d="M66.5026 66.1568C75.3753 66.1568 82.5681 57.8988 82.5681 47.7121C82.5681 37.5254 75.3753 29.2674 66.5026 29.2674C57.6298 29.2674 50.437 37.5254 50.437 47.7121C50.437 57.8988 57.6298 66.1568 66.5026 66.1568Z" fill="#FFB6B6"/>
<path d="M80.5715 34.1888C80.5715 34.1888 84.7734 24.9665 75.5291 24.128C75.5291 24.128 67.6482 15.9204 59.6154 22.6276C59.6154 22.6276 55.2339 22.6276 52.838 28.32C52.838 28.32 49.3919 26.8195 48.6346 30.8352C48.6346 30.8352 46.113 39.2192 48.6346 46.7647C51.1562 54.3103 51.9938 55.1487 51.9938 55.1487C51.9938 55.1487 47.8503 39.329 57.9359 38.4906C68.0214 37.6522 79.3074 30.416 80.1479 39.6383C80.9885 48.8607 82.2533 51.133 82.2533 51.133C82.2533 51.133 90.2364 37.9616 80.5715 34.1888Z" fill="#2F2E41"/>
<path d="M108.06 93.1684L108.009 93.4816L107.428 97.0019L103.414 121.353L103.176 122.787L102.678 125.818L101.996 129.954L100.484 139.12L100.051 141.746L99.8891 142.732L99.8327 143.077L99.3836 145.796L99.2472 146.617L98.1514 155.939L97.1944 164.062L100.397 167.739L98.4877 169.931L97.2344 178.173L97.2367 178.192H46.0856C44.0163 176.653 41.9768 175.067 39.9671 173.432L40.388 169.815C40.388 169.815 41.8365 163.355 41.2274 162.582C40.6208 161.81 39.2898 160.431 39.2898 160.431L40.9664 155.939L41.1992 155.315L40.8089 146.02L40.7995 145.796L40.6702 142.732L40.6537 142.338L40.6278 141.746L40.1317 129.954L40.1223 129.76L39.9718 126.185L39.8307 122.787L39.7696 121.353L39.1653 107.01L38.7561 97.2692L38.3987 88.7895L39.8354 88.2307L55.2022 82.2347L61.5675 72.7345L74.8156 72.8479L81.301 72.9046L92.1223 84.4268L94.5843 85.7767L94.6031 85.7875L96.369 86.7567L100.846 89.2107L105.58 91.8078L108.009 93.1387L108.06 93.1684Z" fill="#CACACA"/>
<path d="M63.2796 150.521C62.3088 150.952 61.2673 151.135 60.2285 151.054C59.1898 150.974 58.179 150.633 57.2673 150.056C56.3557 149.479 55.5654 148.679 54.9521 147.713C54.3388 146.747 53.9174 145.638 53.7177 144.465L28.6609 140.384L37.3713 129.072L59.8303 134.682C61.5691 134.427 63.3288 134.914 64.7761 136.049C66.2233 137.184 67.2575 138.89 67.6827 140.842C68.1079 142.795 67.8945 144.858 67.083 146.642C66.2715 148.426 64.9182 149.806 63.2796 150.521Z" fill="#FFB6B6"/>
<path d="M52.1076 129.954C51.6435 129.279 50.9864 128.813 50.2523 128.639L39.9718 126.185L38.916 125.934C38.3024 125.787 37.7228 125.493 37.215 125.071C36.7073 124.649 36.2829 124.109 35.9696 123.486C35.6446 122.831 35.448 122.104 35.3935 121.353C35.3445 120.671 35.4156 119.984 35.6028 119.334L39.1652 107.01L41.4767 99.0132C41.7568 98.0488 41.9221 97.0453 41.9682 96.0301C42.0969 93.2205 41.3398 90.4517 39.8354 88.2307C38.5128 86.2786 36.6783 84.8667 34.603 84.2036C32.5278 83.5405 30.3217 83.6614 28.3109 84.5483C28.2521 84.5727 28.191 84.5997 28.1322 84.6266C26.6901 85.2877 25.4017 86.3248 24.3688 87.6559C23.3359 88.987 22.5868 90.5757 22.1807 92.2964L19.6693 102.785L14.4891 124.406C13.9705 126.573 13.8657 128.842 14.1819 131.059C14.4981 133.276 15.2279 135.389 16.3211 137.252C17.4144 139.115 18.8455 140.685 20.5163 141.855C22.1871 143.024 24.0583 143.765 26.0018 144.028L40.8089 146.02L47.661 146.943C48.4533 147.053 49.2525 146.815 49.8992 146.278C50.5459 145.741 50.9927 144.945 51.1506 144.047C51.1616 143.998 51.1703 143.948 51.1764 143.898L51.341 142.732L52.7355 132.91L52.7495 132.81C52.8222 132.309 52.8026 131.796 52.692 131.304C52.5815 130.812 52.3824 130.352 52.1076 129.954Z" fill="#CACACA"/>
<path d="M79.2398 150.836C80.254 151.106 81.3074 151.118 82.326 150.87C83.3445 150.622 84.3033 150.121 85.135 149.402C85.9666 148.683 86.6508 147.763 87.1393 146.708C87.6278 145.652 87.9088 144.486 87.9624 143.293L112.268 135.195L102.255 125.406L80.7092 134.596C78.9565 134.626 77.2741 135.392 75.9808 136.751C74.6874 138.109 73.873 139.965 73.6919 141.967C73.5108 143.968 73.9755 145.977 74.998 147.611C76.0206 149.246 77.5298 150.393 79.2398 150.836Z" fill="#FFB6B6"/>
<path d="M124.335 117.082L112.775 86.538C111.83 84.0304 110.141 81.9883 108.009 80.7742C107.35 80.4017 106.658 80.112 105.944 79.9103C105.834 79.8779 105.723 79.8482 105.613 79.8239C104.1 79.445 102.531 79.4782 101.032 79.9211C99.6617 80.3253 98.3808 81.0567 97.2731 82.0675C96.1653 83.0783 95.2556 84.3459 94.6033 85.7875C94.5962 85.7995 94.5899 85.8121 94.5845 85.8253C93.8558 87.4436 93.4684 89.2358 93.4532 91.0575C93.4381 92.8792 93.7958 94.6795 94.4975 96.3135L94.6409 96.6429L102.81 115.479C103.089 116.123 103.246 116.827 103.271 117.546C103.296 118.265 103.189 118.981 102.955 119.649C102.722 120.317 102.369 120.92 101.918 121.42C101.468 121.92 100.93 122.304 100.341 122.549L99.7671 122.787L89.4489 127.066C88.6747 127.383 88.0378 128.032 87.6725 128.878C87.3071 129.723 87.2418 130.699 87.4901 131.598L87.516 131.693L90.4083 142.319C90.4224 142.367 90.4365 142.416 90.453 142.464C90.4784 142.556 90.5098 142.646 90.547 142.732C90.8544 143.523 91.3977 144.163 92.0792 144.535C92.7607 144.908 93.5356 144.989 94.2646 144.765L99.8329 143.077L100.969 142.732L115.348 138.372C117.24 137.798 119.001 136.761 120.512 135.333C122.023 133.905 123.247 132.118 124.1 130.097C124.954 128.075 125.417 125.865 125.457 123.619C125.498 121.373 125.115 119.143 124.335 117.082Z" fill="#CACACA"/>
<path d="M10.5576 142.732C13.8897 147.398 17.4833 151.809 21.3155 155.939H127.594C128.618 155.94 129.6 156.408 130.323 157.24C131.047 158.071 131.454 159.199 131.455 160.374L131.608 191.294C138.146 187.845 144.269 183.441 149.825 178.192C151.367 176.737 152.862 175.219 154.309 173.638C155.257 172.606 156.182 171.55 157.084 170.468C163.847 162.379 169.324 152.991 173.266 142.732H10.5576Z" fill="#3F3D56"/>
<path d="M157.084 170.468C156.183 171.551 155.258 172.607 154.309 173.638H131.686V170.468H157.084Z" fill="white"/>
<path d="M107.849 69.0981C107.737 68.8613 107.572 68.6635 107.37 68.5257C107.169 68.3879 106.938 68.3152 106.704 68.3152H29.6137C29.2681 68.3163 28.9369 68.4745 28.6928 68.7554C28.4486 69.0362 28.3113 69.4167 28.311 69.8135V122.787H108.009V69.8135C108.01 69.5632 107.955 69.3168 107.849 69.0981Z" fill="#3F3D56"/>
<path d="M28.2412 121.352V127.889C28.2412 128.16 28.2877 128.429 28.378 128.679C28.4684 128.929 28.6007 129.157 28.7677 129.349C28.9346 129.54 29.1327 129.692 29.3508 129.796C29.5689 129.9 29.8026 129.953 30.0386 129.953H59.4545V142.854H59.0637C59.0331 142.854 59.0027 142.861 58.9744 142.874C58.9461 142.888 58.9203 142.907 58.8986 142.932C58.877 142.957 58.8598 142.987 58.848 143.019C58.8363 143.052 58.8302 143.087 58.8302 143.122V144.019C58.8302 144.054 58.8363 144.089 58.848 144.122C58.8597 144.154 58.8769 144.184 58.8986 144.209C58.9203 144.234 58.9461 144.253 58.9744 144.267C59.0027 144.28 59.0331 144.287 59.0637 144.287H77.3248C77.3554 144.287 77.3858 144.28 77.4141 144.267C77.4424 144.253 77.4682 144.234 77.4899 144.209C77.5116 144.184 77.5287 144.154 77.5405 144.122C77.5522 144.089 77.5583 144.054 77.5583 144.019V143.122C77.5583 143.087 77.5522 143.052 77.5405 143.019C77.5287 142.987 77.5115 142.957 77.4899 142.932C77.4682 142.907 77.4424 142.888 77.4141 142.874C77.3858 142.861 77.3554 142.854 77.3248 142.854H76.934V129.953H106.35C106.586 129.953 106.82 129.9 107.038 129.796C107.256 129.692 107.454 129.54 107.621 129.349C107.788 129.157 107.92 128.929 108.01 128.679C108.101 128.429 108.147 128.16 108.147 127.889V121.352H28.2412Z" fill="#3F3D56"/>
<path d="M67.2287 102.59C71.2944 102.59 74.5903 98.8065 74.5903 94.1387C74.5903 89.471 71.2944 85.687 67.2287 85.687C63.1631 85.687 59.8672 89.471 59.8672 94.1387C59.8672 98.8065 63.1631 102.59 67.2287 102.59Z" fill="#6C63FF"/>
<path d="M85.9851 46.7043H84.8094C84.8094 36.4995 76.0126 29.8124 67.1382 29.807C65.8474 29.8027 64.5594 29.9465 63.2936 30.2363C61.8686 30.5629 60.3895 30.9544 58.9363 31.4646C53.2058 33.4813 47.8915 37.3796 47.8915 46.7043C47.8903 48.5152 48.091 50.3189 48.4888 52.0712L47.3507 52.4114C46.9286 50.5478 46.7152 48.6299 46.7158 46.7043C46.7158 38.5567 49.6293 32.9602 54.6614 29.6234C57.3068 27.8686 60.5353 26.7375 64.2341 26.1867C65.7734 25.9516 67.3295 25.8974 68.8783 26.0248C79.0836 26.8671 85.9851 35.8516 85.9851 46.7043Z" fill="#6C63FF"/>
<path d="M87.9439 47.4521L87.4806 43.5214C87.3664 42.5287 86.9499 41.6145 86.3049 40.9405C85.8908 40.5011 85.3952 40.1756 84.8554 39.9885C84.3156 39.8014 83.7459 39.7577 83.1892 39.8606L82.4532 39.9767C82.2518 40.0071 82.0577 40.0832 81.8821 40.2004C81.7065 40.3177 81.553 40.4738 81.4303 40.6597C81.3067 40.845 81.2162 41.0566 81.1641 41.2822C81.1121 41.5079 81.0994 41.7432 81.127 41.9745L82.1969 51.0292C82.241 51.3982 82.3851 51.742 82.6087 52.0119C82.8324 52.2817 83.1243 52.464 83.4432 52.5329C83.5376 52.5546 83.6337 52.5655 83.7301 52.5653C83.7993 52.5653 83.8684 52.5599 83.937 52.5491L84.76 52.4222C85.2618 52.3458 85.7446 52.1523 86.1789 51.8538C86.6132 51.5553 86.9898 51.158 87.2855 50.6863C87.3489 50.5837 87.4101 50.4784 87.4665 50.3704C87.9072 49.4871 88.0754 48.4588 87.9439 47.4521Z" fill="#6C63FF"/>
<path d="M81.9782 40.1414C81.7624 40.2618 81.5745 40.4395 81.4303 40.6597C81.3067 40.845 81.2162 41.0566 81.1641 41.2822C81.1121 41.5079 81.0994 41.7432 81.127 41.9745L82.1969 51.0292C82.241 51.3982 82.3851 51.742 82.6087 52.0119C82.8324 52.2817 83.1243 52.464 83.4432 52.5329L81.9782 40.1414Z" fill="white"/>
<path d="M87.9439 47.4521L87.4807 43.5214C87.3664 42.5287 86.9499 41.6144 86.3049 40.9405L87.3701 49.9493C87.3861 50.0939 87.4185 50.2355 87.4665 50.3704C87.9073 49.4871 88.0755 48.4588 87.9439 47.4521Z" fill="#3F3D56"/>
<path d="M84.2826 50.2842C84.6044 50.2341 84.7661 49.3551 84.6439 48.3209C84.5217 47.2867 84.1618 46.4889 83.8401 46.539C83.5184 46.5891 83.3566 47.4681 83.4788 48.5023C83.601 49.5366 83.9609 50.3343 84.2826 50.2842Z" fill="#3F3D56"/>
<path d="M83.5773 45.4248C83.899 45.3747 84.0608 44.4957 83.9386 43.4615C83.8164 42.4273 83.4565 41.6295 83.1348 41.6796C82.8131 41.7297 82.6513 42.6087 82.7735 43.6429C82.8957 44.6772 83.2556 45.4749 83.5773 45.4248Z" fill="#3F3D56"/>
<path d="M88.0451 47.3146C88.3668 47.2645 88.5285 46.3855 88.4063 45.3512C88.2841 44.317 87.9243 43.5192 87.6025 43.5694C87.2808 43.6195 87.1191 44.4985 87.2413 45.5327C87.3635 46.5669 87.7234 47.3647 88.0451 47.3146Z" fill="#3F3D56"/>
<path d="M67.1382 29.807C65.8474 29.8027 64.5594 29.9465 63.2936 30.2362C61.8686 30.5629 60.3895 30.9544 58.9363 31.4646C56.6672 31.3377 54.9976 30.6628 54.6614 29.6234C57.3068 27.8686 60.5353 26.7375 64.2341 26.1867C65.7734 25.9516 67.3294 25.8974 68.8783 26.0248C69.0422 26.1351 69.184 26.284 69.2942 26.4618C69.4044 26.6395 69.4807 26.842 69.5179 27.056C69.6284 27.9955 68.6948 28.9944 67.1382 29.807Z" fill="#3F3D56"/>
<path d="M52.1266 56.0722L50.316 47.4305C50.2515 47.1187 50.1081 46.8358 49.9039 46.6173C49.6998 46.3987 49.4439 46.2543 49.1685 46.2022C49.0907 46.1883 49.0121 46.181 48.9334 46.1806C48.8224 46.181 48.7119 46.1964 48.6042 46.2265L47.9034 46.4208C47.0012 46.6713 46.2224 47.3226 45.7379 48.2316C45.2534 49.1406 45.1028 50.2331 45.3192 51.2694L46.1304 55.1462C46.3157 56.0589 46.7568 56.8765 47.3861 57.4733C47.4881 57.5678 47.5949 57.6553 47.7059 57.7352C48.1001 58.0188 48.5397 58.2089 48.9989 58.2942C49.4581 58.3795 49.9276 58.3583 50.3795 58.2319L51.0779 58.0376C51.2626 57.9881 51.4363 57.8952 51.5882 57.7649C51.814 57.5758 51.9858 57.314 52.0817 57.0126C52.1775 56.7112 52.1932 56.3838 52.1266 56.0722Z" fill="#6C63FF"/>
<path d="M48.3308 54.4643C48.6464 54.3771 48.7299 53.4838 48.5172 52.4691C48.3045 51.4543 47.8762 50.7024 47.5606 50.7896C47.2449 50.8768 47.1614 51.7701 47.3741 52.7849C47.5868 53.7996 48.0151 54.5515 48.3308 54.4643Z" fill="#3F3D56"/>
<path d="M45.9792 55.2742C46.2949 55.187 46.3783 54.2937 46.1657 53.279C45.953 52.2642 45.5247 51.5123 45.209 51.5995C44.8933 51.6867 44.8099 52.58 45.0226 53.5948C45.2352 54.6095 45.6636 55.3614 45.9792 55.2742Z" fill="#3F3D56"/>
<path d="M52.2418 56.0398L50.4312 47.3981C50.3606 47.0608 50.205 46.7548 49.9837 46.5186C49.7625 46.2823 49.4854 46.1262 49.1873 46.0699L51.6586 57.8728C51.9027 57.6676 52.0884 57.384 52.1921 57.0578C52.2959 56.7315 52.3132 56.3773 52.2418 56.0398Z" fill="white"/>
<path d="M45.7283 49.5578C45.6783 49.3175 45.5845 49.0921 45.4531 48.8964C45.1986 49.6532 45.1519 50.4813 45.3191 51.2694L46.1304 55.1462C46.3156 56.0589 46.7567 56.8765 47.386 57.4733L45.7283 49.5578Z" fill="#3F3D56"/>
</g>
<defs>
<clipPath id="clip0_135_97">
<rect width="200" height="200" fill="white"/>
</clipPath>
</defs>
</svg>
