<svg width="64" height="62" viewBox="0 0 64 62" fill="none" xmlns="http://www.w3.org/2000/svg">
<path fill-rule="evenodd" clip-rule="evenodd" d="M32.3176 0.516357C14.882 0.516357 0.743408 14.5826 0.743408 31.935C0.743408 45.8165 9.79038 57.5935 22.3358 61.748C23.9138 62.0388 24.4931 61.0664 24.4931 60.2366C24.4931 59.4874 24.4638 57.0124 24.4502 54.3871C15.6662 56.2876 13.8127 50.6801 13.8127 50.6801C12.3764 47.0485 10.307 46.0829 10.307 46.0829C7.44224 44.1329 10.5229 44.173 10.5229 44.173C13.6935 44.3946 15.363 47.4106 15.363 47.4106C18.1791 52.2139 22.7494 50.8252 24.5511 50.0224C24.8345 47.9918 25.6528 46.6058 26.5558 45.8212C19.5427 45.0267 12.1704 42.3327 12.1704 30.294C12.1704 26.8638 13.4038 24.0611 15.4236 21.8608C15.0958 21.0694 14.0151 17.8739 15.7295 13.5462C15.7295 13.5462 18.3809 12.7018 24.4147 16.7667C26.9333 16.0706 29.6343 15.7215 32.3176 15.7095C35.0009 15.7215 37.7041 16.0706 40.2274 16.7667C46.2538 12.7018 48.9016 13.5462 48.9016 13.5462C50.6202 17.8739 49.5389 21.0694 49.2111 21.8608C51.2356 24.0611 52.4606 26.8638 52.4606 30.294C52.4606 42.3613 45.0743 45.0184 38.0434 45.7962C39.1759 46.7712 40.185 48.6832 40.185 51.6145C40.185 55.8183 40.1484 59.2017 40.1484 60.2366C40.1484 61.0726 40.7168 62.0523 42.3172 61.7438C54.8558 57.5847 63.8913 45.8118 63.8913 31.935C63.8913 14.5826 49.7549 0.516357 32.3176 0.516357ZM12.569 45.2728C12.4994 45.4289 12.2527 45.4757 12.0278 45.3685C11.7988 45.266 11.6702 45.0533 11.7444 44.8966C11.8124 44.7359 12.0597 44.6911 12.2882 44.7988C12.5177 44.9013 12.6485 45.1162 12.569 45.2728ZM14.1221 46.6518C13.9715 46.7907 13.6771 46.7262 13.4774 46.5066C13.2709 46.2876 13.2322 45.9947 13.3849 45.8537C13.5401 45.7148 13.8256 45.7798 14.0327 45.9988C14.2392 46.2205 14.2795 46.5113 14.1221 46.6518ZM15.1876 48.4161C14.9941 48.5499 14.6778 48.4245 14.4822 48.1451C14.2888 47.8657 14.2888 47.5306 14.4864 47.3964C14.6825 47.2622 14.9941 47.3829 15.1923 47.6602C15.3852 47.9443 15.3852 48.2793 15.1876 48.4161ZM16.9895 50.4595C16.8165 50.6494 16.4479 50.5984 16.1781 50.3393C15.902 50.086 15.8251 49.7265 15.9987 49.5365C16.1739 49.3461 16.5446 49.3997 16.8165 49.6567C17.0904 49.9096 17.1741 50.2717 16.9895 50.4595ZM19.3184 51.1493C19.2421 51.3954 18.887 51.5073 18.5294 51.4027C18.1723 51.295 17.9386 51.0068 18.0107 50.7581C18.085 50.5104 18.4416 50.3939 18.8018 50.5058C19.1584 50.6129 19.3926 50.8991 19.3184 51.1493ZM21.9687 51.4419C21.9776 51.7011 21.6744 51.9159 21.299 51.9206C20.9215 51.9289 20.6161 51.7193 20.6119 51.4643C20.6119 51.2026 20.9084 50.9898 21.2859 50.9836C21.6613 50.9763 21.9687 51.1844 21.9687 51.4419ZM24.5724 51.3426C24.6174 51.5955 24.3565 51.8551 23.9837 51.9243C23.6171 51.9909 23.2778 51.8348 23.2313 51.584C23.1858 51.3249 23.4514 51.0653 23.8174 50.9982C24.1907 50.9337 24.5248 51.0856 24.5724 51.3426Z" fill="white"/>
</svg>
