<svg width="83" height="87" viewBox="0 0 83 87" fill="none" xmlns="http://www.w3.org/2000/svg">
<g clip-path="url(#clip0_135_215)">
<path fill-rule="evenodd" clip-rule="evenodd" d="M0 0H83V87H0V0V0Z" fill="#F7DF1E"/>
<path fill-rule="evenodd" clip-rule="evenodd" d="M21.8239 72.7035L28.1756 68.6743C29.401 70.9517 30.5157 72.8785 33.1895 72.8785C35.7524 72.8785 37.3683 71.8276 37.3683 67.74V39.9414H45.1682V67.8556C45.1682 76.3236 40.4327 80.1779 33.5238 80.1779C27.2842 80.1779 23.6622 76.7906 21.8237 72.7028" fill="black"/>
<path fill-rule="evenodd" clip-rule="evenodd" d="M49.4048 71.8275L55.7557 67.9731C57.4276 70.835 59.6005 72.9372 63.4446 72.9372C66.6764 72.9372 68.7373 71.2435 68.7373 68.9075C68.7373 66.1043 66.6203 65.1114 63.0545 63.4767L61.105 62.6001C55.4775 60.0894 51.7445 56.9359 51.7445 50.2782C51.7445 44.1462 56.2016 39.474 63.1662 39.474C68.1248 39.474 71.6905 41.2846 74.2531 46.015L68.1802 50.1028C66.843 47.5918 65.3948 46.5992 63.1663 46.5992C60.882 46.5992 59.4333 48.1175 59.4333 50.1028C59.4333 52.5556 60.882 53.5487 64.2245 55.0672L66.1743 55.9431C72.8045 58.9217 76.5375 61.9581 76.5375 68.7907C76.5375 76.1495 71.0218 80.1787 63.6119 80.1787C56.369 80.1787 51.6889 76.5581 49.4049 71.8275" fill="black"/>
</g>
<defs>
<clipPath id="clip0_135_215">
<rect width="83" height="87" fill="white"/>
</clipPath>
</defs>
</svg>
