<svg width="84" height="87" viewBox="0 0 84 87" fill="none" xmlns="http://www.w3.org/2000/svg">
<path d="M26.8192 84.5575C24.8639 84.5575 23.0172 83.6574 21.768 82.026L2.7581 57.5557C1.50888 55.9243 1.02005 53.8429 1.50888 51.8178L8.29812 21.272C8.73263 19.2469 10.0362 17.6155 11.8285 16.7155L39.3114 3.10205C40.1804 2.65202 41.1581 2.427 42.1357 2.427C43.1134 2.427 44.091 2.65202 44.96 3.10205L72.4429 16.6592C74.2353 17.5593 75.5388 19.1906 75.9733 21.2158L82.7626 51.7615C83.1971 53.7867 82.7626 55.8681 81.5133 57.4994L62.5035 81.9698C61.2542 83.5449 59.4076 84.5012 57.4523 84.5012L26.8192 84.5575Z" fill="#326DE6"/>
<path d="M42.0815 3.83338C42.8419 3.83338 43.6023 4.00214 44.3083 4.33966L71.7912 17.8968C73.2034 18.6281 74.2896 19.9782 74.6155 21.5533L81.4048 52.0991C81.785 53.7304 81.4048 55.4181 80.3728 56.7119L61.3629 81.1823C60.3853 82.4761 58.8645 83.2074 57.2894 83.2074H26.8192C25.2441 83.2074 23.7234 82.4761 22.7457 81.1823L3.73581 56.7119C2.75816 55.4181 2.37797 53.7304 2.70385 52.0991L9.49309 21.5533C9.87329 19.9219 10.9053 18.5719 12.3174 17.8968L39.8003 4.28341C40.5064 4.00214 41.3211 3.83338 42.0815 3.83338ZM42.0815 1.18945C40.9409 1.18945 39.8003 1.47072 38.714 1.97701L11.2311 15.5904C9.05858 16.6592 7.53779 18.6281 6.99465 21.047L0.205407 51.5928C-0.337732 54.0117 0.205407 56.4869 1.7262 58.4558L20.7361 82.9261C22.2026 84.8388 24.4294 85.9076 26.7649 85.9076H57.2351C59.5706 85.9076 61.7974 84.8388 63.2639 82.9261L82.2738 58.4558C83.7946 56.5431 84.3377 54.0117 83.7946 51.5928L77.0053 21.047C76.4622 18.6281 74.9414 16.6592 72.7689 15.5904L45.3946 1.97701C44.3627 1.47072 43.2221 1.18945 42.0815 1.18945Z" fill="#BDBDBD"/>
<path d="M69.6187 49.6802C69.5644 49.6802 69.5644 49.6802 69.6187 49.6802H69.5644C69.5101 49.6802 69.4557 49.6802 69.4557 49.6239C69.3471 49.6239 69.2385 49.5677 69.1299 49.5677C68.7497 49.5114 68.4238 49.4552 68.0979 49.4552C67.935 49.4552 67.772 49.4552 67.5548 49.3989H67.5004C66.3598 49.2864 65.4365 49.1739 64.5675 48.8926C64.1873 48.7239 64.0787 48.4989 63.97 48.2739C63.97 48.2176 63.9157 48.2176 63.9157 48.1613L63.2096 47.9363C63.5355 45.3487 63.4269 42.6485 62.8294 40.0045C62.232 37.3606 61.2 34.8855 59.7879 32.6353L60.331 32.129V32.0165C60.331 31.7352 60.3853 31.454 60.6026 31.1727C61.2543 30.5539 62.069 30.0476 63.0467 29.4288C63.2096 29.3163 63.3726 29.2601 63.5355 29.1476C63.8614 28.9788 64.133 28.8101 64.4589 28.585C64.5132 28.5288 64.6218 28.4725 64.7304 28.36C64.7847 28.3038 64.8391 28.3038 64.8391 28.2475C65.5994 27.5725 65.7624 26.4474 65.2193 25.7161C64.9477 25.3223 64.4589 25.0973 63.97 25.0973C63.5355 25.0973 63.1553 25.2661 62.7751 25.5473C62.7208 25.6036 62.7208 25.6036 62.6665 25.6598C62.5579 25.7161 62.5036 25.8286 62.3949 25.8849C62.1234 26.1661 61.9061 26.3911 61.6888 26.6724C61.5802 26.7849 61.4716 26.9537 61.3087 27.0662C60.5483 27.91 59.8422 28.585 59.1361 29.0913C58.9731 29.2038 58.8102 29.2601 58.6473 29.2601C58.5386 29.2601 58.43 29.2601 58.3214 29.2038H58.2128L57.561 29.6539C56.8549 28.8663 56.0945 28.1913 55.3341 27.5162C52.0753 24.8723 48.1104 23.2409 43.9825 22.8472L43.9282 22.1159C43.8739 22.0596 43.8739 22.0596 43.8196 22.0034C43.6566 21.8346 43.4394 21.6658 43.385 21.2721C43.3307 20.372 43.4394 19.3594 43.548 18.2344V18.1781C43.548 18.0093 43.6023 17.7843 43.6566 17.6156C43.7109 17.278 43.7652 16.9405 43.8196 16.5467V16.2092V16.0405C43.8196 15.0279 43.0592 14.1841 42.1358 14.1841C41.7013 14.1841 41.2668 14.4091 40.9409 14.7466C40.615 15.0841 40.4521 15.5342 40.4521 16.0405V16.153V16.4905C40.4521 16.8843 40.5064 17.2218 40.615 17.5593C40.6694 17.7281 40.6693 17.8968 40.7237 18.1218V18.1781C40.8323 19.3032 40.9952 20.3157 40.8866 21.2158C40.8323 21.6096 40.615 21.7783 40.4521 21.9471C40.3978 22.0034 40.3978 22.0034 40.3435 22.0596L40.2892 22.7909C39.3115 22.9034 38.3338 23.0159 37.3562 23.2409C33.174 24.1972 29.4807 26.3911 26.602 29.5414L26.0589 29.1476H25.9503C25.8416 29.1476 25.733 29.2038 25.6244 29.2038C25.4614 29.2038 25.2985 29.1476 25.1356 29.0351C24.4295 28.5288 23.7234 27.7975 22.963 26.9537C22.8544 26.8412 22.7457 26.6724 22.5828 26.5599C22.3655 26.2786 22.1483 26.0536 21.8767 25.7724C21.8224 25.7161 21.7138 25.6598 21.6051 25.5473C21.5508 25.4911 21.4965 25.4911 21.4965 25.4348C21.1706 25.1536 20.7361 24.9848 20.3016 24.9848C19.8128 24.9848 19.324 25.2098 19.0524 25.6036C18.5093 26.3349 18.6722 27.46 19.4326 28.135C19.4869 28.135 19.4869 28.1913 19.5412 28.1913C19.6498 28.2475 19.7042 28.36 19.8128 28.4163C20.1387 28.6413 20.4102 28.8101 20.7361 28.9788C20.8991 29.0351 21.062 29.1476 21.225 29.2601C22.2026 29.8789 23.0173 30.3852 23.6691 31.004C23.9406 31.2852 23.9406 31.5665 23.9406 31.8478V31.9603L24.4838 32.4665C24.3752 32.6353 24.2665 32.7478 24.2122 32.9166C21.4965 37.3606 20.4646 42.5922 21.1706 47.7676L20.4646 47.9926C20.4646 48.0488 20.4102 48.0488 20.4102 48.1051C20.3016 48.3301 20.1387 48.5551 19.8128 48.7239C18.9981 49.0051 18.0204 49.1177 16.8798 49.2302H16.8255C16.6626 49.2302 16.4453 49.2302 16.2824 49.2864C15.9565 49.2864 15.6306 49.3427 15.2504 49.3989C15.1418 49.3989 15.0332 49.4552 14.9245 49.4552C14.8702 49.4552 14.8159 49.4552 14.7616 49.5114C13.7839 49.7364 13.1865 50.6928 13.3494 51.5928C13.5124 52.3804 14.2185 52.8867 15.0875 52.8867C15.2504 52.8867 15.359 52.8867 15.522 52.8304C15.5763 52.8304 15.6306 52.8304 15.6306 52.7742C15.7392 52.7742 15.8479 52.7179 15.9565 52.7179C16.3367 52.6054 16.6083 52.4929 16.9341 52.3241C17.0971 52.2679 17.26 52.1554 17.423 52.0991H17.4773C18.5093 51.7053 19.4326 51.3678 20.3016 51.2553H20.4102C20.7361 51.2553 20.9534 51.4241 21.1163 51.5366C21.1706 51.5366 21.1706 51.5928 21.225 51.5928L21.9853 51.4803C23.2889 55.6431 25.7873 59.3558 29.1005 62.056C29.8609 62.6748 30.6213 63.1811 31.436 63.6874L31.1101 64.4187C31.1101 64.4749 31.1644 64.4749 31.1644 64.5312C31.273 64.7562 31.3817 65.0375 31.273 65.4312C30.9471 66.275 30.4583 67.1189 29.8609 68.0752V68.1314C29.7522 68.3002 29.6436 68.4127 29.535 68.5814C29.3177 68.8627 29.1548 69.144 28.9375 69.4815C28.8832 69.5378 28.8289 69.6503 28.7746 69.7628C28.7746 69.819 28.7203 69.8753 28.7203 69.8753C28.2858 70.8316 28.6116 71.9004 29.4264 72.2942C29.6436 72.4067 29.8609 72.463 30.0781 72.463C30.7299 72.463 31.3817 72.0129 31.7075 71.3941C31.7075 71.3379 31.7619 71.2816 31.7619 71.2816C31.8162 71.1691 31.8705 71.0566 31.9248 71.0004C32.0877 70.6066 32.1421 70.3253 32.2507 69.9878C32.305 69.819 32.3593 69.6503 32.4136 69.4815C32.7938 68.3564 33.0654 67.4564 33.5542 66.6688C33.7715 66.3313 34.043 66.275 34.2603 66.1625C34.3146 66.1625 34.3146 66.1625 34.3689 66.1063L34.7491 65.375C37.1389 66.3313 39.746 66.8376 42.3531 66.8376C43.9282 66.8376 45.5576 66.6688 47.0784 66.275C48.056 66.05 48.9794 65.7688 49.9027 65.4312L50.2286 66.05C50.2829 66.05 50.2829 66.05 50.3372 66.1063C50.6088 66.1625 50.8261 66.275 51.0433 66.6126C51.4778 67.4001 51.8037 68.3564 52.1839 69.4253V69.4815C52.2382 69.6503 52.2925 69.819 52.3468 69.9878C52.4555 70.3253 52.5098 70.6628 52.6727 71.0004C52.727 71.1129 52.7814 71.1691 52.8357 71.2816C52.8357 71.3379 52.89 71.3941 52.89 71.3941C53.2159 72.0692 53.8676 72.463 54.5194 72.463C54.7367 72.463 54.9539 72.4067 55.1712 72.2942C55.5514 72.0692 55.8773 71.7317 55.9859 71.2816C56.0945 70.8316 56.0945 70.3253 55.8773 69.8753C55.8773 69.819 55.8229 69.819 55.8229 69.7628C55.7686 69.6503 55.7143 69.5378 55.66 69.4815C55.4971 69.144 55.2798 68.8627 55.0625 68.5814C54.9539 68.4127 54.8453 68.3002 54.7367 68.1314V68.0752C54.1392 67.1189 53.5961 66.275 53.3245 65.4312C53.2159 65.0375 53.3245 64.8125 53.3788 64.5312C53.3788 64.4749 53.4331 64.4749 53.4331 64.4187L53.1616 63.7436C56.0402 61.9998 58.4843 59.5246 60.331 56.4869C61.3086 54.9118 62.069 53.1679 62.6122 51.4241L63.264 51.5366C63.3183 51.5366 63.3183 51.4803 63.3726 51.4803C63.5898 51.3678 63.7528 51.199 64.0787 51.199H64.1873C65.0563 51.3115 65.9797 51.6491 67.0116 52.0428H67.0659C67.2289 52.0991 67.3918 52.2116 67.5548 52.2679C67.8806 52.4366 68.1522 52.5491 68.5324 52.6616C68.641 52.6616 68.7497 52.7179 68.8583 52.7179C68.9126 52.7179 68.9669 52.7179 69.0212 52.7742C69.1842 52.8304 69.2928 52.8304 69.4557 52.8304C70.2705 52.8304 70.9765 52.2679 71.1938 51.5366C71.1938 50.8615 70.5963 49.9615 69.6187 49.6802ZM44.4713 46.9238L42.0815 48.1051L39.6917 46.9238L39.0942 44.2798L40.7237 42.1422H43.385L45.0145 44.2798L44.4713 46.9238ZM58.6473 41.0734C59.0818 42.986 59.1904 44.8986 59.0275 46.755L50.7174 44.2798C49.957 44.0548 49.5225 43.2673 49.6855 42.4797C49.7398 42.2547 49.8484 42.0297 50.0114 41.8609L56.5833 35.7293C57.5067 37.3044 58.2128 39.1045 58.6473 41.0734ZM53.9763 32.354L46.8611 37.5856C46.2637 37.9794 45.449 37.8669 44.9602 37.2481C44.7972 37.0794 44.7429 36.8543 44.6886 36.6293L44.1998 27.46C47.9474 27.91 51.3692 29.6539 53.9763 32.354ZM38.2252 27.7412C38.8227 27.6287 39.3658 27.5162 39.9633 27.4037L39.4744 36.4043C39.4201 37.1919 38.8227 37.8669 38.008 37.8669C37.7907 37.8669 37.5191 37.8107 37.3562 37.6981L30.1324 32.354C32.3593 30.0476 35.1293 28.4725 38.2252 27.7412ZM27.5254 35.7293L33.9887 41.6922C34.5862 42.1984 34.6405 43.1548 34.1517 43.7736C33.9887 43.9986 33.7715 44.1673 33.4999 44.2236L25.0812 46.755C24.7554 42.9297 25.5701 39.0482 27.5254 35.7293ZM26.0589 50.974L34.6948 49.4552C35.4009 49.3989 36.0527 49.9052 36.2156 50.6365C36.2699 50.974 36.2699 51.2553 36.1613 51.5366L32.8481 59.8059C29.8066 57.7807 27.3624 54.6868 26.0589 50.974ZM45.8835 62.1685C44.6343 62.4498 43.385 62.6185 42.0815 62.6185C40.1805 62.6185 38.3338 62.281 36.5958 61.7185L40.8866 53.6742C41.3211 53.1679 42.0272 52.9429 42.6247 53.2804C42.8962 53.4492 43.1135 53.6742 43.2764 53.8992L47.4586 61.7185C46.9698 61.8873 46.4266 61.9998 45.8835 62.1685ZM56.4747 54.3493C55.1169 56.5994 53.3245 58.3995 51.2606 59.8059L47.8388 51.3115C47.6758 50.6365 47.9474 49.9052 48.5992 49.5677C48.8164 49.4552 49.088 49.3989 49.3596 49.3989L58.0498 50.9178C57.7239 52.1554 57.1808 53.2804 56.4747 54.3493Z" fill="white"/>
</svg>
