<svg width="100" height="40" viewBox="0 0 100 40" fill="none" xmlns="http://www.w3.org/2000/svg">
<path d="M6.24946 22.9121C7.29751 22.4389 8.02917 21.9294 8.93881 21.802C10.2637 21.62 11.5095 21.6928 12.2609 22.9303C12.4784 23.2943 12.6564 23.0941 12.8937 22.9667C13.744 22.4753 14.5944 22.0022 15.6028 21.802C17.9955 21.2924 19.5577 22.6391 19.0436 24.8411C18.6086 26.7155 18.0746 28.5718 17.6199 30.428C17.5209 30.792 17.3232 30.9012 16.9277 30.883C16.1961 30.8648 15.4644 30.8648 14.7327 30.883C14.278 30.9012 14.1989 30.792 14.3175 30.3734C14.7723 28.7356 15.1875 27.0795 15.583 25.4417C15.8599 24.2952 15.2469 23.7856 13.9813 24.0586C13.0321 24.277 12.3796 24.6227 12.2016 25.6782C11.9247 27.2615 11.3909 28.8266 10.9954 30.3916C10.8964 30.7556 10.7581 30.883 10.3626 30.883C9.63095 30.8648 8.89926 30.8466 8.16759 30.883C7.6139 30.9194 7.6139 30.6828 7.71278 30.3006C8.12804 28.7538 8.54331 27.2069 8.91903 25.66C9.275 24.2406 8.58286 23.6764 7.04044 24.1314C6.30878 24.3498 5.81442 24.6591 5.65622 25.4599C5.32006 27.0977 4.82569 28.6992 4.4302 30.3188C4.33133 30.7374 4.13358 30.9012 3.65899 30.8648C2.92733 30.8284 2.19567 30.8466 1.46401 30.8648C1.10808 30.8648 1.0092 30.792 1.0883 30.428C1.80018 27.7529 2.51207 25.0595 3.20417 22.3843C3.30305 22.0022 3.52057 21.9112 3.89628 21.9294C4.48953 21.9476 5.08276 21.9476 5.69577 21.9294C6.28901 21.9112 6.86247 21.9112 6.24946 22.9121Z" fill="#9028B3"/>
<path d="M64.8406 18.5991C62.606 18.5809 60.767 17.8166 59.5212 16.0696C57.8601 13.7584 58.9082 10.9194 61.7162 9.91851C64.188 9.04499 67.2135 9.80932 68.835 11.7383C69.9424 13.0668 70.3182 14.5227 69.5469 16.0696C68.7559 17.671 67.253 18.3989 65.414 18.5809C65.2163 18.6173 65.0185 18.5991 64.8406 18.5991Z" fill="#6EA1FF"/>
<path d="M67.5112 23.8403C67.5112 21.147 69.6271 19.127 72.4548 19.127C75.3618 19.127 77.7347 21.329 77.7742 24.0587C77.8138 26.6429 75.5595 28.7721 72.7712 28.7721C69.8248 28.7721 67.5112 26.6247 67.5112 23.8403Z" fill="#6EA1FF"/>
<path d="M85.6424 33.8125C85.6227 35.3593 85.1481 36.7424 83.922 37.8707C82.1621 39.4904 79.5518 39.454 77.8315 37.7979C75.6563 35.6869 75.7155 31.9016 77.9699 29.8452C79.7891 28.1892 82.3796 28.2438 84.1 29.9726C85.0887 30.9735 85.6424 32.3202 85.6424 33.8125Z" fill="#6EA1FF"/>
<path d="M26.0228 30.0458C24.8561 30.6827 23.808 31.1377 22.6018 31.1559C21.1385 31.1923 19.9718 30.5917 19.6356 29.609C19.2204 28.4261 19.7543 27.0431 20.9407 26.3333C22.325 25.478 23.9267 25.3506 25.5284 25.1686C25.9042 25.1322 26.2997 25.1322 26.6556 25.0776C26.9325 25.023 27.3675 25.2232 27.4071 24.7137C27.4268 24.2769 27.1698 23.9857 26.7544 23.8765C25.8844 23.6218 24.9945 23.6036 24.1047 23.7674C23.4324 23.8947 22.7996 24.0767 22.147 24.2405C21.7119 24.3497 21.5537 24.3133 21.6724 23.8219C22.2063 21.7109 21.6526 22.2387 23.9861 21.8747C25.4098 21.6563 26.8534 21.6563 28.2771 21.8747C30.3534 22.1841 31.0653 23.1668 30.5907 25.0412C30.1359 26.7883 29.6613 28.5171 29.2461 30.2642C29.1274 30.7373 28.9099 30.9375 28.376 30.8829C27.8025 30.8465 27.229 30.8647 26.6556 30.8647C26.1415 30.8829 25.5087 31.0103 26.0228 30.0458ZM24.2035 29.2269C25.7855 29.2815 26.7347 28.4443 26.794 27.0067C26.794 26.7701 26.7743 26.6791 26.5171 26.7155C25.5878 26.8611 24.6189 26.8247 23.7488 27.225C23.1357 27.498 22.8391 27.9348 22.938 28.5535C23.0566 29.1905 23.6697 29.1905 24.2035 29.2269Z" fill="#9028B3"/>
<path d="M63.477 30.8831C62.3498 30.8831 61.4007 30.8649 60.4515 30.8831C60.0758 30.9013 59.8583 30.7557 59.7001 30.4463C59.2848 29.7002 58.83 28.954 58.3356 28.1169C57.4656 28.954 56.6351 29.7002 55.8441 30.4827C55.5672 30.7557 55.2706 30.9013 54.8553 30.8831C53.8666 30.8467 52.8581 30.8831 51.6716 30.8831C53.036 29.682 54.2621 28.5901 55.5277 27.5164C56.8724 26.3881 56.8724 26.4063 55.9824 24.9868C55.4287 24.1315 54.8949 23.2761 54.3214 22.4208C54.0841 22.0568 54.183 21.9477 54.618 21.9477C55.4287 21.9659 56.2396 21.9659 57.0701 21.9477C57.4458 21.9295 57.6633 22.0932 57.8215 22.4026C58.1577 23.0032 58.5532 23.5673 58.8497 24.1861C59.1069 24.6956 59.3046 24.5864 59.6407 24.2589C60.3131 23.6037 61.0052 22.9668 61.6776 22.3298C61.8358 22.166 61.9742 21.9659 62.2707 21.9659C63.2002 21.9659 64.1098 21.9659 65.0392 21.9659C65.2369 21.9659 65.4742 21.8931 65.6918 22.0932C64.1691 23.4035 62.6662 24.732 61.1436 26.0241C60.7481 26.3517 60.7086 26.5882 60.9854 27.0068C61.816 28.2261 62.6069 29.5 63.477 30.8831Z" fill="#9028B3"/>
<path d="M37.671 19.4541C37.493 20.1456 37.3546 20.7826 37.1766 21.4013C37.0579 21.8017 37.1766 21.9473 37.6314 21.9473C38.2642 21.9291 38.8772 21.9655 39.51 21.9473C39.9252 21.9291 40.0637 22.0747 39.9451 22.4386C39.9451 22.4568 39.9252 22.4932 39.9252 22.5114C39.6088 23.9127 39.6088 23.9127 38.0071 23.9127C36.5438 23.9127 36.5241 23.9127 36.1878 25.223C35.9505 26.1147 35.7132 27.0064 35.4958 27.9163C35.2782 28.8081 35.6144 29.172 36.6229 29.1538C36.7218 29.1538 36.8405 29.1174 36.9393 29.1356C37.3546 29.2266 37.8885 28.6079 38.106 29.1538C38.3829 29.809 37.5919 30.9191 36.8997 30.9919C35.9308 31.1011 34.9618 31.1557 33.9732 31.0283C32.4505 30.8463 31.7188 29.9728 32.0352 28.5715C32.3318 27.2794 32.668 26.0055 33.024 24.7134C33.1623 24.2221 33.2414 23.8035 32.4307 23.8945C31.9363 23.9491 31.877 23.7307 32.0352 23.3486C32.1341 23.0756 32.2132 22.7662 32.2527 22.475C32.3121 22.0201 32.5691 21.8563 33.024 21.9291C33.6369 22.0201 33.7951 21.7107 33.9138 21.2375C34.3687 19.4359 34.3687 19.4541 36.346 19.4541C36.8009 19.4541 37.1964 19.4541 37.671 19.4541Z" fill="#9028B3"/>
<path d="M78.7826 9.77273C78.7629 11.4288 77.4973 12.5753 75.5396 12.7027C73.2063 12.8483 70.5367 10.9192 70.1412 8.80822C69.7654 6.8428 70.8926 5.44152 73.0678 5.16855C75.7967 4.84098 78.8025 7.26136 78.7826 9.77273Z" fill="#6EA1FF"/>
<path d="M77.4563 16.7239C77.4563 14.3217 79.6513 12.884 82.1231 13.6484C84.2389 14.3217 85.7221 16.4509 85.4848 18.5073C85.2276 20.7093 83.1118 21.9104 80.8179 21.1461C78.8603 20.4909 77.4563 18.6529 77.4563 16.7239Z" fill="#6EA1FF"/>
<path d="M92.3461 26.5518C92.3262 26.8247 92.3461 27.0795 92.2866 27.3161C92.01 28.5536 91.456 29.6091 90.0325 30.0094C88.6482 30.3916 87.442 29.9548 86.4928 29.0085C85.0098 27.5527 84.4758 25.8238 85.1086 23.913C85.8403 21.7292 88.2726 21.0376 90.2299 22.4571C91.674 23.5126 92.3064 24.9139 92.3461 26.5518Z" fill="#6EA1FF"/>
<path d="M44.3731 23.076C45.5002 22.5482 46.5681 21.9113 47.9325 21.9295C48.4862 21.9477 48.6444 22.0569 48.4664 22.5482C48.2687 23.0942 48.1105 23.6401 48.0116 24.2043C47.9325 24.6956 47.6754 24.7684 47.2206 24.641C47.1217 24.6046 47.0031 24.6046 46.9042 24.5864C45.8957 24.4955 44.8081 24.4591 43.9578 24.9322C43.3053 25.2962 43.4436 26.2243 43.2459 26.9158C42.9098 28.0623 42.6131 29.227 42.3362 30.3917C42.2571 30.7557 42.0792 30.8831 41.6837 30.8649C40.952 30.8467 40.2204 30.8467 39.4888 30.8649C39.0142 30.8831 38.9548 30.7193 39.0537 30.3371C39.7656 27.6984 40.438 25.0778 41.13 22.439C41.2289 22.0387 41.4266 21.9113 41.8617 21.9295C42.4944 21.9659 43.1075 21.9659 43.7403 21.9295C44.3731 21.8931 44.6697 22.0205 44.3928 22.6574C44.3137 22.7848 44.2742 22.9486 44.3731 23.076C44.3533 23.0942 44.3137 23.1124 44.294 23.1124C44.3137 23.1124 44.3335 23.1306 44.3335 23.1306C44.3533 23.1124 44.3533 23.0942 44.3731 23.076Z" fill="#9028B3"/>
<path d="M83.1113 8.2616C80.9164 8.24341 78.583 6.18699 78.484 4.16697C78.4049 2.63831 79.6508 1.6192 81.2921 1.87398C83.4277 2.20155 85.3063 3.91219 85.5238 5.78663C85.7216 7.29709 84.7724 8.2798 83.1113 8.2616Z" fill="#6EA1FF"/>
<path d="M91.5377 13.5213C91.5576 15.3593 90.0152 16.3602 88.1366 15.7597C86.3568 15.1773 84.9133 13.3393 84.9133 11.6287C84.9133 9.77243 86.4953 8.77152 88.4134 9.42666C90.154 10.009 91.5179 11.8106 91.5377 13.5213Z" fill="#6EA1FF"/>
<path d="M97.4882 20.8367C97.4288 21.9104 97.2108 22.8385 96.1432 23.3117C95.0558 23.803 94.0666 23.4391 93.2171 22.7657C91.7729 21.6192 91.1009 20.1452 91.3576 18.3799C91.5954 16.7785 93.1576 15.9959 94.7198 16.7239C96.5585 17.5974 97.3099 19.1079 97.4882 20.8367Z" fill="#6EA1FF"/>
<path d="M49.0019 30.8824C47.3804 30.8824 47.3804 30.8824 47.7759 29.3719C48.3691 27.0789 49.0019 24.7859 49.5556 22.4929C49.6743 22.0562 49.872 21.9288 50.3269 21.947C51.0388 21.9652 51.7308 21.9652 52.4427 21.947C52.858 21.9288 52.9766 22.0744 52.8778 22.4383C52.1659 25.1317 51.454 27.8432 50.7619 30.5548C50.6828 30.846 50.5246 30.9006 50.2478 30.9006C49.8127 30.8642 49.3974 30.8824 49.0019 30.8824Z" fill="#9028B3"/>
</svg>
