<svg width="117" height="44" viewBox="0 0 117 44" fill="none" xmlns="http://www.w3.org/2000/svg">
<mask id="mask0_118_108" style="mask-type:luminance" maskUnits="userSpaceOnUse" x="0" y="0" width="108" height="26">
<path d="M107.669 0.297699H0V25.4406H107.669V0.297699Z" fill="white"/>
</mask>
<g mask="url(#mask0_118_108)">
<path d="M38.0022 14.7805L37.3604 16.7686H37.307C37.2 16.3204 37.0039 15.6382 36.683 14.8195L33.2426 5.36662H29.8735V20.4328H32.1017V11.1358C32.1017 10.5511 32.1017 9.88846 32.084 9.06983C32.0661 8.66053 32.0304 8.34868 32.0126 8.11479H32.0661C32.173 8.69951 32.2979 9.1283 32.387 9.40119L36.5226 20.3939H38.0913L42.1912 9.30372C42.2804 9.05035 42.3695 8.54358 42.4587 8.11479H42.5121C42.4587 9.22576 42.423 10.2197 42.4052 10.824V20.3743H44.776V5.32764H41.5318L38.0022 14.7805ZM47.0221 9.57655H49.3395V20.3743H47.0221V9.57655ZM48.1987 5.01579C47.8065 5.01579 47.4856 5.17172 47.2182 5.44458C46.9508 5.71745 46.8082 6.06828 46.8082 6.49708C46.8082 6.90638 46.9508 7.25721 47.2182 7.53008C47.4856 7.80294 47.8065 7.93938 48.1987 7.93938C48.5908 7.93938 48.9295 7.78345 49.1791 7.53008C49.4464 7.25721 49.589 6.90638 49.589 6.49708C49.589 6.08777 49.4464 5.73694 49.1791 5.44458C48.9473 5.17172 48.6086 5.01579 48.1987 5.01579ZM57.5573 9.4791C57.1295 9.38168 56.6838 9.32321 56.256 9.32321C55.2043 9.32321 54.2416 9.57655 53.4394 10.0834C52.6373 10.5901 51.9956 11.2917 51.5855 12.1688C51.1577 13.0654 50.9438 14.0984 50.9438 15.2874C50.9438 16.3204 51.1577 17.2364 51.5678 18.0744C51.9778 18.8931 52.5482 19.5558 53.3147 20.0041C54.0456 20.4524 54.9012 20.6863 55.8638 20.6863C56.969 20.6863 57.9138 20.4328 58.6625 19.9651L58.6803 19.9456V17.6067L58.5911 17.6846C58.2525 17.9575 57.8603 18.1914 57.4681 18.3279C57.0582 18.4838 56.6838 18.5617 56.363 18.5617C55.436 18.5617 54.7051 18.2694 54.1882 17.6262C53.6533 17.0025 53.386 16.1449 53.386 15.0729C53.386 13.962 53.6533 13.0849 54.206 12.4417C54.7586 11.7986 55.4895 11.4672 56.3807 11.4672C57.1295 11.4672 57.896 11.74 58.5911 12.2858L58.6803 12.3637V9.88846L58.6625 9.86892C58.3595 9.73256 58.0207 9.57655 57.5573 9.4791ZM65.2046 9.40119C64.6342 9.40119 64.0994 9.5961 63.6359 10.0054C63.2437 10.3562 62.9763 10.863 62.7446 11.4672H62.7268V9.57655H60.4094V20.3743H62.7268V14.8585C62.7268 13.923 62.905 13.1434 63.2973 12.5781C63.6894 11.9935 64.1885 11.7011 64.7946 11.7011C65.0085 11.7011 65.2225 11.7596 65.4898 11.7986C65.7394 11.8765 65.9176 11.9545 66.0424 12.0519L66.1316 12.1298V9.5961L66.0781 9.57655C65.9176 9.45965 65.5968 9.40119 65.2046 9.40119ZM71.515 9.3427C69.8929 9.3427 68.5916 9.86892 67.6825 10.9019C66.7555 11.9349 66.3099 13.3577 66.3099 15.1509C66.3099 16.8271 66.7733 18.1914 67.6646 19.1854C68.5559 20.16 69.7681 20.6667 71.2833 20.6667C72.8698 20.6667 74.1354 20.1405 75.0446 19.088C75.9715 18.0355 76.4172 16.6322 76.4172 14.8975C76.4172 13.1824 75.9893 11.818 75.1159 10.824C74.278 9.83001 73.0481 9.3427 71.515 9.3427ZM73.3689 17.6457C72.9411 18.2499 72.2638 18.5423 71.4259 18.5423C70.5881 18.5423 69.9106 18.2499 69.4294 17.6067C68.9481 17.0025 68.7163 16.1255 68.7163 15.0145C68.7163 13.8645 68.9659 12.9875 69.4294 12.3637C69.9106 11.74 70.5702 11.4282 71.4081 11.4282C72.2281 11.4282 72.8698 11.7206 73.3333 12.3247C73.7967 12.929 74.0463 13.8061 74.0463 14.956C74.0106 16.1255 73.8146 17.0414 73.3689 17.6457ZM81.5867 14.0595C80.8559 13.7281 80.3923 13.4747 80.1784 13.2603C80.0002 13.0654 79.9111 12.7925 79.9111 12.4417C79.9111 12.1494 80.018 11.857 80.2854 11.6621C80.5528 11.4672 80.8559 11.3697 81.3014 11.3697C81.6937 11.3697 82.1036 11.4476 82.4959 11.5646C82.888 11.6816 83.2445 11.857 83.5297 12.0909L83.6189 12.1688V9.79101L83.5654 9.77146C83.298 9.65455 82.9415 9.53765 82.5137 9.44019C82.0858 9.36219 81.6937 9.32321 81.3728 9.32321C80.2676 9.32321 79.3585 9.61555 78.6454 10.2587C77.9323 10.863 77.5937 11.6816 77.5937 12.6366C77.5937 13.1434 77.665 13.5916 77.8254 13.962C77.9859 14.3323 78.2175 14.6831 78.5385 14.9755C78.8593 15.2484 79.3228 15.5602 79.9645 15.8525C80.4994 16.1059 80.9093 16.3008 81.1588 16.4567C81.4084 16.6127 81.5689 16.7881 81.6937 16.9245C81.7828 17.0804 81.8363 17.2754 81.8363 17.5287C81.8363 18.2499 81.3372 18.6007 80.3211 18.6007C79.9289 18.6007 79.5189 18.5228 79.0376 18.3474C78.5563 18.1719 78.1106 17.9185 77.7363 17.6262L77.6471 17.5483V20.0235L77.7007 20.0431C78.0393 20.2184 78.4493 20.3354 78.9484 20.4718C79.4476 20.5693 79.8932 20.6473 80.2854 20.6473C81.4798 20.6473 82.4602 20.3549 83.1554 19.7117C83.8685 19.088 84.2424 18.2889 84.2424 17.2559C84.2424 16.5347 84.0646 15.8915 83.6723 15.4043C83.1554 14.9365 82.5136 14.4493 81.5867 14.0595ZM90.3567 9.3427C88.7352 9.3427 87.4333 9.86892 86.5249 10.9019C85.6156 11.9349 85.1517 13.3577 85.1517 15.1509C85.1517 16.8271 85.6156 18.1914 86.5064 19.1854C87.3981 20.16 88.6102 20.6667 90.1252 20.6667C91.7122 20.6667 92.9772 20.1405 93.8865 19.088C94.8134 18.0355 95.2588 16.6322 95.2588 14.8975C95.2588 13.1824 94.831 11.818 93.9578 10.824C93.1198 9.83001 91.8901 9.3427 90.3567 9.3427ZM92.1929 17.6457C91.7651 18.2499 91.0881 18.5423 90.2501 18.5423C89.3945 18.5423 88.7352 18.2499 88.2537 17.6067C87.7722 17.0025 87.5407 16.1255 87.5407 15.0145C87.5407 13.8645 87.7898 12.9875 88.2537 12.3637C88.7352 11.74 89.3945 11.4282 90.2325 11.4282C91.0345 11.4282 91.6938 11.7206 92.1577 12.3247C92.6207 12.929 92.8707 13.8061 92.8707 14.956C92.8707 16.1255 92.6391 17.0414 92.1929 17.6457ZM107.648 11.6621V9.57655H105.313V6.38013L105.242 6.39963L103.031 7.12078L102.978 7.14027V9.57655H99.484V8.21225C99.484 7.58855 99.6267 7.10129 99.8758 6.78943C100.126 6.47759 100.5 6.32166 100.964 6.32166C101.284 6.32166 101.623 6.39963 101.997 6.57503L102.087 6.63351V4.43107L102.033 4.41158C101.712 4.29464 101.284 4.21667 100.731 4.21667C100.037 4.21667 99.4304 4.39209 98.8776 4.68445C98.3256 5.01579 97.9154 5.46407 97.6126 6.06828C97.3089 6.653 97.1487 7.31568 97.1487 8.07581V9.57655H95.5264V11.6425H97.1487V20.3743H99.484V11.6621H102.978V17.2169C102.978 19.4973 103.958 20.6473 105.92 20.6473C106.24 20.6473 106.579 20.5888 106.899 20.5303C107.238 20.4524 107.488 20.3549 107.631 20.2769L107.648 20.2574V18.1719L107.56 18.2499C107.417 18.3474 107.292 18.4254 107.078 18.4838C106.899 18.5423 106.739 18.5617 106.614 18.5617C106.151 18.5617 105.83 18.4448 105.598 18.1524C105.384 17.8795 105.277 17.4313 105.277 16.7686V11.6621H107.648Z" fill="white"/>
<path d="M0 0.297699H10.9273V12.2454H0V0.297699Z" fill="#F1511B"/>
<path d="M12.0681 0.297699H22.9955V12.2454H12.0681V0.297699Z" fill="#80CC28"/>
<path d="M0 13.4931H10.9273V25.4408H0V13.4931Z" fill="#00ADEF"/>
<path d="M12.0681 13.4931H22.9955V25.4408H12.0681V13.4931Z" fill="#FBBC09"/>
</g>
</svg>
