<svg width="118" height="149" viewBox="0 0 118 149" fill="none" xmlns="http://www.w3.org/2000/svg">
<path d="M55.5625 0.00280342C56.5707 0.00965156 57.579 0.0164997 58.6177 0.0235554C66.4587 0.191983 73.0336 1.19982 80.25 4.4403C81.0505 4.79093 81.8511 5.14155 82.6758 5.5028C96.3023 12.2807 103.159 23.1944 108.598 36.8153C111.888 46.8155 112.04 57.0082 112.25 67.4403C112.889 67.729 113.529 68.0178 114.188 68.3153C116.25 69.4403 116.25 69.4403 117.25 71.4403C117.402 74.1832 117.481 76.8838 117.5 79.6278C117.521 80.3709 117.541 81.1141 117.563 81.8798C117.608 88.3634 115.928 92.9816 112.234 98.3934C109.993 101.834 108.773 105.327 107.5 109.19C104.928 116.456 101.605 121.82 96.25 127.44C95.5372 128.219 94.8243 128.997 94.0899 129.8C84.2949 140.096 73.7796 147.362 59.2735 147.733C46.6322 147.847 36.8792 144.485 27.4141 135.745C26.257 134.577 25.1176 133.392 23.9961 132.19C22.296 130.396 22.296 130.396 20.2852 129.003C13.4077 123.934 11.0435 117.139 8.03617 109.422C6.91717 106.601 5.66537 103.84 4.43754 101.065C1.42647 93.7654 -0.385427 86.3837 0.250041 78.4403C0.578833 77.8401 0.907624 77.2399 1.24638 76.6215C2.54953 73.7895 2.52254 71.5294 2.55863 68.4169C2.59271 66.6479 2.59271 66.6479 2.62748 64.8431C2.6473 63.5964 2.66712 62.3498 2.68754 61.0653C3.17042 43.6705 4.59078 26.1674 18 13.4403C29.2639 4.25854 41.084 -0.148798 55.5625 0.00280342Z" fill="#D4A788"/>
<path d="M55.5625 0.00280342C56.5707 0.00965156 57.579 0.0164997 58.6177 0.0235554C66.4587 0.191983 73.0336 1.19982 80.25 4.4403C81.0505 4.79093 81.8511 5.14155 82.6758 5.5028C96.3023 12.2807 103.159 23.1944 108.598 36.8153C111.888 46.8155 112.04 57.0082 112.25 67.4403C112.889 67.729 113.529 68.0178 114.188 68.3153C116.25 69.4403 116.25 69.4403 117.25 71.4403C117.402 74.1832 117.481 76.8838 117.5 79.6278C117.521 80.3709 117.541 81.1141 117.563 81.8798C117.608 88.3634 115.928 92.9816 112.234 98.3934C109.993 101.834 108.773 105.327 107.5 109.19C104.928 116.456 101.605 121.82 96.25 127.44C95.5372 128.219 94.8243 128.997 94.0899 129.8C84.2949 140.096 73.7796 147.362 59.2735 147.733C46.6322 147.847 36.8792 144.485 27.4141 135.745C26.257 134.577 25.1176 133.392 23.9961 132.19C22.296 130.396 22.296 130.396 20.2852 129.003C13.4077 123.934 11.0435 117.139 8.03617 109.422C6.91717 106.601 5.66537 103.84 4.43754 101.065C1.42647 93.7654 -0.385427 86.3837 0.250041 78.4403C0.578833 77.8401 0.907624 77.2399 1.24638 76.6215C2.54953 73.7895 2.52254 71.5294 2.55863 68.4169C2.59271 66.6479 2.59271 66.6479 2.62748 64.8431C2.6473 63.5964 2.66712 62.3498 2.68754 61.0653C3.17042 43.6705 4.59078 26.1674 18 13.4403C29.2639 4.25854 41.084 -0.148798 55.5625 0.00280342ZM69.356 31.5033C57.7438 31.7777 46.2359 32.6318 34.6875 33.8778C32.9652 34.0611 32.9652 34.0611 31.208 34.2482C23.5424 35.0652 23.5424 35.0652 16.25 37.4403C15.92 38.1003 15.59 38.7603 15.25 39.4403C14.26 39.7703 13.27 40.1003 12.25 40.4403C12.25 41.1003 12.25 41.7603 12.25 42.4403C11.26 42.7703 10.27 43.1003 9.25004 43.4403C9.05314 45.794 8.86733 48.1478 8.68754 50.5028C8.58313 51.8138 8.47871 53.1248 8.37113 54.4755C8.25238 58.3636 8.58138 61.6314 9.25004 65.4403C9.91004 65.4403 10.57 65.4403 11.25 65.4403C11.745 62.4703 11.745 62.4703 12.25 59.4403C15.5834 59.4109 18.9166 59.3934 22.25 59.3778C23.1846 59.3694 24.1192 59.361 25.0821 59.3524C30.5728 59.3332 35.8187 59.6269 41.25 60.4403C41.25 61.1003 41.25 61.7603 41.25 62.4403C41.91 62.7703 42.57 63.1003 43.25 63.4403C41.27 64.4303 39.29 65.4203 37.25 66.4403C37.25 67.1003 37.25 67.7603 37.25 68.4403C35.27 68.9353 35.27 68.9353 33.25 69.4403C33.25 70.1003 33.25 70.7603 33.25 71.4403C36.9568 73.423 40.1461 74.6423 44.25 75.4403C44.91 76.1003 45.57 76.7603 46.25 77.4403C48.3886 75.3018 48.6766 74.3075 49.25 71.4403C49.3944 72.0384 49.5388 72.6366 49.6875 73.2528C50.1373 75.0018 50.679 76.7271 51.25 78.4403C53.23 77.9453 53.23 77.9453 55.25 77.4403C55.25 78.1003 55.25 78.7603 55.25 79.4403C53.93 79.4403 52.61 79.4403 51.25 79.4403C51.25 82.0803 51.25 84.7203 51.25 87.4403C50.59 87.4403 49.93 87.4403 49.25 87.4403C49.4975 89.3894 49.4975 89.3894 49.75 91.3778C50.2172 95.4785 50.3039 99.4702 50.1875 103.593C50.1248 105.537 50.1248 105.537 51.25 107.44C54.88 107.44 58.51 107.44 62.25 107.44C62.91 106.12 63.57 104.8 64.25 103.44C64.25 105.42 64.25 107.4 64.25 109.44C62.27 109.935 62.27 109.935 60.25 110.44C60.25 111.1 60.25 111.76 60.25 112.44C58.1244 112.327 55.9995 112.199 53.875 112.065C52.6917 111.996 51.5083 111.926 50.2891 111.854C47.25 111.44 47.25 111.44 45.25 109.44C44.8524 107.452 44.5123 105.451 44.25 103.44C43.59 103.44 42.93 103.44 42.25 103.44C42.25 102.78 42.25 102.12 42.25 101.44C43.24 101.44 44.23 101.44 45.25 101.44C45.58 99.1303 45.91 96.8203 46.25 94.4403C46.91 94.4403 47.57 94.4403 48.25 94.4403C47.92 92.7903 47.59 91.1403 47.25 89.4403C46.26 89.1103 45.27 88.7803 44.25 88.4403C43.5722 86.1102 42.9059 83.7767 42.25 81.4403C41.26 80.7803 40.27 80.1203 39.25 79.4403C36.2368 80.9469 35.6395 83.472 34.25 86.4403C31.375 86.5653 31.375 86.5653 28.25 86.4403C26.1115 84.3018 25.8235 83.3075 25.25 80.4403C26.57 80.4403 27.89 80.4403 29.25 80.4403C29.25 79.4503 29.25 78.4603 29.25 77.4403C26.775 77.9353 26.775 77.9353 24.25 78.4403C24.25 81.0803 24.25 83.7203 24.25 86.4403C23.25 85.4403 23.25 85.4403 23.125 82.0028C23.25 78.4403 23.25 78.4403 24.25 76.4403C20.4639 76.9812 18.696 78.5575 16.25 81.4403C16.25 82.1003 16.25 82.7603 16.25 83.4403C15.26 83.9353 15.26 83.9353 14.25 84.4403C14.58 85.2614 14.91 86.0826 15.25 86.9286C16.3869 90.9211 16.4012 94.5281 16.25 98.6278C15.9291 104.316 15.9291 104.316 18.25 109.44C18.9878 112.75 19.5855 116.07 20.1758 119.409C21.4987 123.142 22.8066 123.689 26.25 125.44C26.91 126.43 27.57 127.42 28.25 128.44C29.2194 128.729 30.1888 129.018 31.1875 129.315C34.9316 130.691 35.3176 132.103 37.25 135.44C38.57 135.44 39.89 135.44 41.25 135.44C41.25 136.1 41.25 136.76 41.25 137.44C43.9958 139.671 43.9958 139.671 46.75 139.44C49.25 139.44 49.25 139.44 52.25 141.44C61.4363 142.246 69.2169 139.859 76.375 134.057C76.9938 133.524 77.6125 132.99 78.25 132.44C78.8688 131.907 79.4875 131.373 80.125 130.823C81.3016 129.804 82.4738 128.779 83.6407 127.749C85.25 126.44 85.25 126.44 88.1875 124.815C88.8682 124.362 89.5488 123.908 90.25 123.44C90.25 122.12 90.25 120.8 90.25 119.44C90.8688 119.152 91.4875 118.863 92.125 118.565C94.3833 117.503 94.3833 117.503 96.25 115.44C96.25 114.45 96.25 113.46 96.25 112.44C96.91 112.44 97.57 112.44 98.25 112.44C103.823 102.468 104.393 92.6637 103.25 81.4403C102.92 80.4503 102.59 79.4603 102.25 78.4403C102.051 76.6311 101.888 74.8177 101.75 73.0028C101.459 69.0957 101.459 69.0957 100.629 65.284C100.25 63.4403 100.25 63.4403 101.688 60.3778C105.303 52.5272 103.364 44.5288 100.516 36.7528C99.0529 34.0801 97.8244 33.0437 95.25 31.4403C93.0241 31.0152 93.0241 31.0152 90.6368 31.1122C89.7309 31.1164 88.825 31.1207 87.8916 31.1251C86.9168 31.1466 85.9419 31.1681 84.9375 31.1903C83.915 31.2034 82.8924 31.2166 81.8389 31.2301C77.6772 31.2955 73.5171 31.4127 69.356 31.5033Z" fill="#CA9A7C"/>
<path d="M75.4765 31.317C78.6093 31.2051 81.7409 31.1301 84.875 31.0655C85.84 31.0274 86.805 30.9893 87.7993 30.9501C92.3795 30.895 94.5236 30.8984 98.2851 33.7062C102.839 40.0439 103.583 46.3732 103.648 54.0577C103.25 56.4405 103.25 56.4405 102.016 58.3116C100.25 59.4405 100.25 59.4405 98.1484 59.296C97.3157 59.0756 96.4829 58.8552 95.625 58.628C90.4808 57.5208 85.6138 57.2024 80.375 57.1905C79.6497 57.1818 78.9245 57.173 78.1772 57.1639C74.0953 57.1852 70.9209 57.6267 67.25 59.4405C67.8776 62.3693 68.8362 64.8015 70.25 67.4405C71.24 67.4405 72.23 67.4405 73.25 67.4405C73.25 68.4305 73.25 69.4205 73.25 70.4405C71.5247 71.1567 69.7995 71.8728 68.0742 72.589C65.9846 73.5086 65.9846 73.5086 63.25 75.4405C63.745 79.8955 63.745 79.8955 64.25 84.4405C65.24 84.1105 66.23 83.7805 67.25 83.4405C67.91 86.4105 68.57 89.3805 69.25 92.4405C68.26 92.4405 67.27 92.4405 66.25 92.4405C65.92 93.4305 65.59 94.4205 65.25 95.4405C65.91 95.4405 66.57 95.4405 67.25 95.4405C68.1794 108.315 68.1794 108.315 64.875 112.316C60.2186 113.761 56.0819 113.784 51.25 113.441C51.25 113.111 51.25 112.781 51.25 112.441C54.22 112.441 57.19 112.441 60.25 112.441C60.25 111.781 60.25 111.121 60.25 110.441C62.23 109.946 62.23 109.946 64.25 109.441C64.25 107.461 64.25 105.481 64.25 103.441C63.59 104.761 62.93 106.081 62.25 107.441C58.62 107.441 54.99 107.441 51.25 107.441C49.4571 103.855 50.2405 99.645 50.3125 95.7023C50.2567 92.7917 49.9275 90.2617 49.25 87.4405C49.91 87.4405 50.57 87.4405 51.25 87.4405C51.25 84.8005 51.25 82.1605 51.25 79.4405C52.57 79.4405 53.89 79.4405 55.25 79.4405C55.25 78.7805 55.25 78.1205 55.25 77.4405C52.775 77.9355 52.775 77.9355 50.25 78.4405C50.2706 77.4712 50.2912 76.5018 50.3125 75.503C50.6062 72.5659 50.6062 72.5659 49.25 71.4405C48.8169 72.6471 48.8169 72.6471 48.375 73.878C47.25 76.4405 47.25 76.4405 45.25 77.4405C44.92 76.7805 44.59 76.1205 44.25 75.4405C42.2038 74.5681 42.2038 74.5681 39.8125 73.878C35.3766 72.5038 35.3766 72.5038 33.25 71.4405C33.25 70.7805 33.25 70.1205 33.25 69.4405C35.23 68.9455 35.23 68.9455 37.25 68.4405C37.25 67.7805 37.25 67.1205 37.25 66.4405C39.23 65.4505 41.21 64.4605 43.25 63.4405C42.59 63.1105 41.93 62.7805 41.25 62.4405C41.25 61.7805 41.25 61.1205 41.25 60.4405C34.8754 59.4859 28.6894 59.3203 22.25 59.378C20.8017 59.3848 20.8017 59.3848 19.3242 59.3917C16.9661 59.4034 14.6081 59.4198 12.25 59.4405C11.92 61.4205 11.59 63.4005 11.25 65.4405C10.59 65.4405 9.92998 65.4405 9.24998 65.4405C7.91287 58.0122 8.56657 50.9265 9.24998 43.4405C10.24 43.1105 11.23 42.7805 12.25 42.4405C12.25 41.7805 12.25 41.1205 12.25 40.4405C12.8894 40.1518 13.5287 39.863 14.1875 39.5655C16.402 38.6123 16.402 38.6123 17.25 36.4405C19.332 35.954 19.332 35.954 22.0625 35.6241C23.5533 35.4375 23.5533 35.4375 25.0742 35.2472C26.1222 35.1254 27.1702 35.0036 28.25 34.878C29.267 34.7524 30.2841 34.6267 31.332 34.4972C34.3034 34.1329 37.2763 33.7852 40.25 33.4405C41.4302 33.2959 41.4302 33.2959 42.6343 33.1483C53.5354 31.8488 64.5166 31.7366 75.4765 31.317Z" fill="#D4A789"/>
<path d="M55.5625 0.00280342C56.5707 0.00965156 57.5789 0.0164997 58.6177 0.0235554C66.4587 0.191983 73.0335 1.19982 80.25 4.4403C81.0505 4.79093 81.851 5.14155 82.6758 5.5028C96.3022 12.2807 103.159 23.1944 108.598 36.8153C111.888 46.8155 112.04 57.0082 112.25 67.4403C112.889 67.729 113.529 68.0178 114.188 68.3153C116.25 69.4403 116.25 69.4403 117.25 71.4403C117.402 74.1832 117.481 76.8838 117.5 79.6278C117.521 80.3709 117.541 81.1141 117.562 81.8798C117.599 87.1481 116.62 90.7317 114.25 95.4403C113.047 91.8315 113.883 89.8003 114.77 86.202C115.676 80.9906 115.397 75.7113 115.25 70.4403C113.27 70.4403 111.29 70.4403 109.25 70.4403C109.129 69.6694 109.008 68.8986 108.883 68.1044C108.715 67.1015 108.548 66.0986 108.375 65.0653C108.213 64.0676 108.05 63.0698 107.883 62.0419C107.454 59.2978 107.454 59.2978 105.25 57.4403C104.612 55.5485 104.612 55.5485 104.066 53.2645C103.861 52.4363 103.655 51.6081 103.443 50.7548C103.026 49.0154 102.609 47.2758 102.193 45.536C101.082 41.0662 100.059 37.1935 97.25 33.4403C94.8881 32.2593 93.4655 32.3112 90.832 32.3075C89.9182 32.3055 89.0045 32.3035 88.063 32.3014C87.0728 32.306 86.0827 32.3106 85.0625 32.3153C83.5347 32.3193 83.5347 32.3193 81.9761 32.3234C74.6027 32.368 67.2417 32.5647 59.875 32.8778C58.9441 32.917 58.0131 32.9561 57.054 32.9965C52.9403 33.1904 48.8665 33.4559 44.7773 33.9481C38.6519 34.6772 32.4959 34.785 26.334 34.9579C20.6989 35.1657 15.62 35.6544 10.25 37.4403C8.63342 40.1208 8.63342 40.1208 8.25 43.4403C8.085 44.3762 7.92 45.312 7.75 46.2762C6.90219 52.2663 6.88065 58.3395 6.6875 64.3778C6.62272 66.2621 6.62272 66.2621 6.55664 68.1844C6.45106 71.2696 6.34895 74.3549 6.25 77.4403C4.93 77.1103 3.61 76.7803 2.25 76.4403C2.32011 72.4237 2.40862 68.4079 2.51245 64.392C2.56111 62.3731 2.59618 60.354 2.63086 58.3348C3.07331 42.0042 5.60973 25.2002 18 13.4403C29.2639 4.25854 41.084 -0.148798 55.5625 0.00280342Z" fill="#3A3734"/>
<path d="M103.25 49.4404C104.773 52.3776 106.051 55.3573 107.25 58.4404C107.58 58.4404 107.91 58.4404 108.25 58.4404C109.232 62.4932 109.332 66.279 109.25 70.4404C111.23 70.4404 113.21 70.4404 115.25 70.4404C118.97 77.8814 115.529 88.9899 113.25 96.4404C112.383 98.4747 111.418 100.365 110.336 102.292C108.943 105.049 108.013 107.899 107 110.815C104.483 117.461 101.049 122.252 96.25 127.44C95.5359 128.223 94.8217 129.005 94.0859 129.812C84.2731 140.092 73.7856 147.362 59.2734 147.733C46.6321 147.847 36.8792 144.485 27.4141 135.745C26.257 134.578 25.1176 133.392 23.9961 132.19C22.2959 130.396 22.2959 130.396 20.2852 129.003C12.4504 123.228 8.41479 113.33 6.55859 103.944C6.40584 102.705 6.40584 102.705 6.25 101.44C9.28569 103.953 10.0442 106.393 11.125 110.128C12.7736 115.333 14.6117 120.277 18.25 124.44C19.24 124.77 20.23 125.1 21.25 125.44C21.58 126.1 21.91 126.76 22.25 127.44C23.8772 128.356 25.5062 129.268 27.1445 130.163C30.3622 132.115 33.221 134.483 36.1367 136.854C42.8811 141.916 49.7498 141.812 57.875 140.69C68.3462 138.862 75.5455 134.177 83.3203 127.026C85.25 125.44 85.25 125.44 87.4648 124.347C88.0539 124.048 88.643 123.749 89.25 123.44C89.3944 122.822 89.5387 122.203 89.6875 121.565C90.5195 118.422 92.7397 117.386 95.25 115.44C95.745 113.955 95.745 113.955 96.25 112.44C96.91 112.44 97.57 112.44 98.25 112.44C98.3831 111.855 98.5162 111.27 98.6533 110.668C99.25 108.44 99.25 108.44 100.797 104.804C102.607 100.052 102.626 95.6613 102.5 90.6279C102.492 89.3605 102.492 89.3605 102.484 88.0674C102.44 84.545 102.373 81.8103 101.25 78.4404C101.051 76.6312 100.888 74.8178 100.75 73.0029C100.461 69.1037 100.461 69.1037 99.6328 65.2998C99.0703 62.5677 100.327 60.7575 101.48 58.3232C102.657 55.4436 102.936 52.5154 103.25 49.4404Z" fill="#855F44"/>
<path d="M6.25 50.4404C6.58 50.4404 6.91 50.4404 7.25 50.4404C7.28738 51.54 7.32477 52.6396 7.36328 53.7725C7.42903 55.266 7.49548 56.7595 7.5625 58.2529C7.58506 58.9716 7.60762 59.6902 7.63086 60.4307C7.8411 64.7692 8.50908 68.5628 9.78125 72.7217C11.5776 78.905 11.5903 84.7301 11.4375 91.1279C11.424 92.223 11.4104 93.318 11.3965 94.4463C11.3616 97.1115 11.3125 99.7757 11.25 102.44C11.25 96.7923 11.4561 91.1481 11.625 85.5029C11.6714 83.5703 11.6714 83.5703 11.7188 81.5986C11.7574 80.3618 11.7961 79.1249 11.8359 77.8506C11.8674 76.7176 11.8988 75.5846 11.9312 74.4172C12.236 71.5713 12.7762 69.8602 14.25 67.4404C15.24 68.1004 16.23 68.7604 17.25 69.4404C16.26 71.0904 15.27 72.7404 14.25 74.4404C15.9 74.7704 17.55 75.1004 19.25 75.4404C18.7756 75.9973 18.3013 76.5542 17.8125 77.1279C16.0465 79.7416 15.4743 81.2999 15.25 84.4404C15.5761 85.3157 15.9023 86.191 16.2383 87.0928C17.4251 91.0197 17.3992 94.5801 17.25 98.6279C16.9291 104.317 16.9291 104.317 19.25 109.44C19.697 111.656 20.0646 113.889 20.375 116.128C20.5426 117.307 20.7102 118.487 20.8828 119.702C21.004 120.606 21.1252 121.509 21.25 122.44C21.8739 122.576 22.4978 122.711 23.1406 122.851C25.6352 123.548 26.6456 124.435 28.25 126.44C28.25 127.1 28.25 127.76 28.25 128.44C29.6422 128.533 29.6422 128.533 31.0625 128.628C34.25 129.44 34.25 129.44 35.875 131.94C36.5556 133.178 36.5556 133.178 37.25 134.44C39.3353 135.319 39.3353 135.319 41.25 135.44C41.25 136.1 41.25 136.76 41.25 137.44C44.22 137.77 47.19 138.1 50.25 138.44C50.25 139.1 50.25 139.76 50.25 140.44C51.24 140.935 51.24 140.935 52.25 141.44C47.9268 142.776 44.4309 141.94 40.25 140.44C35.625 137.784 31.5503 134.362 27.3984 131.026C25.4099 129.558 23.4924 128.465 21.25 127.44C21.25 126.78 21.25 126.12 21.25 125.44C20.6403 125.341 20.0305 125.242 19.4023 125.14C16.0798 124.06 15.2632 122.015 13.5391 119.101C11.4362 114.761 10.0076 110.205 8.55859 105.612C7.47298 102.4 7.47298 102.4 5.20703 100.413C0.779932 95.9506 0.103512 87.386 0 81.2529C0.25 78.4404 0.25 78.4404 1.25 76.4404C2.9 76.7704 4.55 77.1004 6.25 77.4404C6.25 68.5304 6.25 59.6204 6.25 50.4404Z" fill="#91674A"/>
<path d="M80.625 56.128C81.7194 56.1038 81.7194 56.1038 82.8359 56.0791C88.0277 56.0745 91.6063 57.1187 96.25 59.4405C96.25 60.4305 96.25 61.4205 96.25 62.4405C92.29 62.4405 88.33 62.4405 84.25 62.4405C84.25 63.1005 84.25 63.7605 84.25 64.4405C82.6 64.4405 80.95 64.4405 79.25 64.4405C79.25 65.1005 79.25 65.7605 79.25 66.4405C78.26 67.1005 77.27 67.7605 76.25 68.4405C77.5358 68.4443 77.5358 68.4443 78.8476 68.4483C89.3494 68.8035 89.3494 68.8035 93.5625 72.503C94.4493 73.4723 95.3362 74.4417 96.25 75.4405C95.92 76.1005 95.59 76.7605 95.25 77.4405C94.6312 76.9455 94.0125 76.4505 93.375 75.9405C91.4111 74.2482 91.4111 74.2482 89.25 74.4405C89.5593 76.0492 89.5593 76.0492 89.875 77.6905C90.25 81.4405 90.25 81.4405 89.8125 83.753C87.2298 86.5423 83.8812 87.0085 80.25 87.4405C76.875 87.253 76.875 87.253 74.25 86.4405C72.1249 83.2528 71.7479 81.1753 71.25 77.4405C70.9122 77.9458 70.5745 78.4511 70.2265 78.9717C69.7805 79.6214 69.3345 80.2711 68.875 80.9405C68.4341 81.5902 67.9932 82.2398 67.539 82.9092C67.1136 83.4145 66.6882 83.9198 66.25 84.4405C65.59 84.4405 64.93 84.4405 64.25 84.4405C62.6464 80.9327 62.0296 78.2969 62.25 74.4405C63.5833 73.7738 64.9166 73.1071 66.25 72.4405C66.9306 72.0692 67.6112 71.698 68.3125 71.3155C70.25 70.4405 70.25 70.4405 73.25 70.4405C73.25 69.4505 73.25 68.4605 73.25 67.4405C72.26 67.4405 71.27 67.4405 70.25 67.4405C66.2794 63.4699 66.2794 63.4699 66.1875 60.253C69.0463 55.3761 75.6208 56.1061 80.625 56.128Z" fill="#B28B71"/>
<path d="M103.25 49.4404C103.58 49.4404 103.91 49.4404 104.25 49.4404C104.449 51.1033 104.449 51.1033 104.652 52.7998C104.831 54.2634 105.009 55.7269 105.188 57.1904C105.318 58.2848 105.318 58.2848 105.451 59.4014C105.943 63.4892 105.943 63.4892 106.775 67.5166C109.606 78.9856 107.767 96.612 103.25 107.44C103.012 108.158 102.773 108.876 102.527 109.616C101.144 113.752 99.856 116.736 96.25 119.44C95.26 119.44 94.27 119.44 93.25 119.44C93.0012 120.169 92.7524 120.897 92.4961 121.647C91.1367 124.694 89.5544 126.669 87.3125 129.128C86.6229 129.895 85.9332 130.662 85.2227 131.452C83.25 133.44 83.25 133.44 80.25 135.44C79.26 135.44 78.27 135.44 77.25 135.44C77.085 136.224 76.92 137.008 76.75 137.815C75.25 140.44 75.25 140.44 72.0625 141.753C65.5937 143.037 58.816 142.594 52.25 142.44C55.5823 140.601 58.3847 140.183 62.168 139.776C70.656 138.407 77.2099 132.646 83.3203 127.026C85.25 125.44 85.25 125.44 87.4648 124.347C88.0539 124.048 88.643 123.749 89.25 123.44C89.3944 122.822 89.5387 122.203 89.6875 121.565C90.5195 118.422 92.7397 117.386 95.25 115.44C95.745 113.955 95.745 113.955 96.25 112.44C96.91 112.44 97.57 112.44 98.25 112.44C98.4496 111.563 98.4496 111.563 98.6533 110.668C99.25 108.44 99.25 108.44 100.797 104.804C102.607 100.052 102.626 95.6613 102.5 90.6279C102.492 89.3605 102.492 89.3605 102.484 88.0674C102.44 84.545 102.373 81.8103 101.25 78.4404C101.051 76.6312 100.888 74.8178 100.75 73.0029C100.461 69.1037 100.461 69.1037 99.6328 65.2998C99.0703 62.5677 100.327 60.7575 101.48 58.3232C102.657 55.4436 102.936 52.5154 103.25 49.4404Z" fill="#A97958"/>
<path d="M25.5625 34.3779C26.8168 34.3869 28.071 34.3959 29.3633 34.4052C30.3159 34.4168 31.2685 34.4284 32.25 34.4404C32.25 34.7704 32.25 35.1004 32.25 35.4404C27.3 36.1004 22.35 36.7604 17.25 37.4404C17.58 38.1004 17.91 38.7604 18.25 39.4404C16.27 39.7704 14.29 40.1004 12.25 40.4404C12.25 41.1004 12.25 41.7604 12.25 42.4404C11.59 43.1004 10.93 43.7604 10.25 44.4404C9.78139 47.5542 9.78139 47.5542 9.625 51.1279C9.55023 52.328 9.47547 53.5281 9.39844 54.7646C9.25454 58.3281 9.22253 61.8745 9.25 65.4404C9.91 65.4404 10.57 65.4404 11.25 65.4404C11.58 63.4604 11.91 61.4804 12.25 59.4404C16.5376 58.406 20.7356 58.2232 25.125 58.1904C25.8069 58.1698 26.4888 58.1491 27.1914 58.1279C32.2559 58.0893 35.7135 59.1899 40.25 61.4404C39.92 62.7604 39.59 64.0804 39.25 65.4404C37.948 65.4056 36.6461 65.3708 35.3047 65.3349C33.5781 65.3068 31.8516 65.2795 30.125 65.2529C28.8411 65.2152 28.8411 65.2152 27.5312 65.1767C20.3838 65.0877 20.3838 65.0877 14.25 68.4404C13.3189 71.416 13.311 74.34 13.25 77.4404C13.135 79.3403 13.0177 81.24 12.8984 83.1396C12.8041 85.1356 12.713 87.1317 12.625 89.1279C12.5734 90.134 12.5219 91.1401 12.4688 92.1767C12.2487 97.0862 12.1471 101.609 13.25 106.44C10.4354 103.279 9.90266 101.386 10.0625 97.1865C10.0857 96.1662 10.1089 95.1459 10.1328 94.0947C10.2099 91.9775 10.288 89.8603 10.3672 87.7431C10.5104 81.3886 9.80023 76.2866 7.94434 70.2243C6.69893 65.2309 6.81709 60.2466 6.875 55.1279C6.8634 54.0831 6.8518 53.0383 6.83984 51.9619C6.86096 46.4256 6.98246 42.1423 10.25 37.4404C15.2026 34.1387 19.7065 34.3232 25.5625 34.3779Z" fill="#AB7D5B"/>
<path d="M6.25 101.44C9.28569 103.953 10.0442 106.393 11.125 110.128C12.7736 115.333 14.6117 120.277 18.25 124.44C19.24 124.77 20.23 125.1 21.25 125.44C21.58 126.1 21.91 126.76 22.25 127.44C23.8772 128.356 25.5062 129.268 27.1445 130.163C30.3622 132.115 33.221 134.483 36.1367 136.854C45.0838 143.569 59.3451 142.355 69.918 141.132C72.2817 140.709 72.2817 140.709 75.25 139.44C76.3584 137.557 76.3584 137.557 77.25 135.44C78.9292 134.519 80.6101 133.599 82.3047 132.706C87.1564 129.55 90.8604 124.663 93.25 119.44C93.91 119.44 94.57 119.44 95.25 119.44C95.25 120.43 95.25 121.42 95.25 122.44C94.59 122.44 93.93 122.44 93.25 122.44C92.1521 124.49 91.2905 126.117 91 128.44C89.8149 131.601 87.0078 132.62 84.25 134.44C83.2313 136.096 82.2319 137.763 81.25 139.44C74.3621 146.496 66.2953 147.737 56.75 147.878C44.4067 147.791 34.3727 142.767 25.6875 134.003C25.1293 133.405 24.5712 132.807 23.9961 132.19C22.2959 130.396 22.2959 130.396 20.2852 129.003C12.4504 123.228 8.41479 113.33 6.55859 103.944C6.45676 103.118 6.35492 102.292 6.25 101.44Z" fill="#9E704F"/>
<path d="M101.25 23.4404C103.753 26.5054 105.304 29.5387 106.812 33.1904C107.226 34.1753 107.64 35.1601 108.066 36.1748C110.729 43.5214 111.604 50.1816 111.875 57.9404C111.933 59.3171 111.933 59.3171 111.992 60.7217C112.085 62.9611 112.171 65.2005 112.25 67.4404C112.889 67.7292 113.529 68.0179 114.188 68.3154C116.25 69.4404 116.25 69.4404 117.25 71.4404C117.402 74.1834 117.481 76.8839 117.5 79.6279C117.521 80.3711 117.541 81.1142 117.562 81.8799C117.599 87.1482 116.62 90.7319 114.25 95.4404C113.047 91.8316 113.883 89.8004 114.77 86.2021C115.676 80.9907 115.397 75.7114 115.25 70.4404C113.27 70.4404 111.29 70.4404 109.25 70.4404C109.129 69.6696 109.008 68.8987 108.883 68.1045C108.715 67.1016 108.548 66.0987 108.375 65.0654C108.131 63.5688 108.131 63.5688 107.883 62.042C107.454 59.2979 107.454 59.2979 105.25 57.4404C104.612 55.5486 104.612 55.5486 104.066 53.2646C103.861 52.4364 103.655 51.6082 103.443 50.7549C103.026 49.0155 102.609 47.276 102.193 45.5361C100.145 37.2907 100.145 37.2907 94.25 31.4404C91.6611 31.1405 89.1585 30.9318 86.5625 30.8154C85.5097 30.7574 85.5097 30.7574 84.4355 30.6982C82.7075 30.6042 80.9788 30.5212 79.25 30.4404C79.25 30.1104 79.25 29.7804 79.25 29.4404C85.9815 27.6472 90.6023 27.2245 97.25 29.4404C97.25 28.4504 97.25 27.4604 97.25 26.4404C98.57 26.7704 99.89 27.1004 101.25 27.4404C101.25 26.1204 101.25 24.8004 101.25 23.4404Z" fill="#1C1614"/>
<path d="M96.25 57.4404C97.9 58.1004 99.55 58.7604 101.25 59.4404C101.064 60.3892 100.879 61.3379 100.688 62.3154C99.9631 65.3391 99.9631 65.3391 101.25 67.4404C101.454 69.2491 101.615 71.0628 101.75 72.8779C101.983 76.0035 102.255 78.4547 103.25 81.4404C104.393 92.6638 103.823 102.468 98.25 112.44C97.59 112.44 96.93 112.44 96.25 112.44C96.1469 113.059 96.0438 113.678 95.9375 114.315C95.25 116.44 95.25 116.44 92.25 118.44C92.8782 112.912 92.8782 112.912 94.875 110.378C95.3288 109.739 95.7825 109.099 96.25 108.44C96.0438 107.636 95.8375 106.832 95.625 106.003C95.5012 105.157 95.3775 104.312 95.25 103.44C97.625 100.69 97.625 100.69 100.25 98.4404C101.852 96.8384 101.42 95.1534 101.438 92.9404C101.401 87.8949 100.564 83.2973 99.25 78.4404C98.2909 78.2509 98.2909 78.2509 97.3125 78.0576C96.6319 77.8539 95.9513 77.6503 95.25 77.4404C94.5485 76.1251 93.8847 74.7893 93.25 73.4404C89.9039 70.1979 87.0601 69.9809 82.5 69.7529C81.3295 69.6872 80.1591 69.6214 78.9531 69.5537C78.0611 69.5163 77.1691 69.4789 76.25 69.4404C76.25 68.4504 76.25 67.4604 76.25 66.4404C77.24 66.4404 78.23 66.4404 79.25 66.4404C79.25 65.7804 79.25 65.1204 79.25 64.4404C80.9 64.4404 82.55 64.4404 84.25 64.4404C84.25 63.7804 84.25 63.1204 84.25 62.4404C88.21 62.4404 92.17 62.4404 96.25 62.4404C95.92 61.1204 95.59 59.8004 95.25 58.4404C95.58 58.1104 95.91 57.7804 96.25 57.4404Z" fill="#B88869"/>
<path d="M76.25 114.44C76.745 115.925 76.745 115.925 77.25 117.44C74.3208 123.299 70.7777 126.113 64.8672 128.651C59.4412 130.287 53.6138 130.228 48.25 128.44C48.25 127.78 48.25 127.12 48.25 126.44C47.1363 126.193 46.0225 125.945 44.875 125.69C41.25 124.44 41.25 124.44 39.8125 122.315C39.6269 121.697 39.4412 121.078 39.25 120.44C38.59 120.44 37.93 120.44 37.25 120.44C37.25 119.45 37.25 118.46 37.25 117.44C37.8629 117.492 38.4759 117.543 39.1074 117.596C52.2745 118.625 63.6707 118.694 76.25 114.44Z" fill="#B6856A"/>
<path d="M78.25 30.4406C78.25 30.7706 78.25 31.1006 78.25 31.4406C72.5061 32.6148 66.777 32.7386 60.9375 32.9406C54.7623 33.1567 48.6693 33.464 42.5349 34.2087C37.1586 34.7544 31.7334 34.8067 26.334 34.9582C20.6989 35.166 15.62 35.6547 10.25 37.4406C8.63342 40.1211 8.63342 40.1211 8.25 43.4406C8.085 44.3765 7.92 45.3123 7.75 46.2765C6.90219 52.2666 6.88065 58.3399 6.6875 64.3781C6.62272 66.2624 6.62272 66.2624 6.55664 68.1848C6.45106 71.2699 6.34895 74.3552 6.25 77.4406C4.93 77.1106 3.61 76.7806 2.25 76.4406C2.32011 72.424 2.40862 68.4082 2.51245 64.3923C2.56111 62.3734 2.59618 60.3543 2.63086 58.3351C2.87498 49.325 4.04634 41.1718 6.25 32.4406C6.58 33.1006 6.91 33.7606 7.25 34.4406C8.14139 34.2415 8.14139 34.2415 9.05078 34.0383C9.87965 33.8617 10.7085 33.6851 11.5625 33.5031C12.363 33.3291 13.1635 33.1551 13.9883 32.9758C22.7297 31.5415 31.5975 31.2075 40.4375 30.8781C41.5472 30.8357 42.6569 30.7932 43.8003 30.7495C55.2837 30.346 66.7613 30.3388 78.25 30.4406Z" fill="#2E1F14"/>
<path d="M93.25 72.4406C95.0625 74.0656 95.0625 74.0656 96.25 75.4406C95.92 76.1006 95.59 76.7606 95.25 77.4406C94.6313 76.9456 94.0125 76.4506 93.375 75.9406C91.4112 74.2484 91.4112 74.2484 89.25 74.4406C89.4562 75.5131 89.6625 76.5856 89.875 77.6906C90.25 81.4406 90.25 81.4406 89.8125 83.7531C87.2298 86.5424 83.8813 87.0086 80.25 87.4406C76.875 87.2531 76.875 87.2531 74.25 86.4406C72.1249 83.253 71.748 81.1755 71.25 77.4406C69.93 78.7606 68.61 80.0806 67.25 81.4406C68.6451 77.0015 70.727 74.4603 74.25 71.4406C80.087 69.4621 87.8541 69.3339 93.25 72.4406Z" fill="#776A5B"/>
<path d="M14.25 67.4404C15.24 68.1004 16.23 68.7604 17.25 69.4404C15.765 71.9154 15.765 71.9154 14.25 74.4404C15.9 74.7704 17.55 75.1004 19.25 75.4404C18.5384 76.2757 18.5384 76.2757 17.8125 77.1279C16.0465 79.7416 15.4743 81.2999 15.25 84.4404C15.5761 85.3157 15.9023 86.191 16.2383 87.0928C17.4251 91.0197 17.3992 94.5801 17.25 98.6279C16.9291 104.317 16.9291 104.317 19.25 109.44C19.6641 111.921 19.6641 111.921 19.875 114.628C19.9498 115.529 20.0245 116.43 20.1016 117.358C20.1505 118.045 20.1995 118.733 20.25 119.44C12.84 112.225 11.431 106.133 11.1543 95.9014C11.2037 92.2422 11.3335 88.5961 11.5 84.9404C11.54 83.6926 11.5799 82.4448 11.6211 81.1592C12.0196 71.1645 12.0196 71.1645 14.25 67.4404Z" fill="#B88B6B"/>
<path d="M35.3242 74.194C38.74 76.02 41.0447 77.6903 42.25 81.44C41.59 81.11 40.93 80.78 40.25 80.44C39.8865 80.9454 39.523 81.4507 39.1484 81.9713C35.0359 87.2859 35.0359 87.2859 31.0625 88.065C28.0418 87.3938 26.9152 87.0304 25.25 84.44C25.25 83.12 25.25 81.8 25.25 80.44C26.57 80.44 27.89 80.44 29.25 80.44C29.25 79.45 29.25 78.46 29.25 77.44C27.93 77.77 26.61 78.1 25.25 78.44C25.25 81.41 25.25 84.38 25.25 87.44C24.59 87.44 23.93 87.44 23.25 87.44C21.7717 84.4834 22.1897 81.6978 22.25 78.44C19.1168 78.44 17.5698 80.4865 15.25 82.44C15.5853 79.3102 16.2507 78.4394 18.625 76.2525C23.5799 72.8313 29.6208 72.1209 35.3242 74.194Z" fill="#443323"/>
<path d="M102.25 100.44C103.567 104.063 102.933 106.113 101.5 109.628C100.982 110.949 100.982 110.949 100.453 112.296C99.25 114.44 99.25 114.44 96.25 115.44C96.25 114.45 96.25 113.46 96.25 112.44C96.91 112.44 97.57 112.44 98.25 112.44C98.3828 111.868 98.5155 111.296 98.6523 110.706C99.2438 108.464 99.9829 106.355 100.812 104.19C101.082 103.484 101.351 102.778 101.629 102.05C101.834 101.519 102.039 100.988 102.25 100.44ZM95.25 115.44C95.745 116.43 95.745 116.43 96.25 117.44C95.92 118.1 95.59 118.76 95.25 119.44C94.59 119.44 93.93 119.44 93.25 119.44C93.0012 120.169 92.7524 120.897 92.4961 121.647C91.1367 124.694 89.5544 126.669 87.3125 129.128C86.6229 129.895 85.9332 130.662 85.2227 131.452C83.25 133.44 83.25 133.44 80.25 135.44C79.26 135.44 78.27 135.44 77.25 135.44C77.085 136.224 76.92 137.008 76.75 137.815C75.25 140.44 75.25 140.44 72.0625 141.753C65.5937 143.037 58.816 142.594 52.25 142.44C55.5823 140.601 58.3847 140.183 62.168 139.776C70.656 138.407 77.2099 132.646 83.3203 127.026C85.25 125.44 85.25 125.44 87.4648 124.347C88.0539 124.048 88.643 123.749 89.25 123.44C89.3944 122.822 89.5387 122.203 89.6875 121.565C90.5263 118.397 92.6645 117.297 95.25 115.44Z" fill="#B28262"/>
<path d="M47.25 95.4404C48.57 95.7704 49.89 96.1004 51.25 96.4404C51.25 100.07 51.25 103.7 51.25 107.44C56.695 106.945 56.695 106.945 62.25 106.44C62.91 104.79 63.57 103.14 64.25 101.44C64.58 101.44 64.91 101.44 65.25 101.44C65.6167 106.94 65.6167 106.94 63.875 109.315C62.25 110.44 62.25 110.44 60.25 110.44C60.25 111.1 60.25 111.76 60.25 112.44C58.1465 112.521 56.042 112.58 53.9375 112.628C52.7657 112.663 51.594 112.698 50.3867 112.733C47.25 112.44 47.25 112.44 45.3438 111.128C43.706 108.601 44.0546 106.371 44.25 103.44C43.59 103.44 42.93 103.44 42.25 103.44C42.25 102.78 42.25 102.12 42.25 101.44C43.24 101.44 44.23 101.44 45.25 101.44C45.3944 100.636 45.5387 99.8317 45.6875 99.0029C46.25 96.4404 46.25 96.4404 47.25 95.4404Z" fill="#BB8E6C"/>
<path d="M84.25 62.4404C86.2291 62.4136 88.2083 62.3941 90.1875 62.3779C91.2896 62.3663 92.3918 62.3547 93.5273 62.3428C96.25 62.4404 96.25 62.4404 97.25 63.4404C97.4829 65.1223 97.6626 66.8117 97.8125 68.5029C97.9382 69.8816 97.9382 69.8816 98.0664 71.2881C98.127 71.9984 98.1876 72.7086 98.25 73.4404C96.5625 74.1904 96.5625 74.1904 94.25 74.4404C93.483 73.8165 92.716 73.1926 91.9258 72.5498C88.6136 69.9387 86.6037 69.8588 82.4375 69.6904C81.2761 69.6337 80.1146 69.577 78.918 69.5186C77.5973 69.4799 77.5973 69.4799 76.25 69.4404C76.25 68.4504 76.25 67.4604 76.25 66.4404C77.24 66.4404 78.23 66.4404 79.25 66.4404C79.25 65.7804 79.25 65.1204 79.25 64.4404C80.9 64.4404 82.55 64.4404 84.25 64.4404C84.25 63.7804 84.25 63.1204 84.25 62.4404Z" fill="#CC9F7E"/>
<path d="M40.25 61.4409C39.92 62.7609 39.59 64.0809 39.25 65.4409C37.3145 65.4235 37.3145 65.4235 35.3398 65.4057C33.6224 65.3963 31.9049 65.3872 30.1875 65.3784C29.3399 65.37 28.4924 65.3616 27.6191 65.353C22.7138 65.3341 18.0856 65.6076 13.25 66.4409C13.25 65.4509 13.25 64.4609 13.25 63.4409C22.4596 57.9506 30.3642 56.3928 40.25 61.4409Z" fill="#5A4436"/>
<path d="M16.25 115.44C17.9588 117.064 19.6245 118.734 21.25 120.44C21.25 121.1 21.25 121.76 21.25 122.44C21.8481 122.544 22.4463 122.647 23.0625 122.753C25.5626 123.539 26.6254 124.41 28.25 126.44C28.25 127.1 28.25 127.76 28.25 128.44C29.1781 128.502 30.1062 128.564 31.0625 128.628C34.25 129.44 34.25 129.44 35.875 131.94C36.3288 132.765 36.7825 133.59 37.25 134.44C39.3353 135.319 39.3353 135.319 41.25 135.44C41.25 136.1 41.25 136.76 41.25 137.44C44.22 137.77 47.19 138.1 50.25 138.44C50.25 139.1 50.25 139.76 50.25 140.44C50.91 140.77 51.57 141.1 52.25 141.44C47.9268 142.776 44.4309 141.94 40.25 140.44C35.625 137.784 31.5503 134.362 27.3984 131.026C25.3286 129.394 25.3286 129.394 23.0781 128.401C19.3333 126.433 18.3937 121.849 17.0625 118.065C16.6603 116.766 16.6603 116.766 16.25 115.44Z" fill="#A87A59"/>
<path d="M80.6875 56.0654C81.7751 56.048 81.7751 56.048 82.8848 56.0303C88.0387 56.0581 91.6389 57.144 96.25 59.4404C96.25 60.4304 96.25 61.4204 96.25 62.4404C94.5794 62.1929 94.5794 62.1929 92.875 61.9404C85.5817 61.0482 79.2075 60.8516 72.25 63.4404C69.375 63.5654 69.375 63.5654 67.25 63.4404C66.92 62.1204 66.59 60.8004 66.25 59.4404C71.2543 56.4521 75.0329 55.9754 80.6875 56.0654Z" fill="#533E30"/>
<path d="M71.25 76.4404C71.58 76.4404 71.91 76.4404 72.25 76.4404C72.3944 77.5336 72.5387 78.6267 72.6875 79.7529C73.1329 83.3717 73.1329 83.3717 74.25 86.4404C74.91 86.4404 75.57 86.4404 76.25 86.4404C75.92 87.4304 75.59 88.4204 75.25 89.4404C74.59 89.4404 73.93 89.4404 73.25 89.4404C73.0985 93.0693 73.0985 93.0693 74.25 96.4404C73.59 96.4404 72.93 96.4404 72.25 96.4404C71.92 98.0904 71.59 99.7404 71.25 101.44C69.93 101.44 68.61 101.44 67.25 101.44C67.25 99.4604 67.25 97.4804 67.25 95.4404C66.59 95.4404 65.93 95.4404 65.25 95.4404C65.58 94.1204 65.91 92.8004 66.25 91.4404C67.24 91.7704 68.23 92.1004 69.25 92.4404C68.7241 91.1411 68.7241 91.1411 68.1875 89.8154C67.1561 86.1025 67.2096 84.1218 68.25 80.4404C69.75 78.0654 69.75 78.0654 71.25 76.4404Z" fill="#DDB195"/>
<path d="M6.25 101.44C9.28569 103.953 10.0442 106.393 11.125 110.128C12.7736 115.333 14.6117 120.277 18.25 124.44C19.24 124.77 20.23 125.1 21.25 125.44C21.58 126.1 21.91 126.76 22.25 127.44C23.8554 128.329 25.4609 129.217 27.0664 130.104C38.4097 137.044 38.4097 137.044 40.0391 141.69C40.1435 142.557 40.1435 142.557 40.25 143.44C35.6848 142.18 32.922 140.633 29.5 137.378C26.9347 134.94 24.4273 132.578 21.6289 130.409C12.6124 123.273 7.68459 112.829 6.25 101.44Z" fill="#503727"/>
<path d="M74.25 117.441C67.9755 121.923 63.105 123.724 55.375 123.566C54.2226 123.548 53.0702 123.53 51.8828 123.511C51.014 123.488 50.1452 123.465 49.25 123.441C49.25 122.781 49.25 122.121 49.25 121.441C48.0125 121.317 46.775 121.193 45.5 121.066C42.3738 120.683 39.9612 120.135 37.25 118.441C40.1836 117.463 41.568 117.396 44.5664 117.632C45.4088 117.691 46.2512 117.749 47.1191 117.81C48.4524 117.906 48.4524 117.906 49.8125 118.003C56.2608 118.413 62.1016 118.661 68.375 116.816C70.6169 116.367 72.0945 116.748 74.25 117.441Z" fill="#986650"/>
<path d="M101.25 31.4401C101.58 33.4201 101.91 35.4001 102.25 37.4401C103.24 37.1101 104.23 36.7801 105.25 36.4401C108.983 45.2037 108.956 54.0521 109.25 63.4401C106.887 60.5841 105.687 58.2089 104.75 54.6315C104.502 53.7195 104.255 52.8075 104 51.8679C103.752 50.9223 103.505 49.9768 103.25 49.0026C100.871 39.4029 100.871 39.4029 95.25 31.4401C97.7409 30.1947 98.6608 30.6634 101.25 31.4401Z" fill="#473629"/>
<path d="M7.25 37.4404C8.24 37.7704 9.23 38.1004 10.25 38.4404C9.94063 39.1211 9.63125 39.8017 9.3125 40.5029C6.56497 48.099 6.94274 56.3985 6.6875 64.3779C6.62272 66.2622 6.62272 66.2622 6.55664 68.1846C6.45106 71.2698 6.34895 74.355 6.25 77.4404C4.93 77.1104 3.61 76.7804 2.25 76.4404C2.58 66.8704 2.91 57.3004 3.25 47.4404C3.91 47.4404 4.57 47.4404 5.25 47.4404C5.91 44.1404 6.57 40.8404 7.25 37.4404Z" fill="#4E3A2A"/>
<path d="M78.25 142.44C77.0249 143.094 75.7947 143.738 74.5625 144.378C73.878 144.737 73.1935 145.097 72.4883 145.468C64.4515 148.96 51.4401 149.087 43.1875 145.94C42.2181 145.445 41.2487 144.95 40.25 144.44C40.25 144.11 40.25 143.78 40.25 143.44C41.2087 143.456 41.2087 143.456 42.1868 143.472C45.1453 143.514 48.1038 143.54 51.0625 143.565C52.5697 143.59 52.5697 143.59 54.1074 143.616C60.2544 143.656 65.881 143.137 71.8816 141.776C74.3447 141.427 75.9079 141.666 78.25 142.44Z" fill="#583E2E"/>
<path d="M25.5625 34.3779C26.8168 34.3869 28.071 34.3959 29.3633 34.4052C30.3159 34.4168 31.2685 34.4284 32.25 34.4404C32.25 34.7704 32.25 35.1004 32.25 35.4404C27.3 36.1004 22.35 36.7604 17.25 37.4404C17.58 38.1004 17.91 38.7604 18.25 39.4404C16.27 39.7704 14.29 40.1004 12.25 40.4404C12.25 41.1004 12.25 41.7604 12.25 42.4404C11.59 43.1004 10.93 43.7604 10.25 44.4404C8.99955 53.0047 9.1076 61.8016 9.25 70.4404C6.15913 65.8041 6.92141 61.0807 6.9375 55.6279C6.91333 54.0066 6.91333 54.0066 6.88867 52.3525C6.88244 42.2117 6.88244 42.2117 10.25 37.4404C15.2026 34.1387 19.7065 34.3232 25.5625 34.3779Z" fill="#9C755A"/>
<path d="M48.25 70.4404C49.24 71.1004 50.23 71.7604 51.25 72.4404C51.4375 75.0654 51.4375 75.0654 51.25 77.4404C52.57 77.4404 53.89 77.4404 55.25 77.4404C55.25 78.1004 55.25 78.7604 55.25 79.4404C53.93 79.4404 52.61 79.4404 51.25 79.4404C51.25 82.0804 51.25 84.7204 51.25 87.4404C50.59 87.4404 49.93 87.4404 49.25 87.4404C49.6006 88.3892 49.9512 89.3379 50.3125 90.3154C51.25 93.4404 51.25 93.4404 50.25 95.4404C48.1875 96.0654 48.1875 96.0654 46.25 96.4404C46.25 95.7804 46.25 95.1204 46.25 94.4404C46.91 94.4404 47.57 94.4404 48.25 94.4404C46.6699 92.2857 45.1435 90.334 43.25 88.4404C43.625 86.3154 43.625 86.3154 44.25 84.4404C45.24 84.7704 46.23 85.1004 47.25 85.4404C47.1069 84.5703 47.1069 84.5703 46.9609 83.6826C46.2509 78.6795 46.1752 75.2002 48.25 70.4404Z" fill="#C39676"/>
<path d="M88.25 73.4404C91.229 73.7625 92.8104 73.9844 94.9258 76.1787C97.243 80.1364 96.1802 84.1113 95.25 88.4404C93.8125 91.5654 93.8125 91.5654 92.25 93.4404C91.59 93.4404 90.93 93.4404 90.25 93.4404C90.1262 92.8011 90.0025 92.1617 89.875 91.5029C89.6688 90.8223 89.4625 90.1417 89.25 89.4404C88.59 89.1104 87.93 88.7804 87.25 88.4404C87.6006 87.4504 87.9512 86.4604 88.3125 85.4404C89.5593 81.1768 89.0111 77.7788 88.25 73.4404Z" fill="#D9B092"/>
<path d="M101.25 23.4404C103.572 26.2906 105.291 28.8671 106.25 32.4404C105.375 35.2529 105.375 35.2529 104.25 37.4404C103.59 37.4404 102.93 37.4404 102.25 37.4404C101.786 36.2648 101.786 36.2648 101.312 35.0654C100.321 32.5171 100.321 32.5171 99.25 30.4404C98.5861 30.6145 97.9223 30.7885 97.2383 30.9678C93.574 31.5473 90.1099 31.3087 86.4375 31.0029C85.3982 30.9246 85.3982 30.9246 84.3379 30.8447C82.6415 30.716 80.9457 30.5791 79.25 30.4404C79.25 30.1104 79.25 29.7804 79.25 29.4404C85.9815 27.6472 90.6023 27.2245 97.25 29.4404C97.25 28.4504 97.25 27.4604 97.25 26.4404C98.57 26.7704 99.89 27.1004 101.25 27.4404C101.25 26.1204 101.25 24.8004 101.25 23.4404Z" fill="#29211C"/>
<path d="M79.25 73.4404C82.1875 73.8154 82.1875 73.8154 85.25 74.4404C86.6313 77.2029 86.4408 79.3877 86.25 82.4404C84.25 84.4404 84.25 84.4404 80.75 84.7529C79.0175 84.5982 79.0175 84.5982 77.25 84.4404C75.25 81.4404 75.25 81.4404 75.25 78.4404C76.24 78.1104 77.23 77.7804 78.25 77.4404C78.9832 75.4253 78.9832 75.4253 79.25 73.4404Z" fill="#0B0503"/>
<path d="M29.25 76.4404C31.625 76.7529 31.625 76.7529 34.25 77.4404C36.3992 80.6642 36.6329 81.7075 36.25 85.4404C34.25 87.4404 34.25 87.4404 31.3125 87.7529C28.25 87.4404 28.25 87.4404 26.375 86.1904C25.25 84.4404 25.25 84.4404 25.25 80.4404C26.57 80.4404 27.89 80.4404 29.25 80.4404C29.25 79.1204 29.25 77.8004 29.25 76.4404Z" fill="#0B0604"/>
<path d="M2.25 76.4404C6.08593 78.1279 6.08593 78.1279 7.5625 80.9404C8.339 84.8936 8.05209 88.0612 7.54296 92.0264C7.201 94.8442 7.17538 97.605 7.25 100.44C3.84832 97.8119 2.83606 94.5496 2.25 90.4404C2.09154 85.7685 2.13334 81.113 2.25 76.4404Z" fill="#9A6C4B"/>
<path d="M78.25 70.4404C77.3586 70.831 77.3586 70.831 76.4492 71.2295C74.1089 72.5181 72.784 73.7885 71.0625 75.8154C70.5533 76.4007 70.0441 76.9859 69.5195 77.5889C68.1232 79.3804 68.1232 79.3804 67.7617 81.6045C67.5928 82.2103 67.4239 82.8162 67.25 83.4404C66.26 83.7704 65.27 84.1004 64.25 84.4404C62.6464 80.9327 62.0296 78.2969 62.25 74.4404C63.5833 73.7738 64.9166 73.1071 66.25 72.4404C66.8275 72.0692 67.405 71.6979 68 71.3154C71.4369 69.9788 74.5785 70.318 78.25 70.4404Z" fill="#AE8365"/>
<path d="M46.25 101.44C46.5387 102.059 46.8275 102.678 47.125 103.315C48.1872 105.574 48.1872 105.574 50.25 107.44C52.3575 107.721 52.3575 107.721 54.6875 107.628C55.47 107.621 56.2524 107.615 57.0586 107.608C59.428 107.516 59.428 107.516 62.25 106.44C63.4687 103.936 63.4687 103.936 64.25 101.44C64.58 101.44 64.91 101.44 65.25 101.44C65.6167 106.94 65.6167 106.94 63.875 109.315C62.25 110.44 62.25 110.44 60.25 110.44C60.25 111.1 60.25 111.76 60.25 112.44C55.9883 112.691 52.2764 112.776 48.1875 111.44C45.9038 109.083 45.9599 108.422 45.9375 105.253C46.0406 103.995 46.1437 102.737 46.25 101.44Z" fill="#956747"/>
<path d="M44.25 74.4402C44.58 75.4302 44.91 76.4202 45.25 77.4402C45.91 77.4402 46.57 77.4402 47.25 77.4402C47.25 80.0802 47.25 82.7202 47.25 85.4402C45.4375 85.3152 45.4375 85.3152 43.25 84.4402C42.8169 83.5121 42.3837 82.584 41.9375 81.6277C39.8472 77.6794 37.3086 76.019 33.25 74.4402C30.8809 73.8928 28.6845 73.6389 26.25 73.4402C26.25 73.1102 26.25 72.7802 26.25 72.4402C32.572 70.8948 38.2699 71.833 44.25 74.4402Z" fill="#AB8063"/>
<path d="M25.25 77.4404C26.57 77.4404 27.89 77.4404 29.25 77.4404C29.25 78.4304 29.25 79.4204 29.25 80.4404C27.93 80.4404 26.61 80.4404 25.25 80.4404C26.3378 83.6903 26.3378 83.6903 28.25 86.4404C30.2495 86.4812 32.2504 86.483 34.25 86.4404C34.6831 85.4711 35.1162 84.5017 35.5625 83.5029C37.25 80.4404 37.25 80.4404 40.25 79.4404C40.4645 82.5875 40.5853 84.7884 39.125 87.6279C37.25 89.4404 37.25 89.4404 34.332 89.8311C33.253 89.7846 32.1741 89.7382 31.0625 89.6904C29.9758 89.6543 28.8891 89.6182 27.7695 89.5811C26.5223 89.5114 26.5223 89.5114 25.25 89.4404C23.9555 85.5569 24.1179 82.5335 24.25 78.4404C24.58 78.1104 24.91 77.7804 25.25 77.4404Z" fill="#8D7863"/>
<path d="M93.25 72.4406C95.0625 74.0656 95.0625 74.0656 96.25 75.4406C95.92 76.1006 95.59 76.7606 95.25 77.4406C94.5075 76.7806 93.765 76.1206 93 75.4406C88.9237 72.7133 84.7229 72.9136 79.957 72.8117C77.0514 73.1785 77.0514 73.1785 75.5117 75.7882C75.0954 76.6635 74.679 77.5388 74.25 78.4406C73.26 79.9256 73.26 79.9256 72.25 81.4406C71.92 80.1206 71.59 78.8006 71.25 77.4406C69.93 78.7606 68.61 80.0806 67.25 81.4406C68.6451 77.0015 70.727 74.4603 74.25 71.4406C80.087 69.4621 87.8541 69.3339 93.25 72.4406Z" fill="#341E13"/>
<path d="M104.25 60.4404C104.58 60.4404 104.91 60.4404 105.25 60.4404C108.637 72.9305 107.167 85.684 106.25 98.4404C105.92 98.4404 105.59 98.4404 105.25 98.4404C104.962 94.4571 104.677 90.4736 104.395 86.4897C104.253 84.4771 104.107 82.4646 103.961 80.4521C103.023 67.1184 103.023 67.1184 103.25 61.4404C103.58 61.1104 103.91 60.7804 104.25 60.4404Z" fill="#9C6F4E"/>
<path d="M98.25 120.44C99.24 120.77 100.23 121.1 101.25 121.44C84.8069 140.465 84.8069 140.465 78.25 141.44C79.5833 139.774 80.9167 138.107 82.25 136.44C82.91 135.533 83.57 134.625 84.25 133.69C86.4044 131.267 87.2193 131.067 90.25 130.44C90.58 129.45 90.91 128.46 91.25 127.44C91.91 127.44 92.57 127.44 93.25 127.44C93.25 126.78 93.25 126.12 93.25 125.44C94.24 125.44 95.23 125.44 96.25 125.44C96.25 124.45 96.25 123.46 96.25 122.44C96.91 122.44 97.57 122.44 98.25 122.44C98.25 121.78 98.25 121.12 98.25 120.44Z" fill="#5B422F"/>
<path d="M100.25 98.4404C101.367 100.112 101.367 100.112 102.25 102.44C101.57 105.019 101.57 105.019 100.375 107.69C99.9857 108.582 99.5964 109.474 99.1953 110.394C98.8834 111.069 98.5714 111.744 98.25 112.44C97.59 112.44 96.93 112.44 96.25 112.44C96.1469 113.059 96.0438 113.678 95.9375 114.315C95.25 116.44 95.25 116.44 92.25 118.44C92.8782 112.912 92.8782 112.912 94.875 110.378C95.5556 109.419 95.5556 109.419 96.25 108.44C96.0438 107.636 95.8375 106.832 95.625 106.003C95.5012 105.157 95.3775 104.312 95.25 103.44C97.6875 100.628 97.6875 100.628 100.25 98.4404Z" fill="#BB8C6B"/>
<path d="M39.25 60.4404C39.91 60.4404 40.57 60.4404 41.25 60.4404C41.25 61.1004 41.25 61.7604 41.25 62.4404C42.24 62.7704 43.23 63.1004 44.25 63.4404C40.625 66.4404 40.625 66.4404 37.25 66.4404C37.25 67.1004 37.25 67.7604 37.25 68.4404C32.7446 69.6919 32.7446 69.6919 30.4062 68.5029C27.8671 67.2518 25.8122 67.0374 23 66.8154C22.108 66.7407 21.2159 66.6659 20.2969 66.5889C19.2837 66.5154 19.2837 66.5154 18.25 66.4404C20.25 64.4404 20.25 64.4404 22.2212 64.2134C23.0067 64.2239 23.7922 64.2343 24.6016 64.2451C25.4523 64.2516 26.3031 64.258 27.1797 64.2646C28.5139 64.2898 28.5139 64.2898 29.875 64.3154C31.2208 64.329 31.2208 64.329 32.5938 64.3428C34.8128 64.3664 37.0313 64.3993 39.25 64.4404C39.25 63.1204 39.25 61.8004 39.25 60.4404Z" fill="#B28B6F"/>
<path d="M26.25 59.4404C28.0205 59.3863 29.7915 59.3476 31.5625 59.3154C32.5486 59.2922 33.5348 59.269 34.5508 59.2451C37.25 59.4404 37.25 59.4404 40.25 61.4404C39.92 62.7604 39.59 64.0804 39.25 65.4404C34.2791 65.0289 29.8049 64.6444 25.25 62.4404C25.58 61.4504 25.91 60.4604 26.25 59.4404Z" fill="#463429"/>
<path d="M62.25 96.4404C66.125 98.3154 66.125 98.3154 67.25 99.4404C67.7395 102.842 67.7953 106.045 67.25 109.44C64.5334 112.443 62.6513 113.319 58.625 113.667C56.1508 113.688 53.7174 113.616 51.25 113.44C51.25 113.11 51.25 112.78 51.25 112.44C54.22 112.44 57.19 112.44 60.25 112.44C60.25 111.78 60.25 111.12 60.25 110.44C61.57 110.11 62.89 109.78 64.25 109.44C64.25 107.46 64.25 105.48 64.25 103.44C63.59 104.76 62.93 106.08 62.25 107.44C60.9897 104.92 61.3313 103.586 61.6875 100.815C61.7893 99.9982 61.8912 99.1809 61.9961 98.3389C62.0799 97.7124 62.1637 97.0859 62.25 96.4404Z" fill="#C09273"/>
<path d="M80.25 56.4402C86.4489 56.0607 90.6977 56.605 96.25 59.4402C96.25 60.4302 96.25 61.4202 96.25 62.4402C90.64 61.7802 85.03 61.1202 79.25 60.4402C79.58 59.1202 79.91 57.8002 80.25 56.4402Z" fill="#453428"/>
<path d="M6.25 32.4404C6.58 33.1004 6.91 33.7604 7.25 34.4404C8.05695 34.2767 8.86391 34.113 9.69531 33.9443C13.8777 33.3514 17.9094 33.3315 22.125 33.3779C22.9087 33.3824 23.6925 33.387 24.5 33.3916C26.4167 33.4033 28.3334 33.4212 30.25 33.4404C30.25 33.7704 30.25 34.1004 30.25 34.4404C29.0692 34.5616 27.8884 34.6828 26.6719 34.8076C25.1145 34.9765 23.5573 35.1458 22 35.3154C21.2227 35.3941 20.4454 35.4727 19.6445 35.5537C15.7118 35.9907 12.7571 36.5133 9.25 38.4404C8.59 38.1104 7.93 37.7804 7.25 37.4404C7.03344 39.3586 7.03344 39.3586 6.8125 41.3154C6.54357 43.6974 6.32774 45.285 5.25 47.4404C4.59 47.1104 3.93 46.7804 3.25 46.4404C4.24 41.8204 5.23 37.2004 6.25 32.4404Z" fill="#2B1C11"/>
<path d="M113.25 77.4404C113.91 77.4404 114.57 77.4404 115.25 77.4404C115.815 90.3675 115.815 90.3675 112.25 95.4404C111.59 95.7704 110.93 96.1004 110.25 96.4404C110.364 93.8353 110.491 91.232 110.625 88.6279C110.656 87.8899 110.687 87.152 110.719 86.3916C110.923 82.6215 111.114 80.6439 113.25 77.4404Z" fill="#B68A6C"/>
<path d="M57.25 71.4404C58.24 71.4404 59.23 71.4404 60.25 71.4404C60.25 73.4204 60.25 75.4004 60.25 77.4404C60.91 77.4404 61.57 77.4404 62.25 77.4404C62.91 79.7504 63.57 82.0604 64.25 84.4404C65.24 84.1104 66.23 83.7804 67.25 83.4404C66.9375 85.3779 66.9375 85.3779 66.25 87.4404C65.26 87.7704 64.27 88.1004 63.25 88.4404C60.25 86.4404 60.25 86.4404 59.6875 84.2529C59.5431 83.3248 59.3988 82.3967 59.25 81.4404C58.8994 80.2442 58.5488 79.0479 58.1875 77.8154C57.25 74.4404 57.25 74.4404 57.25 71.4404Z" fill="#C29476"/>
<path d="M22.75 66.2529C23.7297 66.2387 24.7094 66.2246 25.7188 66.21C28.25 66.4404 28.25 66.4404 30.25 68.4404C27.28 68.4404 24.31 68.4404 21.25 68.4404C19.25 72.2047 19.25 72.2047 18.25 75.4404C16.1875 76.1279 16.1875 76.1279 14.25 76.4404C13.92 75.4504 13.59 74.4604 13.25 73.4404C14.6875 71.2529 14.6875 71.2529 16.25 69.4404C15.92 68.7804 15.59 68.1204 15.25 67.4404C17.8518 66.1395 19.8469 66.272 22.75 66.2529Z" fill="#C39372"/>
<path d="M60.25 98.4401C60.2925 100.44 60.2908 102.441 60.25 104.44C59.25 105.44 59.25 105.44 55.6875 105.503C54.5531 105.482 53.4188 105.461 52.25 105.44C51.5625 103.628 51.5625 103.628 51.25 101.44C53.4911 97.7488 56.2488 98.1734 60.25 98.4401Z" fill="#E4B79A"/>
<path d="M21.25 76.4404C22.24 76.7704 23.23 77.1004 24.25 77.4404C23.92 77.7704 23.59 78.1004 23.25 78.4404C23.1779 80.1265 23.1661 81.8154 23.1875 83.5029C23.201 84.8816 23.201 84.8816 23.2148 86.2881C23.2264 86.9984 23.238 87.7086 23.25 88.4404C20.3348 87.3664 18.4719 86.6623 16.25 84.4404C16.4142 81.2394 16.8406 79.8498 19.125 77.5654C19.8263 77.1942 20.5275 76.8229 21.25 76.4404Z" fill="#DFD7CF"/>
<path d="M110.25 65.4404C116.125 69.1904 116.125 69.1904 117.25 71.4404C117.402 74.1834 117.481 76.8839 117.5 79.6279C117.521 80.3711 117.541 81.1142 117.562 81.8799C117.599 87.1482 116.62 90.7319 114.25 95.4404C113.047 91.8316 113.883 89.8004 114.77 86.2021C115.676 80.9907 115.397 75.7114 115.25 70.4404C113.27 70.4404 111.29 70.4404 109.25 70.4404C109.58 68.7904 109.91 67.1404 110.25 65.4404Z" fill="#2D1D14"/>
<path d="M49.25 81.4404C49.91 81.4404 50.57 81.4404 51.25 81.4404C51.25 83.4204 51.25 85.4004 51.25 87.4404C50.59 87.4404 49.93 87.4404 49.25 87.4404C49.7759 88.8636 49.7759 88.8636 50.3125 90.3154C51.25 93.4404 51.25 93.4404 50.25 95.4404C48.1875 96.0654 48.1875 96.0654 46.25 96.4404C46.25 95.7804 46.25 95.1204 46.25 94.4404C46.91 94.4404 47.57 94.4404 48.25 94.4404C46.6699 92.2857 45.1435 90.334 43.25 88.4404C43.625 86.3154 43.625 86.3154 44.25 84.4404C44.25 85.4304 44.25 86.4204 44.25 87.4404C45.57 87.1104 46.89 86.7804 48.25 86.4404C48.58 84.7904 48.91 83.1404 49.25 81.4404Z" fill="#C79B79"/>
<path d="M79.25 64.4403C82.3139 64.185 83.8823 64.2217 86.5625 65.8153C87.1194 66.3516 87.6762 66.8878 88.25 67.4403C88.25 68.1003 88.25 68.7604 88.25 69.4404C84.29 69.4404 80.33 69.4404 76.25 69.4404C76.25 68.4504 76.25 67.4603 76.25 66.4403C77.24 66.4403 78.23 66.4403 79.25 66.4403C79.25 65.7803 79.25 65.1203 79.25 64.4403Z" fill="#CFA686"/>
<path d="M33.25 7.44043C33.25 8.43043 33.25 9.42043 33.25 10.4404C31.3086 12.2725 31.3086 12.2725 28.6875 14.2529C24.4232 17.5345 20.3098 20.9102 16.25 24.4404C18.2171 18.993 20.0303 15.9712 25.25 13.4404C25.91 12.7804 26.57 12.1204 27.25 11.4404C29.1812 9.5092 30.7628 8.50637 33.25 7.44043Z" fill="#2E2B28"/>
<path d="M3.25 48.4404C3.58 48.4404 3.91 48.4404 4.25 48.4404C4.91 58.0104 5.57 67.5804 6.25 77.4404C4.93 77.1104 3.61 76.7804 2.25 76.4404C2.58 67.2004 2.91 57.9604 3.25 48.4404Z" fill="#23170E"/>
<path d="M93.25 119.44C93.91 119.44 94.57 119.44 95.25 119.44C95.25 120.43 95.25 121.42 95.25 122.44C94.59 122.44 93.93 122.44 93.25 122.44C92.1521 124.49 91.2905 126.117 91 128.44C89.782 131.688 87.1498 132.69 84.25 134.44C83.1211 135.185 81.9959 135.934 80.875 136.69C80.0088 137.268 79.1425 137.845 78.25 138.44C77.59 138.11 76.93 137.78 76.25 137.44C77.25 135.44 77.25 135.44 80.375 133.815C86.1822 130.63 90.5099 125.428 93.25 119.44Z" fill="#A07352"/>
<path d="M52.25 80.4404C53.57 80.4404 54.89 80.4404 56.25 80.4404C55.59 82.0904 54.93 83.7404 54.25 85.4404C55.24 85.4404 56.23 85.4404 57.25 85.4404C57.25 84.7804 57.25 84.1204 57.25 83.4404C57.91 83.7704 58.57 84.1004 59.25 84.4404C59.0644 85.0592 58.8787 85.6779 58.6875 86.3154C58.0131 88.482 58.0131 88.482 59.25 90.4404C56.94 90.1104 54.63 89.7804 52.25 89.4404C52.25 86.4704 52.25 83.5004 52.25 80.4404Z" fill="#E6BAA0"/>
<path d="M74.25 75.4404C74.58 76.1004 74.91 76.7604 75.25 77.4404C76.24 77.7704 77.23 78.1004 78.25 78.4404C77.26 78.4404 76.27 78.4404 75.25 78.4404C75.7971 80.9779 75.7971 80.9779 77.25 83.4404C80.3027 84.3387 80.3027 84.3387 83.25 84.4404C82.125 86.0029 82.125 86.0029 80.25 87.4404C77.1875 87.4404 77.1875 87.4404 74.25 86.4404C72.75 84.2529 72.75 84.2529 72.25 81.4404C73.125 78.1279 73.125 78.1279 74.25 75.4404Z" fill="#5E4D38"/>
<path d="M16.25 115.44C17.9588 117.064 19.6245 118.734 21.25 120.44C21.25 121.1 21.25 121.76 21.25 122.44C22.24 122.44 23.23 122.44 24.25 122.44C24.25 124.09 24.25 125.74 24.25 127.44C26.725 128.43 26.725 128.43 29.25 129.44C29.25 130.43 29.25 131.42 29.25 132.44C21.3137 128.18 18.9156 124.052 16.25 115.44Z" fill="#A37454"/>
<path d="M15.25 86.4404C16.24 86.7704 17.23 87.1004 18.25 87.4404C19.3009 90.2041 19.3686 92.8355 19.3477 95.7686C19.3444 96.5678 19.3412 97.367 19.3379 98.1904C19.3295 99.0154 19.3211 99.8404 19.3125 100.69C19.308 101.531 19.3035 102.371 19.2988 103.237C19.2871 105.305 19.2691 107.373 19.25 109.44C17.7661 108.169 17.7661 108.169 16.25 106.44C16.0576 103.715 16.0133 101.215 16.125 98.5029C16.4232 92.3939 16.4232 92.3939 15.25 86.4404Z" fill="#CD9C7C"/>
<path d="M88.25 73.4404C93 74.1904 93 74.1904 95.25 76.4404C94.9974 80.2295 92.9715 81.9823 90.25 84.4404C89.0204 80.7515 88.6933 77.3034 88.25 73.4404Z" fill="#E9E3E0"/>
<path d="M76.25 139.44C68.1848 142.836 60.8674 142.747 52.25 142.44C55.7297 140.334 58.7249 140.095 62.75 139.878C67.1563 139.666 67.1563 139.666 71.4688 138.851C73.25 138.44 73.25 138.44 76.25 139.44Z" fill="#AD7E5C"/>
<path d="M1.24997 76.4404C3.49245 79.8041 3.40668 80.5732 3.18747 84.4404C3.04983 90.5044 4.38663 95.7062 6.24997 101.44C1.47719 97.6436 1.24133 91.122 0.249969 85.4404C-0.0604906 82.1779 -0.25007 79.4405 1.24997 76.4404Z" fill="#584133"/>
<path d="M28.9375 73.378C30.1499 73.3916 30.1499 73.3916 31.3867 73.4054C32.309 73.4228 32.309 73.4228 33.25 73.4405C33.58 74.1005 33.91 74.7605 34.25 75.4405C33.5139 75.4779 32.7779 75.5153 32.0195 75.5538C24.8313 76.0381 20.2249 76.9419 15.25 82.4405C15.5853 79.3107 16.2507 78.4399 18.625 76.253C22.1857 73.7945 24.7152 73.3168 28.9375 73.378Z" fill="#301C12"/>
<path d="M101.25 39.4404C104.157 42.2334 105.828 44.6022 107.25 48.4404C107.205 51.5 106.804 54.4344 106.25 57.4404C104.166 53.8532 103.449 50.2335 102.625 46.1904C102.365 44.9271 102.104 43.6639 101.836 42.3623C101.643 41.3981 101.449 40.4339 101.25 39.4404Z" fill="#604430"/>
<path d="M40.25 31.4405C40.25 32.4305 40.25 33.4205 40.25 34.4405C32.5341 34.5973 24.9348 34.115 17.25 33.4405C17.25 33.1105 17.25 32.7805 17.25 32.4405C24.9426 31.5925 32.5129 31.319 40.25 31.4405Z" fill="#352921"/>
<path d="M93.25 62.4404C94.57 62.7704 95.89 63.1004 97.25 63.4404C97.58 66.7404 97.91 70.0404 98.25 73.4404C96.93 73.7704 95.61 74.1004 94.25 74.4404C93.25 72.4404 93.25 72.4404 93.75 69.5654C94.2142 66.6642 94.1908 65.1582 93.25 62.4404Z" fill="#C49475"/>
<path d="M2.25 84.4404C2.91 84.4404 3.57 84.4404 4.25 84.4404C4.38277 85.0785 4.51555 85.7166 4.65234 86.374C4.82895 87.2003 5.00555 88.0266 5.1875 88.8779C5.44854 90.1135 5.44854 90.1135 5.71484 91.374C6.05753 93.417 6.05753 93.417 7.25 94.4404C7.29081 96.44 7.29254 98.4409 7.25 100.44C3.78439 97.7625 3.16735 94.6038 2.25 90.4404C2.125 87.0029 2.125 87.0029 2.25 84.4404Z" fill="#B68F75"/>
<path d="M14.25 83.4404C14.8069 83.7292 15.3637 84.0179 15.9375 84.3154C18.3349 85.4818 20.766 86.4744 23.25 87.4404C23.25 91.3488 21.7443 92.5564 19.25 95.4404C19.0566 94.8255 18.8633 94.2107 18.6641 93.5771C18.4037 92.7689 18.1433 91.9607 17.875 91.1279C17.6198 90.3274 17.3645 89.5269 17.1016 88.7021C16.2617 86.2132 16.2617 86.2132 14.25 83.4404Z" fill="#D6B095"/>
<path d="M71.25 76.4404C71.58 76.4404 71.91 76.4404 72.25 76.4404C72.3944 77.5336 72.5388 78.6267 72.6875 79.7529C73.1329 83.3717 73.1329 83.3717 74.25 86.4404C71.28 85.9454 71.28 85.9454 68.25 85.4404C67.9913 82.3356 68.017 80.8154 69.6875 78.1279C70.2032 77.5711 70.7188 77.0142 71.25 76.4404Z" fill="#E4D7D0"/>
<path d="M96.25 32.4404C100.612 35.8996 102.026 40.1731 103.25 45.4404C103.25 46.7604 103.25 48.0804 103.25 49.4404C102.59 49.4404 101.93 49.4404 101.25 49.4404C100.92 46.4704 100.59 43.5004 100.25 40.4404C99.59 40.4404 98.93 40.4404 98.25 40.4404C97.59 37.8004 96.93 35.1604 96.25 32.4404Z" fill="#A77F65"/>
<path d="M36.25 74.4404C41 75.1904 41 75.1904 43.25 77.4404C43.58 78.1004 43.91 78.7604 44.25 79.4404C44.91 79.4404 45.57 79.4404 46.25 79.4404C45.92 81.4204 45.59 83.4004 45.25 85.4404C43.5289 83.8758 42.3322 82.6102 41.3125 80.5029C40.0168 77.9877 38.3068 76.3601 36.25 74.4404Z" fill="#98725A"/>
<path d="M74.25 71.4404C74.91 71.7704 75.57 72.1004 76.25 72.4404C75.26 75.4104 74.27 78.3804 73.25 81.4404C72.59 80.1204 71.93 78.8004 71.25 77.4404C69.93 78.7604 68.61 80.0804 67.25 81.4404C68.6437 77.0058 70.8558 74.5666 74.25 71.4404Z" fill="#3E2A1A"/>
<path d="M64.25 101.44C64.58 101.44 64.91 101.44 65.25 101.44C65.6177 106.956 65.6177 106.956 63.875 109.253C60.0286 112.064 56.902 111.515 52.25 111.44C52.25 111.11 52.25 110.78 52.25 110.44C53.1723 110.22 53.1723 110.22 54.1133 109.995C59.6479 108.52 59.6479 108.52 63.3125 104.253C63.6219 103.325 63.9313 102.397 64.25 101.44Z" fill="#895A3A"/>
<path d="M81.25 135.44C81.91 135.77 82.57 136.1 83.25 136.44C79.1692 141.443 75.5572 142.52 69.25 143.44C69.25 142.78 69.25 142.12 69.25 141.44C69.8649 141.175 70.4798 140.909 71.1133 140.636C71.9215 140.283 72.7298 139.929 73.5625 139.565C74.363 139.217 75.1635 138.869 75.9883 138.511C78.4462 137.415 78.4462 137.415 81.25 135.44Z" fill="#8C6648"/>
<path d="M62.25 96.4404C63.24 96.7704 64.23 97.1004 65.25 97.4404C66.4077 100.914 66.3186 103.801 66.25 107.44C65.59 106.12 64.93 104.8 64.25 103.44C63.59 104.76 62.93 106.08 62.25 107.44C60.9897 104.92 61.3312 103.586 61.6875 100.815C61.7893 99.9982 61.8911 99.1809 61.9961 98.3389C62.0798 97.7124 62.1636 97.0859 62.25 96.4404Z" fill="#B58666"/>
<path d="M14.25 97.4404C14.58 98.4304 14.91 99.4204 15.25 100.44C15.91 100.44 16.57 100.44 17.25 100.44C17.2087 101.369 17.1675 102.297 17.125 103.253C16.9786 106.599 16.9786 106.599 19.25 109.44C19.375 112.128 19.375 112.128 19.25 114.44C16.1114 111.302 14.4348 107.601 14.0586 103.202C14.062 101.281 14.149 99.3594 14.25 97.4404Z" fill="#C2916F"/>
<path d="M24.25 123.44C26.25 124.815 26.25 124.815 28.25 126.44C28.25 127.1 28.25 127.76 28.25 128.44C31.22 128.935 31.22 128.935 34.25 129.44C34.58 130.76 34.91 132.08 35.25 133.44C34.59 133.44 33.93 133.44 33.25 133.44C33.25 132.78 33.25 132.12 33.25 131.44C31.8578 131.007 31.8578 131.007 30.4375 130.565C27.25 129.44 27.25 129.44 24.25 127.44C24.25 126.12 24.25 124.8 24.25 123.44Z" fill="#B08261"/>
<path d="M89.25 76.4404C89.58 76.4404 89.91 76.4404 90.25 76.4404C89.375 83.1904 89.375 83.1904 88.25 85.4404C85.1875 86.0654 85.1875 86.0654 82.25 86.4404C83.0383 85.1467 83.8308 83.8555 84.625 82.5654C85.0659 81.8461 85.5067 81.1268 85.9609 80.3857C87.25 78.4404 87.25 78.4404 89.25 76.4404Z" fill="#967B65"/>
<path d="M69.25 73.4404C69.91 74.1004 70.57 74.7604 71.25 75.4404C70.7756 76.0179 70.3013 76.5954 69.8125 77.1904C68.2844 79.3909 67.865 80.8926 67.25 83.4404C66.26 83.9354 66.26 83.9354 65.25 84.4404C64.4375 81.7529 64.4375 81.7529 64.25 78.4404C66.6875 75.5654 66.6875 75.5654 69.25 73.4404Z" fill="#A17A5E"/>
<path d="M6.25 32.4404C8.51968 36.9798 8.29778 37.5938 6.875 42.1904C6.57852 43.1753 6.28203 44.1601 5.97656 45.1748C5.7368 45.9225 5.49703 46.6701 5.25 47.4404C4.59 47.1104 3.93 46.7804 3.25 46.4404C4.24 41.8204 5.23 37.2004 6.25 32.4404Z" fill="#1E1814"/>
<path d="M95.25 56.4403C95.25 57.1003 95.25 57.7603 95.25 58.4403C88.98 57.7803 82.71 57.1203 76.25 56.4403C76.25 56.1103 76.25 55.7803 76.25 55.4403C78.4777 55.2172 80.7073 55.0124 82.9375 54.8153C84.1789 54.6993 85.4202 54.5832 86.6992 54.4637C90.1788 54.4407 92.1748 54.8997 95.25 56.4403Z" fill="#A1816C"/>
<path d="M98.25 120.44C99.24 120.77 100.23 121.1 101.25 121.44C98.61 124.41 95.97 127.38 93.25 130.44C92.92 129.45 92.59 128.46 92.25 127.44C92.58 126.78 92.91 126.12 93.25 125.44C94.24 125.44 95.23 125.44 96.25 125.44C96.25 124.45 96.25 123.46 96.25 122.44C96.91 122.44 97.57 122.44 98.25 122.44C98.25 121.78 98.25 121.12 98.25 120.44Z" fill="#4A3422"/>
<path d="M94.25 79.4404C94.25 83.1941 93.1358 85.2276 91.25 88.4404C90.26 88.7704 89.27 89.1004 88.25 89.4404C87.92 88.4504 87.59 87.4604 87.25 86.4404C87.91 85.4504 88.57 84.4604 89.25 83.4404C90.24 83.4404 91.23 83.4404 92.25 83.4404C92.91 82.1204 93.57 80.8004 94.25 79.4404Z" fill="#DDBDA7"/>
<path d="M96.25 57.4404C98.725 58.4304 98.725 58.4304 101.25 59.4404C100.92 60.7604 100.59 62.0804 100.25 63.4404C98.93 63.4404 97.61 63.4404 96.25 63.4404C95.8678 61.7843 95.536 60.1159 95.25 58.4404C95.58 58.1104 95.91 57.7804 96.25 57.4404Z" fill="#B58768"/>
<path d="M58.25 84.4404C58.91 84.4404 59.57 84.4404 60.25 84.4404C60.58 86.4204 60.91 88.4004 61.25 90.4404C57.5 93.4404 57.5 93.4404 55.25 93.4404C55.25 92.4504 55.25 91.4604 55.25 90.4404C56.24 90.1104 57.23 89.7804 58.25 89.4404C57.92 88.7804 57.59 88.1204 57.25 87.4404C57.58 86.4504 57.91 85.4604 58.25 84.4404Z" fill="#DEB093"/>
<path d="M20.25 59.4406C17.5616 61.693 15.6036 63.3227 12.25 64.4406C12.25 62.7906 12.25 61.1406 12.25 59.4406C15.1118 58.0097 17.1838 58.8407 20.25 59.4406Z" fill="#B38870"/>
<path d="M85.25 125.44C85.91 125.77 86.57 126.1 87.25 126.44C84.1028 129.709 80.7565 132.571 77.25 135.44C76.59 135.11 75.93 134.78 75.25 134.44C78.55 131.47 81.85 128.5 85.25 125.44Z" fill="#B98C6D"/>
<path d="M100.25 98.4404C100.58 99.1004 100.91 99.7604 101.25 100.44C100.316 102.472 99.3178 104.476 98.25 106.44C97.26 106.11 96.27 105.78 95.25 105.44C96.4998 101.787 96.921 100.66 100.25 98.4404Z" fill="#C89777"/>
<path d="M13.25 106.44C13.4769 106.997 13.7038 107.554 13.9375 108.128C15.2275 110.671 15.2275 110.671 17.9375 112.94C18.7007 113.765 19.4638 114.59 20.25 115.44C19.8946 117.597 19.8946 117.597 19.25 119.44C18.2353 118.223 17.2388 116.991 16.25 115.753C15.6932 115.068 15.1363 114.384 14.5625 113.679C13.0226 111.053 12.9984 109.434 13.25 106.44Z" fill="#AF7F5C"/>
<path d="M111.25 70.4404C112.57 70.4404 113.89 70.4404 115.25 70.4404C115.25 73.4404 115.25 73.4404 113.875 75.0029C113.339 75.4773 112.803 75.9517 112.25 76.4404C111.59 77.1004 110.93 77.7604 110.25 78.4404C110.208 76.1075 110.209 73.7734 110.25 71.4404C110.58 71.1104 110.91 70.7804 111.25 70.4404Z" fill="#BC967C"/>
<path d="M21.25 63.4406C20.0625 64.9406 20.0625 64.9406 18.25 66.4406C15.5625 66.6281 15.5625 66.6281 13.25 66.4406C13.25 65.4506 13.25 64.4606 13.25 63.4406C16.1118 62.0097 18.1838 62.8407 21.25 63.4406Z" fill="#4C3424"/>
<path d="M19.8125 36.3779C21.0191 36.4089 21.0191 36.4089 22.25 36.4404C21.92 37.7604 21.59 39.0804 21.25 40.4404C19.93 40.7704 18.61 41.1004 17.25 41.4404C16.6875 39.5029 16.6875 39.5029 16.25 37.4404C17.25 36.4404 17.25 36.4404 19.8125 36.3779Z" fill="#CC9B79"/>
<path d="M39.25 139.44C41.2812 139.71 41.2812 139.71 43.75 140.253C44.5647 140.424 45.3794 140.596 46.2188 140.772C47.2242 141.103 47.2242 141.103 48.25 141.44C48.58 142.1 48.91 142.76 49.25 143.44C46.28 143.44 43.31 143.44 40.25 143.44C40.25 142.78 40.25 142.12 40.25 141.44C39.59 141.11 38.93 140.78 38.25 140.44C38.58 140.11 38.91 139.78 39.25 139.44Z" fill="#8A664C"/>
<path d="M57.25 114.441C57.25 114.771 57.25 115.101 57.25 115.441C56.2806 115.75 55.3112 116.06 54.3125 116.378C51.4093 117.136 51.4093 117.136 50.25 118.441C48.5838 118.481 46.9161 118.484 45.25 118.441C48.8392 113.655 51.6667 114.069 57.25 114.441Z" fill="#DEB395"/>
<path d="M60.25 91.4404C61.24 91.4404 62.23 91.4404 63.25 91.4404C63.58 93.0904 63.91 94.7404 64.25 96.4404C63.59 96.4404 62.93 96.4404 62.25 96.4404C61.92 97.7604 61.59 99.0804 61.25 100.44C60.92 97.4704 60.59 94.5004 60.25 91.4404Z" fill="#C69A76"/>
<path d="M40.25 80.4404C41.24 81.1004 42.23 81.7604 43.25 82.4404C42.92 84.0904 42.59 85.7404 42.25 87.4404C40.93 87.7704 39.61 88.1004 38.25 88.4404C38.91 85.8004 39.57 83.1604 40.25 80.4404Z" fill="#F1DFCF"/>
<path d="M47.25 75.4404C47.58 76.7604 47.91 78.0804 48.25 79.4404C48.91 79.4404 49.57 79.4404 50.25 79.4404C49.59 81.7504 48.93 84.0604 48.25 86.4404C46.93 86.7704 45.61 87.1004 44.25 87.4404C44.25 86.7804 44.25 86.1204 44.25 85.4404C45.24 85.4404 46.23 85.4404 47.25 85.4404C47.1662 84.8023 47.0824 84.1643 46.9961 83.5068C46.8943 82.6805 46.7924 81.8543 46.6875 81.0029C46.5831 80.1792 46.4787 79.3555 46.3711 78.5068C46.3311 77.8249 46.2912 77.143 46.25 76.4404C46.58 76.1104 46.91 75.7804 47.25 75.4404Z" fill="#BA8C6A"/>
<path d="M40.25 79.4404C40.4375 82.3154 40.4375 82.3154 40.25 85.4404C39.26 86.1004 38.27 86.7604 37.25 87.4404C36.59 86.7804 35.93 86.1204 35.25 85.4404C37.4038 79.4404 37.4038 79.4404 40.25 79.4404Z" fill="#826D59"/>
<path d="M14.25 119.44C16.0625 119.628 16.0625 119.628 18.25 120.44C20 123.003 20 123.003 21.25 125.44C19.4375 125.253 19.4375 125.253 17.25 124.44C15.5 121.878 15.5 121.878 14.25 119.44Z" fill="#7D5A44"/>
<path d="M105.25 109.44C106.25 112.44 106.25 112.44 105.473 114.483C105.09 115.191 104.707 115.899 104.313 116.628C103.932 117.343 103.552 118.059 103.16 118.796C102.71 119.61 102.71 119.61 102.25 120.44C101.92 120.44 101.59 120.44 101.25 120.44C100.88 114.891 100.88 114.891 102.688 112.69C103.203 112.278 103.719 111.865 104.25 111.44C104.58 110.78 104.91 110.12 105.25 109.44Z" fill="#44291B"/>
<path d="M78.25 115.44C80.3125 115.878 80.3125 115.878 82.25 116.44C81.9375 118.378 81.9375 118.378 81.25 120.44C80.26 120.77 79.27 121.1 78.25 121.44C77.8678 119.784 77.536 118.116 77.25 116.44C77.58 116.11 77.91 115.78 78.25 115.44Z" fill="#E0B296"/>
<path d="M13.25 101.44C15.3338 105.287 16.7469 109.341 18.25 113.44C17.26 113.11 16.27 112.78 15.25 112.44C14.3008 110.155 14.3008 110.155 13.5625 107.378C13.3111 106.459 13.0598 105.54 12.8008 104.593C12.619 103.882 12.4373 103.172 12.25 102.44C12.58 102.11 12.91 101.78 13.25 101.44Z" fill="#B68665"/>
<path d="M23.25 69.4404C25.89 69.7704 28.53 70.1004 31.25 70.4404C27.8481 72.5339 25.1973 72.6199 21.25 72.4404C21.91 71.4504 22.57 70.4604 23.25 69.4404Z" fill="#CEA285"/>
<path d="M21.25 125.44C22.24 125.44 23.23 125.44 24.25 125.44C24.25 126.1 24.25 126.76 24.25 127.44C26.725 128.43 26.725 128.43 29.25 129.44C29.25 130.43 29.25 131.42 29.25 132.44C27.9114 131.658 26.5793 130.864 25.25 130.065C24.5075 129.625 23.765 129.184 23 128.729C22.4225 128.304 21.845 127.879 21.25 127.44C21.25 126.78 21.25 126.12 21.25 125.44Z" fill="#9B6D4E"/>
<path d="M70.25 85.4404C73.22 85.9354 73.22 85.9354 76.25 86.4404C75.92 87.4304 75.59 88.4204 75.25 89.4404C74.59 89.4404 73.93 89.4404 73.25 89.4404C72.92 90.1004 72.59 90.7604 72.25 91.4404C72.25 90.7804 72.25 90.1204 72.25 89.4404C71.59 89.1104 70.93 88.7804 70.25 88.4404C70.25 87.4504 70.25 86.4604 70.25 85.4404Z" fill="#DEBDA7"/>
<path d="M61.25 81.4404C61.91 82.4304 62.57 83.4204 63.25 84.4404C65.3 85.6328 65.3 85.6328 67.25 86.4404C65.27 87.4304 65.27 87.4304 63.25 88.4404C62.26 87.7804 61.27 87.1204 60.25 86.4404C60.58 84.7904 60.91 83.1404 61.25 81.4404Z" fill="#C79A7A"/>
<path d="M98.25 76.4404C98.91 77.4304 99.57 78.4204 100.25 79.4404C99.26 81.4204 98.27 83.4004 97.25 85.4404C96.92 85.4404 96.59 85.4404 96.25 85.4404C96.125 82.0654 96.125 82.0654 96.25 78.4404C96.91 77.7804 97.57 77.1204 98.25 76.4404Z" fill="#CA9C7A"/>
<path d="M61.25 77.4404C63.6095 79.8 63.7414 81.2194 64.25 84.4404C65.24 84.1104 66.23 83.7804 67.25 83.4404C67.25 84.1004 67.25 84.7604 67.25 85.4404C62.5 84.6904 62.5 84.6904 60.25 82.4404C60.625 79.8154 60.625 79.8154 61.25 77.4404Z" fill="#BC8F6F"/>
<path d="M11.25 61.4404C13.25 64.4404 13.25 64.4404 13.25 66.4404C14.57 66.7704 15.89 67.1004 17.25 67.4404C16.26 67.7704 15.27 68.1004 14.25 68.4404C13.59 69.1004 12.93 69.7604 12.25 70.4404C11.25 69.4404 11.25 69.4404 11.1523 67.5928C11.1849 65.542 11.2174 63.4912 11.25 61.4404Z" fill="#A07C5E"/>
<path d="M74.25 118.44C74.25 121.546 73.7106 122.793 72.25 125.44C71.59 124.78 70.93 124.12 70.25 123.44C72 119.565 72 119.565 74.25 118.44Z" fill="#C39577"/>
<path d="M70.25 94.4404C70.91 95.1004 71.57 95.7604 72.25 96.4404C71.875 99.0654 71.875 99.0654 71.25 101.44C70.26 101.11 69.27 100.78 68.25 100.44C69.125 95.5654 69.125 95.5654 70.25 94.4404Z" fill="#E2B89D"/>
<path d="M112.25 86.4404C112.91 86.4404 113.57 86.4404 114.25 86.4404C114.375 92.1904 114.375 92.1904 113.25 94.4404C112.59 94.4404 111.93 94.4404 111.25 94.4404C111.58 91.8004 111.91 89.1604 112.25 86.4404Z" fill="#BE997F"/>
<path d="M19.25 71.4404C21.56 71.7704 23.87 72.1004 26.25 72.4404C23.6845 75.0059 21.7731 74.9809 18.25 75.4404C18.58 74.1204 18.91 72.8004 19.25 71.4404Z" fill="#B9977E"/>
<path d="M68.25 59.4404C69.9 59.4404 71.55 59.4404 73.25 59.4404C72.92 60.7604 72.59 62.0804 72.25 63.4404C70.93 63.1104 69.61 62.7804 68.25 62.4404C68.25 61.4504 68.25 60.4604 68.25 59.4404Z" fill="#413329"/>
<path d="M2.25 76.4404C4.23 77.4304 4.23 77.4304 6.25 78.4404C6.25 79.7604 6.25 81.0804 6.25 82.4404C5.26 82.1104 4.27 81.7804 3.25 81.4404C2.92 79.7904 2.59 78.1404 2.25 76.4404Z" fill="#BE987B"/>
<path d="M93.25 58.4404C94.24 58.7704 95.23 59.1004 96.25 59.4404C96.25 60.4304 96.25 61.4204 96.25 62.4404C93.61 62.1104 90.97 61.7804 88.25 61.4404C88.8894 61.1311 89.5288 60.8217 90.1875 60.5029C92.1861 59.6059 92.1861 59.6059 93.25 58.4404Z" fill="#523A21"/>
</svg>
