<svg width="84" height="88" viewBox="0 0 84 88" fill="none" xmlns="http://www.w3.org/2000/svg">
<mask id="mask0_135_208" style="mask-type:alpha" maskUnits="userSpaceOnUse" x="0" y="0" width="84" height="88">
<path d="M41.6493 87.1111C64.6515 87.1111 83.2985 67.7101 83.2985 43.7778C83.2985 19.8455 64.6515 0.444458 41.6493 0.444458C18.647 0.444458 0 19.8455 0 43.7778C0 67.7101 18.647 87.1111 41.6493 87.1111Z" fill="black"/>
</mask>
<g mask="url(#mask0_135_208)">
<path d="M41.6493 87.1111C64.6515 87.1111 83.2985 67.7101 83.2985 43.7778C83.2985 19.8455 64.6515 0.444458 41.6493 0.444458C18.647 0.444458 0 19.8455 0 43.7778C0 67.7101 18.647 87.1111 41.6493 87.1111Z" fill="black"/>
<path d="M69.1877 76.2874L31.9968 26.4445H24.9895V61.0967H30.5953V33.8514L64.7872 79.8143C66.3301 78.7401 67.7999 77.5609 69.1877 76.2874Z" fill="url(#paint0_linear_135_208)"/>
<path d="M58.772 26.4445H53.2188V61.1111H58.772V26.4445Z" fill="url(#paint1_linear_135_208)"/>
</g>
<defs>
<linearGradient id="paint0_linear_135_208" x1="50.4418" y1="56.5371" x2="67.6653" y2="77.0548" gradientUnits="userSpaceOnUse">
<stop stop-color="white"/>
<stop offset="1" stop-color="white" stop-opacity="0"/>
</linearGradient>
<linearGradient id="paint1_linear_135_208" x1="55.9954" y1="26.4445" x2="55.8947" y2="51.9028" gradientUnits="userSpaceOnUse">
<stop stop-color="white"/>
<stop offset="1" stop-color="white" stop-opacity="0"/>
</linearGradient>
</defs>
</svg>
