<svg width="84" height="86" viewBox="0 0 84 86" fill="none" xmlns="http://www.w3.org/2000/svg">
<path fill-rule="evenodd" clip-rule="evenodd" d="M42.0744 84.8364C40.946 84.8364 39.8929 84.5283 38.915 83.9892L28.9105 77.9052C27.4061 77.0581 28.1583 76.75 28.6096 76.596C30.6406 75.9029 31.0167 75.7488 33.123 74.5166C33.3486 74.3626 33.6495 74.4396 33.8752 74.5936L41.5478 79.2914C41.8487 79.4455 42.2248 79.4455 42.4505 79.2914L72.464 61.5014C72.7649 61.3474 72.9153 61.0394 72.9153 60.6543V25.1514C72.9153 24.7663 72.7649 24.4582 72.464 24.3042L42.4505 6.59125C42.1496 6.43722 41.7735 6.43722 41.5478 6.59125L11.5343 24.3042C11.2334 24.4582 11.0829 24.8433 11.0829 25.1514V60.6543C11.0829 60.9624 11.2334 61.3474 11.5343 61.5014L19.7335 66.3533C24.1716 68.6636 26.9548 65.9682 26.9548 63.2727V28.2319C26.9548 27.7698 27.3309 27.3077 27.8574 27.3077H31.6937C32.1451 27.3077 32.5964 27.6928 32.5964 28.2319V63.2727C32.5964 69.3568 29.3619 72.8994 23.7202 72.8994C21.9901 72.8994 20.6361 72.8994 16.7998 70.974L8.90151 66.3533C6.94574 65.1981 5.74219 63.0417 5.74219 60.7313V25.2284C5.74219 22.918 6.94574 20.7616 8.90151 19.6064L38.915 1.81645C40.7956 0.738267 43.3531 0.738267 45.2337 1.81645L75.2472 19.6064C77.203 20.7616 78.4065 22.918 78.4065 25.2284V60.7313C78.4065 63.0417 77.203 65.1981 75.2472 66.3533L45.2337 84.1432C44.2558 84.6053 43.1275 84.8364 42.0744 84.8364ZM51.3267 60.4233C38.1628 60.4233 35.4548 54.2622 35.4548 49.0254C35.4548 48.5633 35.831 48.1012 36.3575 48.1012H40.269C40.7204 48.1012 41.0965 48.4093 41.0965 48.8713C41.6983 52.953 43.4284 54.9553 51.4019 54.9553C57.7205 54.9553 60.4285 53.4921 60.4285 50.0265C60.4285 48.0242 59.6763 46.5609 49.8222 45.5598C41.623 44.7126 36.5079 42.8643 36.5079 36.1642C36.5079 29.9262 41.623 26.2295 50.1983 26.2295C59.8267 26.2295 64.5657 29.6181 65.1675 37.0113C65.1675 37.2424 65.0923 37.4734 64.9418 37.7045C64.7914 37.8585 64.5657 38.0125 64.3401 38.0125H60.4285C60.0524 38.0125 59.6763 37.7045 59.6011 37.3194C58.6984 33.0837 56.3665 31.6975 50.1983 31.6975C43.2779 31.6975 42.4505 34.1619 42.4505 36.0102C42.4505 38.2435 43.4284 38.9367 52.7559 40.1689C62.0082 41.4011 66.371 43.1724 66.371 49.7955C66.2958 56.5726 60.8798 60.4233 51.3267 60.4233Z" fill="#539E43"/>
</svg>
