<svg width="40" height="40" viewBox="0 0 40 40" fill="none" xmlns="http://www.w3.org/2000/svg">
<path d="M39.9034 35.4068C38.9673 28.2347 31.5276 23.9531 20.0019 23.9531C8.89823 23.9531 1.70672 27.7642 0.271175 34.4138C0.0796674 35.3216 0 37.0826 0 37.8243C0 38.532 0.686365 39.1064 1.53206 39.1064C2.37776 39.1064 3.06413 38.532 3.06413 37.8243C3.06413 37.0492 3.15146 35.51 3.28781 34.8658C4.85588 27.602 14.4328 26.5179 20.0019 26.5179C24.7099 26.5179 35.7783 27.4116 36.8569 35.6799C36.876 35.8594 36.909 36.9659 36.9358 38.7333C36.9465 39.4359 37.6298 40 38.4671 40C38.474 40 38.4809 40 38.4862 40C39.3319 39.991 40.0098 39.4102 39.9999 38.7025C39.98 37.3851 39.9478 35.7459 39.9034 35.4068ZM20.0019 21.1132C26.1431 21.1132 31.1392 16.1001 31.1392 9.9383C31.1392 4.08674 26.5591 0 20.0019 0C13.4446 0 8.86452 4.08674 8.86452 9.9383C8.86452 16.1001 13.8606 21.1132 20.0019 21.1132ZM20.0019 2.56487C24.8309 2.56487 28.0751 5.52847 28.0751 9.93894C28.0751 14.6866 24.4533 18.5496 20.0019 18.5496C15.5504 18.5496 11.9286 14.6872 11.9286 9.93894C11.9286 5.52783 15.1728 2.56487 20.0019 2.56487Z" fill="white"/>
</svg>
