<svg width="35" height="44" viewBox="0 0 35 44" fill="none" xmlns="http://www.w3.org/2000/svg">
<path d="M26.5617 0.400024H0.504883V43.6H34.4953V8.50242L26.5617 0.400024ZM26.4301 2.16642L32.7657 8.64162H26.4301V2.16642ZM1.83028 42.2512V1.74882H25.1V10H33.1699V42.256L1.83028 42.2512Z" fill="url(#paint0_linear_211_270)"/>
<path d="M19.601 19.5999C19.3356 19.8688 19.1246 20.1884 18.9802 20.5405C18.8357 20.8926 18.7606 21.2703 18.7591 21.652C18.756 22.423 19.0529 23.1637 19.5846 23.7111C20.1162 24.2585 20.839 24.5678 21.5939 24.571C22.3489 24.5741 23.0741 24.2709 23.6101 23.7279C24.1461 23.185 24.449 22.4468 24.452 21.6758C24.4551 20.9048 24.1582 20.1641 23.6266 19.6167C23.0949 19.0693 22.3721 18.76 21.6172 18.7569C20.8622 18.7537 20.137 19.057 19.601 19.5999ZM22.6701 22.7727C22.4564 22.9883 22.185 23.1345 21.8902 23.193C21.5953 23.2515 21.29 23.2196 21.0129 23.1013C20.7357 22.983 20.499 22.7837 20.3325 22.5284C20.166 22.273 20.0771 21.9731 20.0771 21.6663C20.0771 21.3595 20.166 21.0596 20.3325 20.8043C20.499 20.5489 20.7357 20.3496 21.0129 20.2313C21.29 20.1131 21.5953 20.0812 21.8902 20.1396C22.185 20.1981 22.4564 20.3443 22.6701 20.5599C22.8135 20.7046 22.9273 20.8769 23.005 21.0668C23.0827 21.2567 23.1227 21.4605 23.1227 21.6663C23.1227 21.8722 23.0827 22.0759 23.005 22.2659C22.9273 22.4558 22.8135 22.6281 22.6701 22.7727Z" fill="url(#paint1_linear_211_270)"/>
<path d="M28.7519 13.1729C25.2739 12.7697 22.1343 13.3265 19.4788 14.8193C17.9725 15.6698 16.6159 16.7714 15.465 18.0785H9.53362C9.34805 18.0774 9.1641 18.1137 8.99231 18.1854C8.82052 18.257 8.66427 18.3626 8.53252 18.4961L4.53282 22.4801C4.39563 22.6145 4.28646 22.7758 4.21189 22.9544C4.13732 23.133 4.09888 23.3251 4.09888 23.5193C4.09888 23.7134 4.13732 23.9056 4.21189 24.0842C4.28646 24.2627 4.39563 24.4241 4.53282 24.5585L6.28122 26.3441C6.53615 26.5929 6.87031 26.7395 7.2225 26.7571C7.57468 26.7748 7.92128 26.6622 8.19882 26.4401C8.91788 25.8248 9.81805 25.4733 10.7556 25.4417C10.3326 26.3009 9.95662 27.1025 9.65582 27.7553L9.45842 28.1825L15.2394 34.0865L15.6577 33.8849C16.3157 33.5681 17.1335 33.1745 18.0077 32.7233C17.9612 33.7282 17.5892 34.6889 16.9502 35.4545C16.7208 35.7327 16.603 36.0893 16.6204 36.4526C16.6379 36.8158 16.7893 37.1589 17.0442 37.4129L18.708 39.1121C18.8395 39.2507 18.9969 39.3609 19.1709 39.4362C19.3449 39.5115 19.5319 39.5503 19.7209 39.5503C19.9098 39.5503 20.0969 39.5115 20.2709 39.4362C20.4449 39.3609 20.6023 39.2507 20.7337 39.1121L24.7334 35.0273C24.863 34.8914 24.9649 34.7307 25.0335 34.5544C25.1021 34.3781 25.1358 34.1897 25.1329 34.0001V27.9521C26.4079 26.7757 27.4817 25.3903 28.3101 23.8529C29.7718 21.1265 30.317 17.9393 29.9222 14.3777C29.8901 14.071 29.7567 13.7846 29.544 13.5657C29.3313 13.3467 29.0519 13.2082 28.7519 13.1729ZM27.1586 23.2049C26.348 24.6947 25.2887 26.0284 24.0284 27.1457L23.8075 27.3473V34.0001C23.8076 34.0152 23.8047 34.0302 23.799 34.0442C23.7934 34.0582 23.7851 34.071 23.7746 34.0817L19.7796 38.1617C19.7587 38.1819 19.7309 38.1932 19.7021 38.1932C19.6732 38.1932 19.6455 38.1819 19.6245 38.1617L17.9701 36.4721C17.952 36.4518 17.9419 36.4252 17.9419 36.3977C17.9419 36.3702 17.952 36.3436 17.9701 36.3233C18.4927 35.6685 18.8804 34.9125 19.1098 34.1009C19.3391 33.2892 19.4055 32.4386 19.3049 31.6001L19.2344 30.5633L18.3367 31.0433C17.3215 31.5905 16.3251 32.0849 15.5167 32.4833L11.047 27.9185C11.423 27.1025 11.893 26.1137 12.4147 25.1105L12.8847 24.1889L11.8601 24.1121C11.6157 24.1121 11.3901 24.1121 11.1692 24.1121C9.78076 24.0632 8.42239 24.5324 7.34812 25.4321C7.33887 25.4424 7.32762 25.4507 7.31507 25.4563C7.30253 25.462 7.28897 25.4649 7.27527 25.4649C7.26156 25.4649 7.248 25.462 7.23546 25.4563C7.22292 25.4507 7.21167 25.4424 7.20242 25.4321L5.45402 23.6465C5.44364 23.6362 5.43539 23.6239 5.42976 23.6103C5.42413 23.5967 5.42123 23.5821 5.42123 23.5673C5.42123 23.5525 5.42413 23.5379 5.42976 23.5243C5.43539 23.5107 5.44364 23.4984 5.45402 23.4881L9.45372 19.4945C9.47348 19.4736 9.5005 19.4616 9.52892 19.4609H16.0525L16.2499 19.2353C17.3451 17.9462 18.6526 16.8627 20.1133 16.0337C22.5338 14.6801 25.4055 14.1761 28.6062 14.5457C28.9822 17.8097 28.4934 20.7281 27.1633 23.2097L27.1586 23.2049Z" fill="url(#paint2_linear_211_270)"/>
<defs>
<linearGradient id="paint0_linear_211_270" x1="17.5001" y1="0.400024" x2="17.5001" y2="43.6" gradientUnits="userSpaceOnUse">
<stop stop-color="#4169E1"/>
<stop offset="1" stop-color="#2ECC71"/>
</linearGradient>
<linearGradient id="paint1_linear_211_270" x1="21.6055" y1="18.7568" x2="21.6055" y2="24.571" gradientUnits="userSpaceOnUse">
<stop stop-color="#4169E1"/>
<stop offset="1" stop-color="#2ECC71"/>
</linearGradient>
<linearGradient id="paint2_linear_211_270" x1="17.0728" y1="13.0457" x2="17.0728" y2="39.5503" gradientUnits="userSpaceOnUse">
<stop stop-color="#4169E1"/>
<stop offset="1" stop-color="#2ECC71"/>
</linearGradient>
</defs>
</svg>
