<svg width="84" height="87" viewBox="0 0 84 87" fill="none" xmlns="http://www.w3.org/2000/svg">
<g clip-path="url(#clip0_135_228)">
<path d="M41.5968 0.339844C20.3237 0.339845 21.6522 9.89462 21.6522 9.89462L21.6759 19.7933H41.9763V22.7653H13.6126C13.6126 22.7653 0 21.1664 0 43.3977C-1.51725e-06 65.6291 11.8814 64.8407 11.8814 64.8407H18.9723V54.5245C18.9723 54.5245 18.5901 42.2187 30.664 42.2187H50.7984C50.7984 42.2187 62.1107 42.4081 62.1107 30.8955V11.8596C62.1107 11.8596 63.8282 0.339844 41.5968 0.339844ZM30.4032 6.99625C32.4229 6.99625 34.0553 8.68699 34.0553 10.7789C34.0553 12.8707 32.4229 14.5615 30.4032 14.5615C28.3834 14.5615 26.751 12.8707 26.751 10.7789C26.751 8.68699 28.3834 6.99625 30.4032 6.99625Z" fill="url(#paint0_linear_135_228)"/>
<path d="M42.2011 86.6785C63.4742 86.6785 62.1458 77.1237 62.1458 77.1237L62.122 67.2251H41.8216V64.253H70.1853C70.1853 64.253 83.7979 65.852 83.7979 43.6206C83.7979 21.3893 71.9165 22.1777 71.9165 22.1777H64.8256V32.4939C64.8256 32.4939 65.2078 44.7996 53.1339 44.7996H32.9995C32.9995 44.7996 21.6873 44.6102 21.6873 56.1229V75.1587C21.6873 75.1587 19.9697 86.6785 42.2011 86.6785ZM53.3948 80.0221C51.375 80.0221 49.7426 78.3314 49.7426 76.2395C49.7426 74.1476 51.375 72.4569 53.3948 72.4569C55.4145 72.4569 57.0469 74.1476 57.0469 76.2395C57.047 78.3314 55.4145 80.0221 53.3948 80.0221Z" fill="url(#paint1_linear_135_228)"/>
</g>
<defs>
<linearGradient id="paint0_linear_135_228" x1="8.05313" y1="8.10577" x2="51.0218" y2="49.1789" gradientUnits="userSpaceOnUse">
<stop stop-color="#387EB8"/>
<stop offset="1" stop-color="#366994"/>
</linearGradient>
<linearGradient id="paint1_linear_135_228" x1="33.5426" y1="35.4487" x2="79.6119" y2="77.4976" gradientUnits="userSpaceOnUse">
<stop stop-color="#FFE052"/>
<stop offset="1" stop-color="#FFC331"/>
</linearGradient>
<clipPath id="clip0_135_228">
<rect width="84" height="87" fill="white"/>
</clipPath>
</defs>
</svg>
