<svg width="40" height="40" viewBox="0 0 40 40" fill="none" xmlns="http://www.w3.org/2000/svg">
<path d="M0.000154656 27.7243C-0.00223422 27.827 0.023089 27.9284 0.0735173 28.0182C0.123946 28.1079 0.197656 28.1828 0.287059 28.235L20.2872 39.9195C20.3795 39.9735 20.4851 40.0013 20.5923 40C20.6996 39.9986 20.8044 39.968 20.8952 39.9116L39.726 28.2271C39.8118 28.1739 39.8821 28.0995 39.9301 28.0114C39.9781 27.9232 40.0021 27.8242 39.9998 27.7241C39.9975 27.624 39.9689 27.5262 39.9169 27.4402C39.8649 27.3543 39.7913 27.2832 39.7032 27.2339L33.5078 23.7701L39.726 19.9116C39.8118 19.8584 39.8821 19.7841 39.9301 19.6959C39.9781 19.6077 40.0021 19.5087 39.9998 19.4086C39.9975 19.3085 39.9689 19.2107 39.9169 19.1248C39.8649 19.0388 39.7913 18.9677 39.7032 18.9184L33.5079 15.4546L39.726 11.5962C39.8118 11.543 39.8821 11.4686 39.9301 11.3804C39.9781 11.2923 40.0021 11.1933 39.9998 11.0931C39.9975 10.993 39.969 10.8952 39.917 10.8093C39.865 10.7233 39.7913 10.6522 39.7032 10.6029L20.8724 0.0748288C20.7868 0.0270005 20.6904 0.00128057 20.5921 4.65984e-05C20.4938 -0.00118738 20.3968 0.0221045 20.31 0.0677689L0.309909 10.5959C0.218271 10.6441 0.141278 10.7156 0.0868417 10.8031C0.0324052 10.8905 0.00248764 10.9907 0.000162462 11.0933C-0.00216272 11.196 0.0231885 11.2974 0.0736115 11.3872C0.124035 11.4769 0.197711 11.5518 0.287071 11.6041L6.87711 15.4542L0.309914 18.9113C0.218278 18.9596 0.141287 19.0311 0.0868517 19.1185C0.0324164 19.206 0.00249933 19.3062 0.000174171 19.4088C-0.00215099 19.5115 0.0231997 19.6129 0.0736215 19.7026C0.124043 19.7924 0.197718 19.8672 0.287077 19.9195L6.87733 23.7697L0.309902 27.2268C0.218232 27.275 0.141211 27.3466 0.0867686 27.434C0.0323261 27.5214 0.00242894 27.6216 0.000154656 27.7243ZM20.5761 1.23777L38.2738 11.1323L20.5755 22.1141L1.779 11.1326L20.5761 1.23777ZM8.05663 16.1433L20.2872 23.2889C20.3795 23.3429 20.4851 23.3707 20.5923 23.3693C20.6996 23.3679 20.8044 23.3374 20.8952 23.281L32.3816 16.1535L38.2738 19.4478L20.5755 30.4293L1.779 19.4481L8.05663 16.1433ZM8.05684 24.4589L20.2872 31.6041C20.3795 31.6581 20.4851 31.6859 20.5923 31.6845C20.6996 31.6831 20.8044 31.6525 20.8952 31.5962L32.3815 24.4689L38.2738 27.7633L20.5755 38.7448L1.779 27.7635L8.05684 24.4589Z" fill="url(#paint0_linear_211_271)"/>
<defs>
<linearGradient id="paint0_linear_211_271" x1="20" y1="0" x2="20" y2="40" gradientUnits="userSpaceOnUse">
<stop stop-color="#4169E1"/>
<stop offset="1" stop-color="#2ECC71"/>
</linearGradient>
</defs>
</svg>
