<svg width="84" height="87" viewBox="0 0 84 87" fill="none" xmlns="http://www.w3.org/2000/svg">
<path d="M42 17.332C30.8 17.332 23.8 23.132 21 34.732C25.2 28.932 30.1 26.757 35.7 28.207C38.8951 29.0343 41.1788 31.4351 43.7066 34.0926C47.8245 38.4216 52.5904 43.432 63 43.432C74.2 43.432 81.2 37.632 84 26.032C79.8 31.832 74.9 34.007 69.3 32.557C66.1049 31.7297 63.8212 29.329 61.2934 26.6715C57.1755 22.3424 52.4096 17.332 42 17.332ZM21 43.432C9.8 43.432 2.8 49.232 0 60.832C4.2 55.032 9.1 52.857 14.7 54.307C17.8951 55.1343 20.1788 57.5351 22.7066 60.1926C26.8245 64.5216 31.5904 69.532 42 69.532C53.2 69.532 60.2 63.732 63 52.132C58.8 57.932 53.9 60.107 48.3 58.657C45.1049 57.8297 42.8212 55.429 40.2934 52.7715C36.1755 48.4424 31.4096 43.432 21 43.432Z" fill="url(#paint0_linear_135_235)"/>
<path d="M42 17.332C30.8 17.332 23.8 23.132 21 34.732C25.2 28.932 30.1 26.757 35.7 28.207C38.8951 29.0343 41.1788 31.4351 43.7066 34.0926C47.8245 38.4216 52.5904 43.432 63 43.432C74.2 43.432 81.2 37.632 84 26.032C79.8 31.832 74.9 34.007 69.3 32.557C66.1049 31.7297 63.8212 29.329 61.2934 26.6715C57.1755 22.3424 52.4096 17.332 42 17.332ZM21 43.432C9.8 43.432 2.8 49.232 0 60.832C4.2 55.032 9.1 52.857 14.7 54.307C17.8951 55.1343 20.1788 57.5351 22.7066 60.1926C26.8245 64.5216 31.5904 69.532 42 69.532C53.2 69.532 60.2 63.732 63 52.132C58.8 57.932 53.9 60.107 48.3 58.657C45.1049 57.8297 42.8212 55.429 40.2934 52.7715C36.1755 48.4424 31.4096 43.432 21 43.432Z" fill="url(#paint1_linear_135_235)"/>
<defs>
<linearGradient id="paint0_linear_135_235" x1="-2.33333" y1="34.036" x2="71.4623" y2="75.1177" gradientUnits="userSpaceOnUse">
<stop stop-color="#2298BD"/>
<stop offset="1" stop-color="#0ED7B5"/>
</linearGradient>
<linearGradient id="paint1_linear_135_235" x1="-2.33333" y1="34.036" x2="71.4623" y2="75.1177" gradientUnits="userSpaceOnUse">
<stop stop-color="#2298BD"/>
<stop offset="1" stop-color="#0ED7B5"/>
</linearGradient>
</defs>
</svg>
