<svg width="83" height="87" viewBox="0 0 83 87" fill="none" xmlns="http://www.w3.org/2000/svg">
<g clip-path="url(#clip0_135_216)">
<path d="M6.48438 0H76.5156C80.0968 0 83 3.04306 83 6.79688V80.2031C83 83.9569 80.0968 87 76.5156 87H6.48438C2.90315 87 0 83.9569 0 80.2031V6.79688C0 3.04306 2.90315 0 6.48438 0Z" fill="#3178C6"/>
<path d="M48.8008 68.1302V77.5167C50.2572 78.299 51.9797 78.8856 53.9682 79.2767C55.9566 79.6679 58.0523 79.8633 60.2557 79.8633C62.4027 79.8633 64.4427 79.6482 66.375 79.2179C68.3074 78.7877 70.0021 78.0788 71.4581 77.0915C72.9145 76.1039 74.0675 74.8132 74.9172 73.2193C75.7667 71.6258 76.1914 69.6557 76.1914 67.3091C76.1914 65.6079 75.9486 64.1166 75.4632 62.8357C74.9779 61.5549 74.2775 60.4157 73.3626 59.4186C72.448 58.4212 71.3508 57.5267 70.0721 56.7345C68.7931 55.9427 67.3506 55.1947 65.7448 54.4909C64.5685 53.9821 63.5138 53.4887 62.5801 53.0095C61.6466 52.5303 60.8529 52.0416 60.1996 51.5427C59.546 51.0442 59.0419 50.5161 58.6872 49.9587C58.3325 49.4014 58.1551 48.771 58.1551 48.0668C58.1551 47.4215 58.3137 46.84 58.6311 46.3217C58.9485 45.8035 59.3969 45.3586 59.9756 44.9872C60.5543 44.6154 61.2637 44.3272 62.1041 44.1216C62.9442 43.9163 63.8779 43.8137 64.9047 43.8137C65.6517 43.8137 66.4405 43.8725 67.2712 43.9897C68.1021 44.107 68.9377 44.2878 69.778 44.5324C70.6181 44.7768 71.4348 45.0847 72.2285 45.4565C73.0218 45.8279 73.7549 46.2582 74.427 46.7469V37.9765C73.064 37.429 71.5749 37.0233 69.9599 36.7592C68.345 36.4951 66.4918 36.3633 64.4005 36.3633C62.272 36.3633 60.2557 36.6029 58.3513 37.0821C56.4468 37.5609 54.7709 38.3089 53.3239 39.3257C51.8769 40.3429 50.7334 41.6383 49.893 43.2125C49.053 44.7866 48.6328 46.6687 48.6328 48.859C48.6328 51.6552 49.4028 54.0409 50.9435 56.0161C52.4839 57.9909 54.8221 59.663 57.959 61.0319C59.1913 61.56 60.3397 62.0779 61.4038 62.5866C62.4682 63.095 63.3877 63.6228 64.1626 64.1703C64.9374 64.7178 65.5489 65.3142 65.997 65.9596C66.4451 66.605 66.6691 67.3383 66.6691 68.1597C66.6691 68.7657 66.529 69.3281 66.2489 69.8464C65.9691 70.3643 65.5441 70.8143 64.9747 71.1956C64.4054 71.5769 63.6957 71.8749 62.8462 72.09C61.9968 72.3052 61.0024 72.4129 59.8634 72.4129C57.9217 72.4129 55.9987 72.056 54.0943 71.342C52.1895 70.6284 50.4251 69.5579 48.8008 68.1302ZM33.875 44.7717H45.3906V37.043H13.293V44.7717H24.7524V79.1836H33.875V44.7717Z" fill="white"/>
</g>
<defs>
<clipPath id="clip0_135_216">
<rect width="83" height="87" fill="white"/>
</clipPath>
</defs>
</svg>
