<svg width="84" height="87" viewBox="0 0 84 87" fill="none" xmlns="http://www.w3.org/2000/svg">
<rect width="84" height="87" fill="white"/>
<path d="M23.672 36.3967C23.672 37.4673 23.7837 38.3354 23.9793 38.9719C24.2028 39.6085 24.4822 40.303 24.8733 41.0553C25.013 41.2868 25.0688 41.5182 25.0688 41.7208C25.0688 42.0101 24.9012 42.2995 24.538 42.5888L22.778 43.8041C22.5265 43.9777 22.2751 44.0645 22.0516 44.0645C21.7722 44.0645 21.4928 43.9199 21.2135 43.6595C20.8223 43.2254 20.4871 42.7625 20.2077 42.2995C19.9283 41.8076 19.649 41.2578 19.3417 40.5923C17.1625 43.2544 14.4247 44.5854 11.128 44.5854C8.78127 44.5854 6.90946 43.8909 5.54052 42.502C4.17158 41.1131 3.47314 39.2613 3.47314 36.9465C3.47314 34.487 4.31127 32.4904 6.01546 30.9858C7.71965 29.4812 9.98259 28.7288 12.8602 28.7288C13.81 28.7288 14.7878 28.8157 15.8215 28.9603C16.8552 29.105 17.9168 29.3365 19.0343 29.5969V27.4846C19.0343 25.2855 18.5873 23.752 17.7213 22.855C16.8273 21.958 15.3187 21.524 13.1675 21.524C12.1897 21.524 11.1839 21.6397 10.1502 21.9001C9.11652 22.1605 8.11077 22.4788 7.13296 22.8839C6.68596 23.0865 6.35071 23.2022 6.15515 23.2601C5.95958 23.3179 5.8199 23.3469 5.70815 23.3469C5.31702 23.3469 5.12146 23.0575 5.12146 22.4499V21.0321C5.12146 20.5691 5.17733 20.2219 5.31702 20.0193C5.45671 19.8168 5.70815 19.6142 6.09927 19.4117C7.07708 18.8908 8.25046 18.4568 9.6194 18.1096C10.9883 17.7334 12.4411 17.5598 13.9777 17.5598C17.3022 17.5598 19.7328 18.3411 21.2973 19.9036C22.8338 21.4661 23.6161 23.8388 23.6161 27.0217V36.3967H23.672ZM12.3293 40.7949C13.2513 40.7949 14.2012 40.6212 15.2069 40.274C16.2127 39.9268 17.1067 39.2902 17.861 38.4222C18.308 37.8724 18.6432 37.2648 18.8108 36.5703C18.9785 35.8759 19.0902 35.0367 19.0902 34.0529V32.8377C18.28 32.6351 17.414 32.4615 16.52 32.3458C15.626 32.23 14.7599 32.1721 13.8938 32.1721C12.022 32.1721 10.6531 32.5483 9.73115 33.3296C8.80921 34.1108 8.36221 35.2103 8.36221 36.6571C8.36221 38.0171 8.69746 39.0298 9.3959 39.7243C10.0664 40.4476 11.0442 40.7949 12.3293 40.7949ZM34.7632 43.9199C34.2603 43.9199 33.925 43.8331 33.7015 43.6305C33.478 43.4569 33.2825 43.0518 33.1149 42.502L26.5495 20.1351C26.3819 19.5564 26.2981 19.1802 26.2981 18.9777C26.2981 18.5147 26.5216 18.2543 26.9686 18.2543H29.7065C30.2373 18.2543 30.6005 18.3411 30.796 18.5436C31.0195 18.7172 31.1872 19.1223 31.3548 19.6721L36.0483 38.8273L40.4065 19.6721C40.5462 19.0934 40.7139 18.7172 40.9374 18.5436C41.1609 18.37 41.552 18.2543 42.0549 18.2543H44.2899C44.8207 18.2543 45.1839 18.3411 45.4074 18.5436C45.6309 18.7172 45.8264 19.1223 45.9382 19.6721L50.3523 39.0587L55.1855 19.6721C55.3531 19.0934 55.5487 18.7172 55.7442 18.5436C55.9677 18.37 56.3309 18.2543 56.8338 18.2543H59.432C59.879 18.2543 60.1304 18.4858 60.1304 18.9777C60.1304 19.1223 60.1025 19.267 60.0746 19.4406C60.0466 19.6142 59.9907 19.8457 59.879 20.164L53.1461 42.531C52.9784 43.1097 52.7829 43.4858 52.5594 43.6595C52.3359 43.8331 51.9727 43.9488 51.4977 43.9488H49.0951C48.5643 43.9488 48.2011 43.862 47.9776 43.6595C47.7541 43.4569 47.5586 43.0807 47.4468 42.502L43.1165 23.8388L38.8141 42.4731C38.6744 43.0518 38.5068 43.428 38.2833 43.6305C38.0598 43.8331 37.6687 43.9199 37.1658 43.9199H34.7632ZM70.6629 44.7011C69.2101 44.7011 67.7574 44.5275 66.3605 44.1803C64.9636 43.8331 63.8741 43.4569 63.1477 43.0229C62.7007 42.7625 62.3934 42.4731 62.2816 42.2127C62.1699 41.9523 62.114 41.6629 62.114 41.4025V39.9268C62.114 39.3192 62.3375 39.0298 62.7566 39.0298C62.9242 39.0298 63.0918 39.0587 63.2594 39.1166C63.4271 39.1745 63.6785 39.2902 63.9579 39.406C64.9077 39.84 65.9414 40.1872 67.031 40.4187C68.1485 40.6502 69.2381 40.7659 70.3556 40.7659C72.1156 40.7659 73.4846 40.4476 74.4344 39.8111C75.3843 39.1745 75.8872 38.2486 75.8872 37.0622C75.8872 36.252 75.6358 35.5865 75.1329 35.0367C74.63 34.487 73.6801 33.9951 72.3112 33.5321L68.2603 32.23C66.2208 31.5645 64.7122 30.5807 63.7902 29.2786C62.8683 28.0055 62.3934 26.5876 62.3934 25.083C62.3934 23.8677 62.6448 22.7971 63.1477 21.8712C63.6506 20.9453 64.3211 20.1351 65.1592 19.4985C65.9973 18.833 66.9472 18.3411 68.0647 17.9939C69.1822 17.6466 70.3556 17.502 71.5848 17.502C72.1994 17.502 72.842 17.5309 73.4566 17.6177C74.0992 17.7045 74.6859 17.8202 75.2726 17.936C75.8313 18.0807 76.3621 18.2253 76.865 18.3989C77.3679 18.5726 77.759 18.7462 78.0384 18.9198C78.4295 19.1513 78.7089 19.3827 78.8765 19.6432C79.0441 19.8746 79.1279 20.1929 79.1279 20.598V21.958C79.1279 22.5656 78.9044 22.8839 78.4854 22.8839C78.2619 22.8839 77.8987 22.7682 77.4238 22.5367C75.8313 21.7844 74.0433 21.4082 72.0598 21.4082C70.4673 21.4082 69.2101 21.6686 68.3441 22.2184C67.478 22.7682 67.031 23.6073 67.031 24.7936C67.031 25.6038 67.3104 26.2983 67.8691 26.8481C68.4279 27.3978 69.4616 27.9476 70.9423 28.4395L74.9094 29.7416C76.9209 30.4071 78.3736 31.333 79.2397 32.5194C80.1058 33.7057 80.5248 35.0657 80.5248 36.5703C80.5248 37.8145 80.2734 38.943 79.7984 39.9268C79.2956 40.9106 78.6251 41.7787 77.759 42.4731C76.8929 43.1965 75.8593 43.7173 74.6579 44.0935C73.4008 44.4986 72.0877 44.7011 70.6629 44.7011Z" fill="#252F3E"/>
<path d="M75.9431 58.7638C66.7517 65.7951 53.3975 69.5277 41.9152 69.5277C25.8232 69.5277 11.3236 63.3645 0.372133 53.1214C-0.493931 52.3112 0.28832 51.2117 1.32201 51.8483C13.1675 58.9663 27.7788 63.2777 42.893 63.2777C53.0902 63.2777 64.2932 61.0786 74.6021 56.5647C76.1387 55.8413 77.4517 57.6064 75.9431 58.7638ZM79.7706 54.2499C78.5972 52.6874 72.0039 53.4976 69.0146 53.8737C68.1206 53.9895 67.9809 53.1793 68.7911 52.5716C74.0434 48.7522 82.6761 49.8517 83.6818 51.1249C84.6876 52.427 83.4024 61.368 78.4854 65.6504C77.7311 66.3159 77.0047 65.9687 77.34 65.1006C78.4575 62.236 80.9439 55.7835 79.7706 54.2499Z" fill="#FF9900"/>
</svg>
