<svg width="90" height="35" viewBox="0 0 90 35" fill="none" xmlns="http://www.w3.org/2000/svg">
<path d="M13.0931 0C12.4387 2.59564 11.8086 5.16372 11.1541 7.75938C11.3238 7.75938 11.4692 7.75938 11.5904 7.75938C12.9234 7.75938 14.2566 7.81452 15.5896 7.75938C17.8438 7.64887 20.5584 9.44376 21.4552 12.6193C21.8672 14.1103 21.8914 15.6291 21.6006 17.1478C21.1158 19.6331 20.3402 21.9801 19.0072 24.0512C17.359 26.6192 15.1291 27.9446 12.3418 27.9722C8.56063 27.9998 4.80385 27.9722 1.02267 27.9722C0.94998 27.9722 0.87729 27.9446 0.756104 27.9446C1.02267 26.9781 1.26515 26.0393 1.50752 25.1004C3.73737 16.8716 5.94303 8.64298 8.14868 0.386581C8.22137 0.11045 8.34256 0 8.60912 0C10.0877 0.0276032 11.5662 0 13.0931 0ZM7.27607 23.4161C7.39726 23.4436 7.44575 23.4436 7.51844 23.4436C8.73031 23.4436 9.94228 23.4713 11.1298 23.4161C12.3418 23.3608 13.4567 22.9743 14.4263 22.1182C16.2199 20.5442 17.0439 18.3904 17.0924 15.85C17.1167 14.3037 16.3653 13.1992 15.0806 12.6744C14.6928 12.5088 14.2808 12.3984 13.8687 12.3707C12.6811 12.3154 11.4692 12.3431 10.2815 12.3155C10.0392 12.3155 9.96647 12.4535 9.91798 12.6744C9.26355 15.3529 8.58493 18.0314 7.90631 20.7099C7.71232 21.6212 7.49425 22.5048 7.27607 23.4161Z" fill="#DD5A46"/>
<path d="M87.3807 30.4594C87.3565 30.5975 87.3322 30.7356 87.308 30.846C86.9686 32.1162 86.6294 33.3588 86.3142 34.6289C86.2415 34.9051 86.1446 35.0432 85.878 34.9879C85.8295 34.9879 85.7568 34.9879 85.6841 34.9879C66.8271 34.9879 47.97 34.9879 29.0888 34.9879C28.9192 34.9879 28.7253 34.9879 28.4829 34.9879C28.5556 34.8223 28.6041 34.7119 28.6525 34.6014C29.3554 33.3311 30.0825 32.0334 30.7854 30.7631C30.9066 30.5422 31.0278 30.4317 31.2702 30.4317C49.8364 30.4317 68.4267 30.4317 86.9929 30.4317C87.1141 30.4317 87.2353 30.4594 87.3807 30.4594Z" fill="#DD5A46"/>
<path d="M74.9954 21.5961C74.6076 22.3693 74.2926 23.0597 73.9047 23.7224C72.2808 26.5942 69.9298 28.1129 66.9485 28.4166C65.4215 28.5823 63.8945 28.5823 62.3918 28.0852C59.871 27.2569 58.2471 25.1583 58.0532 22.2036C57.7138 17.0951 59.265 12.7875 62.8038 9.55674C64.7428 7.78954 67.0454 7.12684 69.5177 7.32005C70.8992 7.43056 72.2323 7.73428 73.4442 8.53506C75.1409 9.66725 75.9892 11.4344 76.28 13.6159C76.5224 15.4383 76.2557 17.2056 75.8922 18.9453C75.8195 19.3043 75.6256 19.249 75.4317 19.249C72.1111 19.249 68.7906 19.249 65.47 19.249C64.6701 19.249 63.8702 19.249 63.0704 19.249C62.9492 19.249 62.7311 19.3871 62.7311 19.4975C62.7069 20.2984 62.6099 21.0991 62.7554 21.8722C62.9977 23.2529 63.943 24.0537 65.2518 24.3022C67.1909 24.6612 68.6451 23.8604 69.7601 22.0931C70.0024 21.7066 70.269 21.5961 70.6569 21.5961C72.0626 21.6238 73.4685 21.5961 74.9954 21.5961ZM71.7475 15.7422C71.6991 15.0518 71.6991 14.3614 71.6022 13.7264C71.4082 12.5114 70.7296 11.7659 69.6874 11.6001C69.0087 11.4897 68.3057 11.4897 67.6271 11.6278C65.5911 12.0696 64.4035 13.6436 63.6279 15.6869C63.6279 15.7145 63.6522 15.7422 63.6522 15.7697C66.2941 15.7422 68.9845 15.7422 71.7475 15.7422Z" fill="#DD5A46"/>
<path d="M37.064 27.9731C37.3548 26.8686 37.6215 25.847 37.8881 24.7976C39.3181 19.275 40.7482 13.7799 42.1539 8.25732C42.2267 7.9536 42.3479 7.81552 42.6629 7.81552C44.0687 7.84309 45.4745 7.81552 46.9288 7.81552C46.6864 8.75438 46.444 9.63798 46.1774 10.6044C46.6379 10.135 47.0258 9.69323 47.462 9.30656C49.595 7.40129 52.0187 6.87667 54.6606 7.51168C56.4785 7.9536 57.448 9.44464 57.4965 11.6261C57.5207 12.8411 57.2298 13.9733 56.939 15.133C55.8483 19.275 54.7818 23.4446 53.6911 27.5866C53.6669 27.697 53.6184 27.8351 53.5942 27.9456C51.9702 27.9456 50.3706 27.9456 48.7467 27.9456C49.0374 26.8134 49.3283 25.7364 49.595 24.6319C50.4675 21.2355 51.3401 17.8668 52.1642 14.4426C52.5519 12.8688 51.849 11.8194 50.3948 11.6538C48.7467 11.488 47.4378 12.2889 46.3955 13.6419C45.5472 14.7464 45.014 16.0719 44.6504 17.4525C43.7779 20.7937 42.9053 24.1073 42.0327 27.4485C41.9358 27.8351 41.7661 27.9456 41.4268 27.9456C40.1422 27.918 38.8334 27.9456 37.5487 27.9456C37.4033 27.9731 37.2578 27.9731 37.064 27.9731Z" fill="#DD5A46"/>
<path d="M23.3674 7.84403C25.0155 7.84403 26.6637 7.84403 28.3361 7.84403C28.4815 12.6211 28.6269 17.3982 28.7724 22.1753C28.7966 22.1753 28.8209 22.203 28.8451 22.203C28.9178 22.0649 29.0148 21.8993 29.0875 21.7612C31.3658 17.2326 33.6199 12.7316 35.8983 8.20301C36.0437 7.92686 36.1649 7.81647 36.4557 7.81647C37.9101 7.84403 39.3643 7.81647 40.8185 7.81647C40.9155 7.81647 41.0367 7.81647 41.1821 7.81647C41.1337 7.95454 41.0852 8.03737 41.0609 8.12019C36.6981 15.7967 32.3353 23.4731 27.9726 31.1773C27.415 32.1713 26.7606 33.055 25.9123 33.7453C25.0155 34.4632 24.0217 34.8499 22.9553 34.905C21.5253 34.9878 20.071 34.9327 18.641 34.9603C18.5925 34.9603 18.5197 34.9327 18.4229 34.9327C18.8106 33.414 19.1742 31.9504 19.562 30.4317C20.4346 30.4317 21.2586 30.4593 22.1069 30.4317C22.8342 30.4041 23.4401 29.9899 23.9005 29.3824C24.2399 28.9406 24.555 28.4436 24.8701 27.9465C24.9428 27.8084 24.967 27.6152 24.967 27.4219C24.555 22.4239 24.143 17.4259 23.7552 12.4279C23.634 10.9643 23.5128 9.52853 23.4158 8.06493C23.3674 8.0098 23.3674 7.95455 23.3674 7.84403Z" fill="#DD5A46"/>
<path d="M89.2244 23.4453C88.7881 24.9918 88.3518 26.4828 87.9398 27.974C87.7944 27.974 87.6489 27.974 87.5277 27.974C85.1767 27.974 82.8498 27.974 80.4988 27.974C80.1353 27.974 79.7716 27.9464 79.4323 27.8635C78.0023 27.5045 77.154 26.1238 77.4449 24.3291C77.6872 22.8103 78.0992 21.3467 78.4628 19.8557C79.1415 17.2048 79.8201 14.5815 80.523 11.9583C80.5472 11.8478 80.5715 11.7097 80.62 11.5441C79.5535 11.5441 78.5355 11.5441 77.4449 11.5441C77.6629 10.7433 77.8811 9.9701 78.0992 9.22458C78.2447 8.75509 78.2689 8.14764 78.5597 7.89918C78.8264 7.67816 79.3596 7.84392 79.7959 7.81623C80.2806 7.81623 80.7654 7.78867 81.2501 7.81623C81.5168 7.81623 81.6622 7.7611 81.7349 7.42969C82.1712 5.6348 82.656 3.83992 83.0922 2.07272C83.1649 1.79659 83.2619 1.71375 83.5285 1.71375C85.0312 1.74136 86.5097 1.71375 88.061 1.71375C87.5277 3.75713 87.0188 5.77288 86.5097 7.84392C87.6974 7.84392 88.8124 7.84392 89.9999 7.84392C89.7334 8.81034 89.491 9.72163 89.2244 10.6328C88.982 11.5441 88.9578 11.5441 88.158 11.5441C87.2853 11.5441 86.4128 11.5441 85.516 11.5441C85.104 13.1456 84.7161 14.6919 84.3041 16.2384C83.8678 17.9227 83.4316 19.6348 83.0195 21.3192C82.9468 21.5953 82.8983 21.8715 82.8983 22.1475C82.874 22.9483 83.2619 23.4178 83.9648 23.4178C85.5887 23.4178 87.2127 23.4178 88.8608 23.4453C88.9093 23.4453 89.0548 23.4453 89.2244 23.4453Z" fill="#DD5A46"/>
<path d="M0.0274622 30.4582C5.893 30.4582 11.7343 30.4582 17.6241 30.4582C17.5757 30.6791 17.5272 30.8724 17.4545 31.0658C17.1393 32.2531 16.8001 33.4404 16.5092 34.6554C16.4364 34.8763 16.3637 34.9868 16.1214 34.9868C11.8797 34.9868 7.63811 35.0144 3.39648 34.9591C1.16663 34.9591 -0.21491 33.0539 0.0274622 30.4582Z" fill="#DD5A46"/>
</svg>
