<svg width="83" height="87" viewBox="0 0 83 87" fill="none" xmlns="http://www.w3.org/2000/svg">
<path d="M64.6993 24.4683L66.4905 25.8276C69.6055 28.4613 71.3966 31.4348 71.786 34.8331C75.1346 34.1534 79.4177 34.6632 81.2867 36.0225L83 37.1269L82.6885 37.8066C82.1434 39.0809 81.9876 39.4208 81.9097 39.5907C78.8726 45.9625 72.8762 46.0475 70.0727 45.9625C62.9861 64.5682 47.8783 74.8481 27.475 74.8481C18.0521 74.8481 10.8876 71.7046 6.05929 65.5027C-0.326479 57.3468 -0.326479 46.7271 0.218648 43.3288L0.374398 42.6492H56.6782C59.6374 42.6492 61.8958 41.7996 62.9861 41.1199C61.8179 39.2509 61.4286 37.1269 61.3507 35.9375C61.1171 32.5392 61.8958 28.971 63.4533 26.4223L64.6993 24.4683ZM15.0149 32.4543V40.95H6.44866V32.4543H15.0149ZM25.1387 32.4543V40.95H16.5724V32.4543H25.1387ZM35.2625 32.4543V40.95H26.6962V32.4543H35.2625ZM45.3863 32.4543V40.95H36.82V32.4543H45.3863ZM55.51 32.4543V40.95H46.9438V32.4543H55.51ZM45.3863 22.2594V30.7551H36.82V22.2594H45.3863ZM35.2625 22.2594V30.7551H26.6962V22.2594H35.2625ZM25.1387 22.2594V30.7551H16.5724V22.2594H25.1387ZM45.3863 12.0645V20.5602H36.82V12.0645H45.3863Z" fill="#2396ED"/>
</svg>
