<svg width="84" height="87" viewBox="0 0 84 87" fill="none" xmlns="http://www.w3.org/2000/svg">
<path fill-rule="evenodd" clip-rule="evenodd" d="M11.6624 78.3032L4.92188 0H78.9888L72.2411 78.2909L41.91 87L11.6624 78.3032Z" fill="#E44D26"/>
<path fill-rule="evenodd" clip-rule="evenodd" d="M41.9553 80.3432L66.4643 73.3056L72.2307 6.40247H41.9553V80.3432Z" fill="#F16529"/>
<path d="M29.6856 35.444H41.9554V45.0474H21.2055L18.7046 16.0061H41.9554V25.6098H28.8382L29.6856 35.444Z" fill="#EBEBEB"/>
<path d="M41.9147 60.3967L41.9554 60.3855V70.3772L41.9127 70.3895L22.9189 64.9283L21.6198 49.8494H30.9279L31.588 57.5086L41.9147 60.3967Z" fill="#EBEBEB"/>
<path d="M41.9233 16.0061H65.1509L64.3206 25.6098H41.9233V16.0061Z" fill="white"/>
<path d="M41.9233 45.0474V35.444H63.4769L63.2507 38.0228L60.9323 64.9283L41.9233 70.3848V60.3935L52.265 57.5025L53.3413 45.0474H41.9233Z" fill="white"/>
</svg>
