<svg width="81" height="33" viewBox="0 0 81 33" fill="none" xmlns="http://www.w3.org/2000/svg">
<g clip-path="url(#clip0_119_153)">
<path d="M62.6921 0.00119019V16.0035L62.4879 16.1721L62.2838 16.3407L62.0881 16.5178L61.901 16.6948L61.7223 16.8719L61.5437 17.0574L61.3736 17.2428L61.2034 17.4283V0.00119019H43.3137V14.5702H41.8335V0.00119019H23.9439V14.5955H22.4637V0.00119019H4.57399V16.6358L0.00585938 31.7191H4.02105L6.03715 25.0416H6.61561L9.95025 31.7191H14.7991L11.5665 25.0416H18.8993L16.8662 31.7191H21.2472L23.2548 25.0585H24.2246V25.0416H25.6027H25.7133H33.9903L32.0508 31.7022H36.4743L38.3543 25.0416H40.3449L40.3959 31.7022H44.1048L48.3667 25.0416H51.1569L49.7108 31.7022H54.0662L55.4869 25.0416H58.0048L57.9878 25.421L57.9968 25.8088L58.0138 26.1798L58.0478 26.5508L58.0733 26.7278L58.0988 26.9049L58.1328 27.0819L58.1668 27.259L58.2093 27.436L58.2518 27.6046L58.3028 27.7733L58.3538 27.9419L58.4134 28.1105L58.473 28.2707L58.541 28.4309L58.6091 28.5826L58.6857 28.7428L58.7623 28.8946L58.8474 29.0379L58.9325 29.1897L59.0261 29.333L59.1282 29.4679L59.2303 29.6113L59.3409 29.7377L59.4515 29.8726L59.5621 29.9991L59.6897 30.1255L59.8173 30.2436L59.9789 30.3785L60.1405 30.5134L60.3107 30.6398L60.4893 30.7579L60.6679 30.8759L60.8466 30.9855L61.0337 31.0782L61.2294 31.1794L61.4165 31.2637L61.6122 31.348L61.8078 31.4239L62.012 31.4998L62.2162 31.5673L62.4203 31.6263L62.6245 31.6853L62.8287 31.7359L63.237 31.8286L63.6538 31.8961L64.0621 31.9551L64.4705 32.0057L64.8703 32.0394L65.2616 32.0563L65.6444 32.0732H66.0102L66.5036 32.0652L66.997 32.0572L67.4989 32.0319L68.0008 32.0066L68.5027 31.9644L69.0046 31.9222L69.5065 31.8716L70.0084 31.8126L70.5188 31.7451L71.0292 31.6692L71.5396 31.5849L72.05 31.5006L72.5604 31.4079L73.0708 31.3067L73.5812 31.2056L74.1001 31.0875L75.6143 25.0424H80.5823V0.00197019L62.6921 0.00119019ZM6.2328 24.4177L6.2583 24.325L6.3179 24.4177H6.2328ZM21.8172 15.447L21.562 16.2985L19.1801 24.1395L19.0865 24.4177H11.2603L10.6563 23.1362L19.0865 14.5955H13.6677L7.07495 21.6354L9.21014 14.5955H5.21197V0.63353H21.8171L21.8172 15.447ZM26.4363 22.0739L26.3087 22.0819L26.1896 22.0899L26.062 22.0979H25.9259H25.7473H25.5942L25.4495 22.1059H25.3134L24.2501 22.0979L24.7435 20.2936L24.9732 19.3999L25.5346 17.3006H25.7133H25.9004L26.079 17.2926H26.2492H27.0743L27.5762 17.3006L28.0356 17.3175L28.2398 17.3255L28.4354 17.3424L28.6226 17.3677L28.7927 17.393L28.9458 17.4183L29.0904 17.4605L29.2265 17.5027L29.3456 17.5533L29.4477 17.6039L29.5413 17.6714L29.6264 17.7389L29.6944 17.8232L29.7369 17.8907L29.7709 17.9582L29.8049 18.0341L29.8304 18.1184L29.8474 18.2111L29.8564 18.3038V18.4049V18.5145L29.8474 18.6326L29.8394 18.7506L29.8139 18.8855L29.7884 19.0204L29.7118 19.3071L29.6182 19.6274L29.5246 19.8972L29.4225 20.1586L29.312 20.4031L29.1929 20.6307L29.1333 20.7319L29.0737 20.8331L29.0056 20.9343L28.929 21.027L28.8524 21.1197L28.7758 21.204L28.6907 21.2883L28.6056 21.3642L28.512 21.4317L28.4184 21.5076L28.3163 21.5666L28.2057 21.6341L28.0951 21.6931L27.976 21.7437L27.8569 21.7943L27.7293 21.8365L27.5932 21.8871L27.4486 21.9208L27.2955 21.9545L27.1423 21.9882L26.9722 22.0135L26.8021 22.0388L26.6234 22.0557L26.4363 22.0726L26.4363 22.0739ZM38.5329 24.4177L40.2768 18.263L40.3449 24.4177H38.5329ZM41.187 14.5702H37.0357L34.1775 24.4177H29.771L29.9751 24.3334L30.1793 24.2491L30.375 24.1648L30.5706 24.0721L30.7578 23.9794L30.9364 23.8698L31.115 23.7686L31.2852 23.659L31.4553 23.541L31.6169 23.423L31.7701 23.3049L31.9232 23.17L32.0678 23.0436L32.2039 22.9002L32.34 22.7653L32.4676 22.6136L32.5952 22.4702L32.7143 22.3101L32.8249 22.1583L32.9355 21.9897L33.0376 21.821L33.1312 21.6524L33.2248 21.4754L33.3099 21.2899L33.395 21.1044L33.4716 20.9189L33.5396 20.725L33.6077 20.5227L33.6587 20.3203L33.7183 20.118L33.7608 19.8988L33.8033 19.688L33.8629 19.3507L33.9139 19.0303L33.9479 18.7268L33.9734 18.4402L33.9824 18.1535L33.9734 17.8922L33.9654 17.6308L33.9314 17.3863L33.8974 17.1586L33.8378 16.931L33.7782 16.7202L33.6931 16.5179L33.5995 16.324L33.4974 16.13L33.3783 15.953L33.2422 15.7844L33.1316 15.6663L33.021 15.5483L32.9019 15.4471L32.7743 15.3544L32.6382 15.2617L32.5021 15.1774L32.3575 15.1015L32.2129 15.034L32.0597 14.9665L31.9066 14.9159L31.745 14.8653L31.5834 14.8147L31.4132 14.7725L31.2431 14.7388L31.073 14.7051L30.8943 14.6798L30.5285 14.6292L30.1627 14.6039L29.7884 14.5786L29.4056 14.5706H28.64H27.8829H27.6447H27.2194H26.692H26.105H25.5351H25.0502H24.7099H24.5823V0.63398H41.1875L41.187 14.5702ZM51.276 24.4177H48.7836L52.5606 18.5159L51.276 24.4177ZM60.5569 14.8484L60.5479 18.263L60.3352 18.5581L60.1396 18.8616L59.9439 19.1651L59.7653 19.4687L59.5951 19.7722L59.425 20.0841L59.2804 20.3876L59.1358 20.6912L58.9997 20.9863L58.8806 21.2898L58.7615 21.5849L58.6594 21.8715L58.5658 22.1582L58.4807 22.4364L58.4041 22.7062L58.336 22.976L58.2935 23.153L58.251 23.3385L58.2085 23.5156L58.1745 23.7011L58.1405 23.8781L58.115 24.0552L58.0895 24.2322L58.0725 24.4177H55.6311L57.7152 14.5955L50.6887 14.5875L44.4022 24.4182H43.9428V0.63396H60.5565L60.5569 14.8484ZM70.1355 28.4394L69.7867 28.4984L69.4295 28.549L69.0722 28.5996L68.7234 28.6418L68.3746 28.6755L68.0258 28.7008L67.6856 28.7177H67.3453H67.1241L66.9029 28.7097L66.6903 28.6928L66.4776 28.6675L66.2734 28.6338L66.0778 28.6001L65.8821 28.5579L65.695 28.5073L65.5163 28.4483L65.3377 28.3893L65.1676 28.3134L65.0059 28.2375L64.8443 28.1448L64.6912 28.0521L64.5466 27.9509L64.4105 27.8497L64.2744 27.7317L64.1553 27.6052L64.0362 27.4787L63.9256 27.3354L63.8235 27.1921L63.7299 27.0319L63.6448 26.8717L63.5597 26.7031L63.4916 26.526L63.432 26.3321L63.381 26.1382L63.33 25.9359L63.296 25.7251L63.2705 25.5059L63.2535 25.2782L63.2445 25.0421H70.9856L70.1355 28.4394ZM79.9523 24.4177H75.767L76.456 21.6692H68.0684L67.3793 24.4177H63.3216V23.8528L63.3726 23.6168L63.4151 23.3807L63.4661 23.1278L63.5171 22.8748L63.5937 22.5966L63.6703 22.3184L63.7554 22.0401L63.849 21.7703L63.9511 21.5005L64.0617 21.2308L64.1808 20.9694L64.2999 20.708L64.436 20.4467L64.5721 20.2022L64.7167 19.9492L64.8783 19.7132L65.0399 19.4771L65.2016 19.2494L65.3802 19.0302L65.5674 18.8195L65.763 18.6171L65.9587 18.4316L66.1713 18.2461L66.384 18.0691L66.6052 17.9089L66.8434 17.7571L67.0816 17.6222L67.3283 17.4958L67.5835 17.3777L67.8472 17.2766L68.1194 17.1923L68.4001 17.1248L68.6893 17.0658L68.9871 17.0236L69.2933 16.9983L69.6081 16.9903L69.8548 16.9983L70.1015 17.0152L70.3482 17.0489L70.5863 17.0995L70.7054 17.1332L70.816 17.1669L70.9266 17.2006L71.0287 17.2512L71.1308 17.2934L71.2329 17.3524L71.3265 17.4114L71.4201 17.4704L71.5052 17.5463L71.5903 17.6222L71.6669 17.6981L71.7435 17.7908L71.8116 17.8751L71.8712 17.9762L71.9222 18.0858L71.9732 18.1954L72.0157 18.3135L72.0497 18.4399L72.0752 18.5664L72.1007 18.7097L72.1097 18.8531V19.0048V19.165L72.0927 19.3336H77.0946L77.1712 18.988L77.2393 18.5917L77.2733 18.3809L77.2903 18.1533L77.3073 17.9256V17.6896L77.2993 17.4451L77.2738 17.1921L77.2483 17.0741L77.2313 16.9476L77.1973 16.8212L77.1633 16.6947L77.1208 16.5598L77.0783 16.4333L77.0273 16.3069L76.9677 16.1804L76.9081 16.0539L76.8315 15.9275L76.7549 15.801L76.6698 15.6745L76.5677 15.5396L76.4572 15.4132L76.3466 15.2867L76.2275 15.1687L76.0999 15.0506L75.9638 14.941L75.8277 14.8399L75.6831 14.7387L75.5299 14.6375L75.3768 14.5532L75.2152 14.4689L75.045 14.3846L74.8749 14.3087L74.6963 14.2328L74.5091 14.1653L74.322 14.0978L74.1348 14.0388L73.9307 13.9882L73.735 13.9376L73.5223 13.887L73.3097 13.8448L73.097 13.8026L72.8758 13.7689L72.6461 13.7436L72.1783 13.693L71.7019 13.6508L71.2 13.6339L70.6896 13.6259L70.3068 13.6339L69.907 13.6419L69.4901 13.6672L69.0563 13.7009L68.6054 13.7515L68.1461 13.8105L67.6782 13.8864L67.2018 13.9876L66.9636 14.0382L66.7169 14.0972L66.4787 14.1647L66.232 14.2322L65.9854 14.3081L65.7387 14.3924L65.492 14.4767L65.2538 14.5694L65.0071 14.6706L64.7604 14.7802L64.5222 14.8898L64.2755 15.0078L64.0373 15.1343L63.7991 15.2692L63.5609 15.4041L63.3227 15.5558V0.63274H79.9534V24.4169L79.9523 24.4177Z" fill="#003087"/>
</g>
<defs>
<clipPath id="clip0_119_153">
<rect width="80.58" height="32.08" fill="white"/>
</clipPath>
</defs>
</svg>
