<svg width="50" height="50" viewBox="0 0 50 50" fill="none" xmlns="http://www.w3.org/2000/svg">
<path d="M11.6387 16.0658H1.60113C1.15565 16.0658 0.794678 16.4278 0.794678 16.8741V49.1916C0.794678 49.6381 1.15565 49.9998 1.60113 49.9998H11.6387C12.0842 49.9998 12.4452 49.6381 12.4452 49.1916V16.8741C12.4452 16.4278 12.0842 16.0658 11.6387 16.0658Z" fill="black"/>
<path d="M6.62355 0C2.97129 0 0 2.97461 0 6.63088C0 10.2888 2.97129 13.2645 6.62355 13.2645C10.2729 13.2645 13.2418 10.2886 13.2418 6.63088C13.2419 2.97461 10.2729 0 6.62355 0Z" fill="black"/>
<path d="M37.1698 15.2626C33.1384 15.2626 30.1582 16.9995 28.3506 18.973V16.8741C28.3506 16.4278 27.9897 16.0658 27.5442 16.0658H17.9315C17.486 16.0658 17.125 16.4278 17.125 16.8741V49.1916C17.125 49.6381 17.486 49.9998 17.9315 49.9998H27.9471C28.3926 49.9998 28.7535 49.6381 28.7535 49.1916V33.2019C28.7535 27.8138 30.2139 25.7146 33.9616 25.7146C38.0432 25.7146 38.3676 29.0798 38.3676 33.4791V49.1918C38.3676 49.6382 38.7285 50 39.174 50H49.1934C49.6389 50 49.9998 49.6382 49.9998 49.1918V31.465C49.9998 23.4531 48.4755 15.2626 37.1698 15.2626Z" fill="black"/>
</svg>
