<svg width="84" height="87" viewBox="0 0 84 87" fill="none" xmlns="http://www.w3.org/2000/svg">
<path d="M69.0649 29.8463C68.1935 29.5357 67.2905 29.2417 66.3608 28.9638C66.5136 28.3179 66.6539 27.6803 66.7786 27.0536C68.8255 16.7628 67.4871 8.47239 62.9171 5.74285C58.535 3.12558 51.3684 5.8545 44.1305 12.3784C43.4345 13.0057 42.7365 13.6699 42.0389 14.366C41.574 13.9055 41.1099 13.4604 40.647 13.0347C33.0615 6.05891 25.4581 3.11923 20.8926 5.85667C16.5147 8.48153 15.2182 16.2753 17.0607 26.028C17.2386 26.97 17.4466 27.932 17.6818 28.91C16.6057 29.2264 15.5669 29.5637 14.5729 29.9225C5.67962 33.1338 0 38.1667 0 43.3872C0 48.7789 6.09708 54.1869 15.3601 57.466C16.0911 57.7248 16.8496 57.9695 17.6313 58.2017C17.3775 59.2596 17.1568 60.2962 16.9716 61.3073C15.2147 70.8907 16.5867 78.5003 20.953 81.1086C25.4629 83.8022 33.0319 81.0335 40.4021 74.361C40.9846 73.8335 41.5692 73.2742 42.1549 72.6879C42.914 73.445 43.6719 74.1615 44.4258 74.8336C51.5647 81.1963 58.6156 83.7655 62.9778 81.15C67.4832 78.4486 68.9475 70.2741 67.0465 60.3284C66.9013 59.5688 66.7324 58.7928 66.5426 58.0031C67.0742 57.8403 67.596 57.6723 68.1048 57.4976C77.7346 54.1931 84 48.8509 84 43.3872C84 38.1478 78.1372 33.081 69.0649 29.8463ZM66.9762 53.9698C66.5169 54.1273 66.0456 54.2795 65.5654 54.4271C64.5023 50.9413 63.0675 47.2348 61.3117 43.4053C62.9872 39.667 64.3665 36.0078 65.3999 32.5447C66.2591 32.8023 67.0932 33.0739 67.8968 33.3605C75.67 36.132 80.4115 40.2298 80.4115 43.3872C80.4115 46.7504 75.2908 51.1163 66.9762 53.9698ZM63.5262 61.0502C64.3668 65.4481 64.4869 69.4242 63.9301 72.5325C63.4298 75.3256 62.4237 77.1877 61.1797 77.9335C58.5324 79.5205 52.8714 77.4577 46.7661 72.0162C46.0662 71.3925 45.3612 70.7264 44.654 70.0215C47.0208 67.3404 49.3864 64.2236 51.6951 60.762C55.7559 60.3888 59.5924 59.7787 63.0715 58.9457C63.2429 59.6616 63.3951 60.3637 63.5262 61.0502ZM28.6375 77.6593C26.0511 78.6053 23.9912 78.6324 22.746 77.8888C20.0964 76.306 18.9949 70.1962 20.4974 62.0004C20.6695 61.0618 20.8743 60.0977 21.1104 59.1122C24.5514 59.9002 28.3598 60.4673 32.4303 60.8091C34.7546 64.1963 37.1885 67.3098 39.6412 70.0359C39.1053 70.5717 38.5715 71.0818 38.0407 71.5625C34.7817 74.513 31.5157 76.6064 28.6375 77.6593ZM16.5206 53.9492C12.4247 52.4992 9.04215 50.6147 6.72356 48.5584C4.64017 46.7104 3.5883 44.8758 3.5883 43.3872C3.5883 40.2192 8.14848 36.1785 15.7541 33.4321C16.6769 33.0988 17.6429 32.7848 18.6455 32.4898C19.6966 36.0311 21.0754 39.7336 22.7394 43.4776C21.0539 47.2772 19.6555 51.0387 18.594 54.6216C17.8793 54.4088 17.1869 54.1849 16.5206 53.9492ZM20.5823 25.3142C19.0037 16.9583 20.0521 10.655 22.6904 9.07324C25.5006 7.38822 31.7147 9.7907 38.2643 15.8139C38.6829 16.1989 39.1032 16.6019 39.5247 17.0187C37.0841 19.7329 34.6725 22.823 32.3689 26.1903C28.4183 26.5695 24.6367 27.1787 21.1598 27.9945C20.9412 27.0838 20.7475 26.189 20.5823 25.3142ZM56.8161 34.5808C55.9849 33.0939 55.1316 31.6421 54.2617 30.2299C56.9419 30.5808 59.5097 31.0466 61.9211 31.6167C61.1972 34.0198 60.2948 36.5323 59.2326 39.1081C58.4707 37.6099 57.6648 36.0992 56.8161 34.5808ZM42.0401 19.6749C43.6952 21.5321 45.3528 23.6057 46.9832 25.8554C45.3402 25.7751 43.677 25.7333 42 25.7333C40.3388 25.7333 38.6879 25.7741 37.0551 25.8531C38.6871 23.6242 40.359 21.5535 42.0401 19.6749ZM27.1694 34.6065C26.3391 36.0977 25.5481 37.6001 24.7982 39.1053C23.7532 36.5385 22.8592 34.0145 22.1289 31.5773C24.5256 31.0218 27.0813 30.5676 29.7444 30.2234C28.8622 31.6486 28.0019 33.111 27.1694 34.6062V34.6065ZM29.8211 56.8161C27.0696 56.4981 24.4755 56.0673 22.0795 55.5272C22.8214 53.0465 23.7351 50.4686 24.8022 47.8465C25.5541 49.3506 26.3482 50.8537 27.1836 52.3481H27.1837C28.0346 53.8705 28.9162 55.3618 29.8211 56.8161ZM42.1394 67.3615C40.4386 65.4609 38.7421 63.3585 37.0853 61.0971C38.6937 61.1625 40.3335 61.1959 42 61.1959C43.7121 61.1959 45.4047 61.156 47.0706 61.0792C45.4349 63.3813 43.7833 65.4869 42.1394 67.3615ZM59.2669 47.7128C60.3896 50.3633 61.3361 52.9277 62.0876 55.3661C59.652 55.9416 57.0225 56.4051 54.2519 56.7495C55.1239 55.3183 55.9846 53.8415 56.8305 52.3225C57.6862 50.7857 58.4987 49.2466 59.2669 47.7128ZM53.7221 50.4658C52.4091 52.8238 51.061 55.0748 49.6924 57.1997C47.1998 57.3842 44.6247 57.4793 42 57.4793C39.386 57.4793 36.8432 57.3952 34.3947 57.2306C32.971 55.0779 31.5936 52.8202 30.2889 50.4861H30.2892C28.988 48.1582 27.7903 45.8107 26.7051 43.4764C27.79 41.1366 28.9845 38.7865 30.2783 36.4628L30.278 36.4633C31.5752 34.1334 32.9405 31.8867 34.3511 29.7475C36.8492 29.5519 39.4109 29.4499 41.9998 29.4499H42C44.6006 29.4499 47.1656 29.5527 49.663 29.75C51.052 31.8736 52.408 34.113 53.7103 36.4431C55.0274 38.7995 56.2373 41.134 57.3315 43.4236C56.2406 45.7525 55.0334 48.1105 53.7221 50.4658ZM61.1247 8.96267C63.9376 10.6427 65.0314 17.4184 63.2641 26.3035C63.1514 26.8704 63.0244 27.4479 62.8866 28.0331C59.4016 27.2002 55.6173 26.5805 51.6552 26.1955C49.3471 22.7913 46.9552 19.6964 44.5544 17.017C45.1999 16.3739 45.8444 15.7607 46.4863 15.182C52.6878 9.59233 58.4839 7.38543 61.1247 8.96267ZM42 35.6184C46.1426 35.6184 49.5009 39.0965 49.5009 43.3872C49.5009 47.6777 46.1426 51.156 42 51.156C37.8574 51.156 34.4991 47.6777 34.4991 43.3872C34.4991 39.0965 37.8574 35.6184 42 35.6184Z" fill="#00D8FF"/>
</svg>
