<svg width="25" height="25" viewBox="0 0 25 25" fill="none" xmlns="http://www.w3.org/2000/svg">
<path d="M24.9993 12.2242C24.9313 8.03888 22.6005 3.9639 18.9944 1.81806C16.1534 0.0465539 12.5645 -0.430256 9.33193 0.387244C4.46669 1.61349 0.587939 6.02486 0.0948907 11.0527C-0.517709 15.8012 1.88112 20.7399 5.98061 23.1751C9.99532 25.6957 15.456 25.5936 19.3812 22.9405C22.9197 20.6413 25.1142 16.4474 24.9954 12.2277L24.9993 12.2242ZM13.1935 23.1587C7.51172 23.7208 2.01708 18.9011 1.86354 13.1954C1.43378 8.56302 4.4831 3.9815 8.8381 2.44859C14.9453 -0.0039043 22.4473 4.52637 23.0767 11.084C24.0636 16.9762 19.1644 22.9749 13.1935 23.1587ZM9.45461 11.8663L17.6708 5.13852L13.231 11.8831C11.9722 11.8831 10.7134 11.8835 9.45461 11.8663ZM11.7648 13.1101L15.5411 13.1273L7.32497 19.8719L11.7648 13.1101Z" fill="#010101"/>
</svg>
