<svg width="21" height="18" viewBox="0 0 21 18" fill="none" xmlns="http://www.w3.org/2000/svg">
<path d="M20.6623 2.65593C19.8989 2.99362 19.0893 3.2154 18.2603 3.31393C19.134 2.79136 19.788 1.96894 20.1003 0.999927C19.2803 1.48793 18.3813 1.82993 17.4443 2.01493C16.8149 1.34151 15.9807 0.89489 15.0713 0.744511C14.1618 0.594133 13.2282 0.748418 12.4156 1.18338C11.6029 1.61834 10.9567 2.30961 10.5774 3.14972C10.1981 3.98983 10.107 4.93171 10.3183 5.82893C8.65541 5.74558 7.02863 5.31345 5.54358 4.56059C4.05854 3.80773 2.74842 2.75097 1.6983 1.45893C1.32659 2.09738 1.13125 2.82315 1.1323 3.56193C1.1323 5.01193 1.8703 6.29293 2.9923 7.04293C2.32831 7.02202 1.67893 6.84271 1.0983 6.51993V6.57193C1.0985 7.53763 1.43267 8.47354 2.04414 9.22099C2.65562 9.96843 3.50678 10.4814 4.4533 10.6729C3.83691 10.84 3.1906 10.8646 2.5633 10.7449C2.83016 11.5762 3.3503 12.3031 4.05089 12.824C4.75147 13.3449 5.59742 13.6337 6.4703 13.6499C5.60278 14.3313 4.60947 14.8349 3.54718 15.1321C2.48488 15.4293 1.37442 15.5142 0.279297 15.3819C2.19099 16.6114 4.41639 17.264 6.6893 17.2619C14.3823 17.2619 18.5893 10.8889 18.5893 5.36193C18.5893 5.18193 18.5843 4.99993 18.5763 4.82193C19.3952 4.23009 20.1019 3.49695 20.6633 2.65693L20.6623 2.65593Z" fill="#FDFDFD"/>
</svg>
