<svg width="106" height="39" viewBox="0 0 106 39" fill="none" xmlns="http://www.w3.org/2000/svg">
<mask id="mask0_119_151" style="mask-type:luminance" maskUnits="userSpaceOnUse" x="0" y="0" width="106" height="39">
<path d="M105.217 0.111115H0V39H105.217V0.111115Z" fill="white"/>
</mask>
<g mask="url(#mask0_119_151)">
<path d="M94.6399 27.7882C93.0456 27.2899 91.844 26.2381 91.0106 24.6327C90.4464 23.581 90.1765 22.4184 90.1765 21.1728C90.1765 18.3773 90.1765 15.5817 90.1765 12.8138C90.1765 12.5924 90.2261 12.5371 90.422 12.5371C91.5497 12.5371 92.6537 12.5371 93.7814 12.5371C93.9529 12.5371 94.0017 12.5924 94.0017 12.7862C94.0017 15.554 94.0017 18.3497 94.0017 21.1175C94.0017 21.8648 94.2472 22.5291 94.7131 23.0551C95.4 23.8024 96.209 23.9131 97.0667 23.5533C97.9496 23.1935 98.4155 22.4185 98.4894 21.3666C98.5382 20.7853 98.5138 20.1764 98.5138 19.5952C98.5138 17.3255 98.5138 15.0835 98.5138 12.8138C98.5138 12.6201 98.5382 12.5371 98.7594 12.5371C99.887 12.5371 101.015 12.5371 102.119 12.5371C102.29 12.5371 102.363 12.5647 102.363 12.7862C102.363 18.2943 102.363 23.7747 102.363 29.2828C102.363 32.7703 99.8131 35.7874 96.748 35.9811C95.8903 36.0365 95.0074 35.9811 94.1489 36.0088C94.0269 36.0088 94.0017 35.9534 94.0017 35.8427C94.0017 34.4034 94.0017 32.9641 94.0017 31.5248C94.0017 31.3587 94.0757 31.3311 94.1984 31.3311C94.8846 31.3311 95.5472 31.3311 96.2334 31.3311C97.5821 31.3311 98.6122 30.1685 98.6122 28.6462C98.6122 28.3417 98.6122 28.0649 98.6122 27.7605C98.6122 27.5944 98.587 27.539 98.4399 27.6221C97.6553 27.9542 96.8464 28.0926 96.013 28.0373C95.596 28.0096 95.2033 27.9819 94.8114 27.8158C94.7131 27.7882 94.6887 27.7605 94.6399 27.7882Z" fill="#3D7EE6"/>
<path d="M45.6484 27.8429C45.3296 27.8429 45.0108 27.8429 44.6921 27.8706C43.7603 27.8706 42.8286 27.8706 41.8968 27.8706C41.7251 27.8706 41.6516 27.8152 41.6025 27.6215C41.1856 25.4348 40.7443 23.2482 40.3029 21.0616C40.1313 20.2312 39.9842 19.3732 39.837 18.5428C39.8125 18.4598 39.8125 18.3767 39.788 18.266C39.7144 18.3491 39.7144 18.4598 39.6899 18.5428C39.1504 21.6151 38.4639 24.6321 37.8018 27.6768C37.7773 27.8152 37.7038 27.8706 37.5812 27.8706C36.3061 27.8706 35.031 27.8706 33.7314 27.8706C33.5598 27.8706 33.5353 27.7599 33.4862 27.6215C32.7261 24.6321 31.9905 21.6428 31.2303 18.6535C30.7399 16.7159 30.2495 14.7785 29.7591 12.8409C29.6855 12.5365 29.6855 12.5365 29.9553 12.5365C31.1567 12.5365 32.3828 12.5365 33.5843 12.5365C33.8785 12.5365 33.8785 12.5365 33.9521 12.8686C34.1237 13.699 34.2954 14.557 34.4671 15.3874C34.9084 17.491 35.3988 19.5946 35.7911 21.7259C35.8157 21.8642 35.8402 22.0026 35.8647 22.141C35.9628 22.0857 35.9383 21.975 35.9628 21.8919C36.5268 18.8473 37.1643 15.8026 37.7528 12.7578C37.7773 12.5918 37.8264 12.5087 38.0225 12.5087C39.2486 12.5087 40.4991 12.5087 41.7251 12.5087C41.8968 12.5087 41.9458 12.5918 41.9948 12.7578C42.5588 15.8302 43.1473 18.9026 43.7112 21.975C43.7112 22.0303 43.7358 22.0857 43.7603 22.1687C43.8338 22.0857 43.8338 22.0026 43.8584 21.9196C44.4224 19.2901 44.9864 16.6606 45.5503 14.0311C45.5503 13.9757 45.5748 13.9481 45.5994 13.8927C45.6484 13.9757 45.6484 14.0588 45.6484 14.1695C45.6484 18.7365 45.6484 23.3036 45.6484 27.8429Z" fill="#3D7EE6"/>
<path d="M58.8612 21.2284C57.5126 21.2284 56.1394 21.2284 54.7908 21.2284C54.6191 21.2284 54.5456 21.2562 54.5701 21.4775C54.6682 22.3356 54.8643 23.166 55.4528 23.8026C55.7471 24.1348 56.0658 24.3286 56.4582 24.4392C57.0222 24.5777 57.5616 24.5223 58.101 24.3286C58.5914 24.1348 58.9102 23.7196 59.1064 23.1936C59.18 22.9999 59.278 22.9445 59.4497 22.9445C60.6022 22.9445 61.73 22.9445 62.8826 22.9445C63.1278 22.9445 63.1278 22.9445 63.0787 23.2214C62.3922 25.9062 60.455 27.733 57.9784 28.0098C56.9241 28.1205 55.8942 28.0929 54.8889 27.7607C53.1969 27.2071 51.9955 25.9893 51.3089 24.1624C50.279 21.4222 50.3525 18.6544 51.456 15.9418C52.2897 13.8935 53.7854 12.7864 55.7226 12.3989C56.826 12.1774 57.9294 12.2052 59.0328 12.5373C61.068 13.1739 62.3431 14.6963 62.907 16.9659C63.2504 18.2669 63.2748 19.5954 63.2013 20.9517C63.1768 21.1731 63.1032 21.2284 62.9316 21.2284C61.5584 21.2284 60.2098 21.2284 58.8612 21.2284ZM56.9731 18.3498C57.6597 18.3498 58.3462 18.3498 59.0574 18.3498C59.2535 18.3498 59.3026 18.2945 59.278 18.0731C59.2535 17.824 59.2045 17.5472 59.1554 17.2981C58.714 15.5266 56.6544 14.9176 55.4774 16.2186C55.0115 16.7445 54.8398 17.4088 54.7172 18.1007C54.6927 18.2945 54.7417 18.3498 54.8889 18.3498C55.5754 18.3498 56.262 18.3498 56.9731 18.3498Z" fill="#3D7EE6"/>
<path d="M19.4333 14.0033C19.4333 11.5952 19.4333 9.18715 19.4333 6.77905C19.4333 6.55762 19.4824 6.47458 19.703 6.47458C20.8065 6.47458 21.9099 6.47458 23.0133 6.47458C23.185 6.47458 23.234 6.52993 23.234 6.72369C23.234 8.5505 23.234 10.4049 23.234 12.2318C23.234 12.5363 23.234 12.5363 23.5283 12.5363C24.8769 12.5363 26.2255 12.5363 27.5741 12.5363C27.8439 12.5363 27.8439 12.5363 27.8439 12.8407C27.8439 14.197 27.8439 15.5533 27.8439 16.9095C27.8439 17.131 27.7949 17.214 27.5987 17.1863C26.2255 17.1863 24.8524 17.1863 23.4792 17.1863C23.3076 17.1863 23.234 17.2417 23.234 17.4354C23.2585 18.5426 23.185 19.6221 23.2585 20.7292C23.3321 22.0301 24.3129 23.082 25.4654 23.1096C26.1765 23.1373 26.8875 23.1096 27.5987 23.1096C27.7703 23.1096 27.8439 23.165 27.8439 23.3587C27.8439 24.7427 27.8439 26.1543 27.8439 27.5383C27.8439 27.6766 27.8439 27.7874 27.6723 27.7874C26.814 27.7597 25.9558 27.815 25.0976 27.7597C22.2777 27.6213 19.8992 25.1301 19.5069 21.9748C19.4578 21.5873 19.4333 21.1998 19.4333 20.7846C19.4333 18.5426 19.4333 16.2729 19.4333 14.0033Z" fill="#3D7EE6"/>
<path d="M85.0329 27.7874C84.9598 27.7874 84.8858 27.7874 84.837 27.7597C84.8126 27.732 84.7882 27.732 84.763 27.7597C83.5126 27.5659 82.4094 26.957 81.5021 25.9882C80.2029 24.6043 79.5647 22.8882 79.5647 20.8676C79.5647 16.1622 79.5647 11.4568 79.5647 6.77905C79.5647 6.47458 79.5647 6.47458 79.8346 6.47458C80.9379 6.47458 82.0419 6.47458 83.1451 6.47458C83.3411 6.47458 83.3655 6.52993 83.3655 6.72369C83.3655 8.57818 83.3655 10.4327 83.3655 12.2872C83.3655 12.4809 83.415 12.564 83.611 12.564C84.9842 12.564 86.3573 12.564 87.7305 12.564C87.9264 12.564 87.9752 12.6193 87.9752 12.8407C87.9752 14.2247 87.9752 15.6087 87.9752 16.9926C87.9752 17.1863 87.9264 17.2417 87.7549 17.2417C86.3817 17.2417 84.9842 17.2417 83.611 17.2417C83.4394 17.2417 83.3899 17.2694 83.3899 17.4908C83.3899 18.5149 83.3899 19.539 83.3899 20.5632C83.415 21.615 83.8565 22.3899 84.6411 22.9159C84.9842 23.1373 85.3761 23.1927 85.7931 23.1927C86.4557 23.1927 87.1175 23.1927 87.7793 23.1927C87.9264 23.1927 87.9752 23.2203 87.9752 23.4141C87.9752 24.8257 87.9752 26.2373 87.9752 27.649C87.9752 27.7597 87.9752 27.8704 87.8288 27.8704C86.9703 27.8427 86.1362 27.8981 85.2785 27.8427C85.1801 27.7597 85.1069 27.7597 85.0329 27.7874Z" fill="#3D7EE6"/>
<path d="M68.8453 12.9241C69.679 12.4536 70.5863 12.2599 71.5181 12.2875C74.1908 12.3706 76.4463 14.3358 77.2065 17.2144C77.3781 17.851 77.452 18.4876 77.452 19.1242C77.452 21.9475 77.452 24.7707 77.452 27.594C77.452 27.8154 77.4032 27.8708 77.2065 27.8708C76.0788 27.8708 74.9754 27.8708 73.8475 27.8708C73.6513 27.8708 73.6023 27.8154 73.6023 27.594C73.6023 24.7707 73.6023 21.9751 73.6023 19.1519C73.6023 17.7126 72.5724 16.55 71.3219 16.5778C70.6843 16.5778 70.1694 16.8822 69.7035 17.3804C69.2621 17.8787 69.0905 18.5153 69.0905 19.1796C69.0905 21.9475 69.0905 24.7153 69.0905 27.5109C69.0905 27.8708 69.0905 27.8708 68.7717 27.8431C68.7717 23.0546 68.7717 18.2661 68.7717 13.4777C68.7963 13.3116 68.7963 13.1179 68.8453 12.9241Z" fill="#3D7EE6"/>
<path d="M16.983 14.9729C16.983 15.6925 16.983 16.4121 16.983 17.1318C16.983 17.2979 16.9339 17.3809 16.7869 17.464C16.1248 17.7407 15.4873 18.0729 14.8988 18.5157C13.8689 19.2077 12.9862 20.0934 12.2505 21.1729C10.951 23.0551 10.2154 25.1863 10.0682 27.5945C10.0437 27.7882 9.99463 27.8436 9.823 27.8436C8.69504 27.8436 7.59165 27.8436 6.46371 27.8436C6.26755 27.8436 6.21851 27.7605 6.21851 27.5668C6.31659 23.6917 7.42001 20.2596 9.67593 17.3256C11.0736 15.4987 12.741 14.1701 14.7026 13.2844C15.3892 12.98 16.0757 12.7585 16.7869 12.5925C16.9585 12.5647 16.983 12.5925 16.983 12.7862C16.9585 13.5059 16.983 14.2532 16.983 14.9729Z" fill="#3D7EE6"/>
<path d="M11.2963 10.8755C9.50635 10.8755 7.69181 10.8755 5.9018 10.8755C5.63208 10.8755 5.63208 10.8755 5.63208 10.5711C5.63208 9.29787 5.63208 8.0246 5.63208 6.77905C5.63208 6.52994 5.70564 6.47458 5.9018 6.47458C9.50635 6.47458 13.1108 6.47458 16.7399 6.47458C16.936 6.47458 17.0096 6.52994 16.9851 6.75137C16.9851 8.05228 16.9851 9.32553 16.9851 10.6264C16.9851 10.8202 16.936 10.8755 16.7644 10.8755C14.9254 10.8755 13.1108 10.8755 11.2963 10.8755Z" fill="#3D7EE6"/>
<path d="M68.8416 12.9238C68.7926 13.1176 68.7926 13.3113 68.7926 13.5051C68.7926 18.2934 68.7926 23.0819 68.7926 27.8704C68.3022 27.8704 67.8118 27.8704 67.3458 27.8981C66.7328 27.8981 66.0953 27.8981 65.4823 27.8981C65.3597 27.8981 65.3106 27.8704 65.3106 27.7043C65.3106 24.7426 65.2371 21.7533 65.3352 18.7917C65.4332 16.1345 66.6593 14.2246 68.7435 13.0068C68.768 12.9514 68.7926 12.9238 68.8416 12.9238Z" fill="#3D7EE6"/>
<path d="M45.6528 27.8435C45.6528 23.3042 45.6528 18.7372 45.6528 14.1978C45.6528 14.1147 45.6528 14.0041 45.6038 13.921C45.6773 13.5059 45.7754 13.0906 45.849 12.6755C45.8735 12.5647 45.9225 12.5371 46.0206 12.5371C47.2466 12.5371 48.4727 12.5371 49.6987 12.5371C49.8703 12.5371 49.8458 12.6478 49.7967 12.7584C49.4045 14.2532 49.0121 15.7478 48.6198 17.2147C48.3746 18.1282 48.1539 19.0139 47.9087 19.9273C47.7125 20.647 47.4918 21.3666 47.3202 22.114C46.8788 23.9684 46.3639 25.7953 45.898 27.6221C45.8735 27.7882 45.8244 27.9265 45.6528 27.8435Z" fill="#3D7EE6"/>
<path d="M85.0247 27.7869C85.0979 27.7315 85.1718 27.7592 85.2206 27.8146C85.1718 27.8423 85.0979 27.8146 85.0247 27.7869Z" fill="#414141"/>
<path d="M84.7358 27.7599C84.761 27.7327 84.7854 27.7327 84.8106 27.7599C84.8106 27.7599 84.7854 27.7599 84.7358 27.7599Z" fill="#414141"/>
<path d="M94.6414 27.7877C94.6658 27.7601 94.6909 27.7601 94.7161 27.8155C94.7161 27.8155 94.6909 27.7877 94.6414 27.7877Z" fill="#414141"/>
</g>
</svg>
